<svg xmlns="http://www.w3.org/2000/svg" viewBox="0 0 100 100"><title>3Arts-social_instagram</title><rect x="60.02" y="28.79" width="11.08" height="10.78" rx="2.45" ry="2.45" style="fill:#fff"/><ellipse cx="50.05" cy="49.88" rx="10.95" ry="10.61" style="fill:#fff"/><path d="M67,50.48a16.69,16.69,0,0,1-17,16.43A16.69,16.69,0,0,1,33.1,50.48a16.06,16.06,0,0,1,.69-4.68h-5v23A2.17,2.17,0,0,0,31,71H69a2.17,2.17,0,0,0,2.17-2.17v-23H66.31A16.06,16.06,0,0,1,67,50.48Z" style="fill:#fff"/><path d="M50,2.25A47.75,47.75,0,1,0,97.75,50,47.75,47.75,0,0,0,50,2.25Zm27.28,68a7,7,0,0,1-7,7H29.71a7,7,0,0,1-7-7V29.72a7,7,0,0,1,7-7H70.29a7,7,0,0,1,7,7Z" style="fill:#fff"/></svg>