<svg xmlns="http://www.w3.org/2000/svg" viewBox="0 0 100 100"><title>3Arts-social_twitter</title><path d="M50,2.25A47.75,47.75,0,1,0,97.75,50,47.75,47.75,0,0,0,50,2.25ZM76.48,36.42c0,.59,0,1.18,0,1.77,0,18.05-13.74,38.87-38.87,38.87a38.69,38.69,0,0,1-20.94-6.14,26.88,26.88,0,0,0,3.25.19,27.41,27.41,0,0,0,17-5.85,13.67,13.67,0,0,1-12.76-9.49,13.57,13.57,0,0,0,2.57.25,13.78,13.78,0,0,0,3.6-.48,13.67,13.67,0,0,1-11-13.4V42a13.51,13.51,0,0,0,6.19,1.71,13.67,13.67,0,0,1-4.23-18.24A38.79,38.79,0,0,0,49.5,39.72a13.94,13.94,0,0,1-.35-3.12,13.66,13.66,0,0,1,23.63-9.34,27.42,27.42,0,0,0,8.67-3.32,13.7,13.7,0,0,1-6,7.56,27.18,27.18,0,0,0,7.84-2.15A27.75,27.75,0,0,1,76.48,36.42Z" style="fill:#fff"/></svg>