<?xml version="1.0" encoding="UTF-8"?><svg id="Layer_1" xmlns="http://www.w3.org/2000/svg" viewBox="0 0 296.62 64.92"><defs><style>.cls-1{fill:#f4462f;}</style></defs><g><path class="cls-1" d="M47.73,47.73c8.42-8.42,8.42-22.12,0-30.54-4.08-4.08-9.5-6.33-15.27-6.33s-11.19,2.25-15.27,6.33c-4.08,4.08-6.33,9.5-6.33,15.27s2.25,11.19,6.33,15.27c4.21,4.21,9.74,6.31,15.27,6.31s11.06-2.11,15.27-6.31h0ZM21.77,21.77c2.86-2.86,6.66-4.43,10.7-4.43,2.85,0,5.56,.8,7.92,2.25l-20.8,20.8c-1.46-2.36-2.25-5.08-2.25-7.92,0-4.04,1.57-7.84,4.43-10.7Zm21.39,21.39c-5.04,5.04-12.79,5.76-18.62,2.17l20.8-20.79c1.46,2.36,2.25,5.08,2.25,7.92,0,4.04-1.57,7.84-4.43,10.7Z"/><polygon class="cls-1" points="43.73 0 43.73 6.47 58.46 6.47 58.46 21.2 64.93 21.2 64.93 0 43.73 0"/><polygon class="cls-1" points="58.46 58.46 43.73 58.46 43.73 64.92 64.93 64.92 64.93 43.72 58.46 43.72 58.46 58.46"/><polygon class="cls-1" points="6.47 43.72 0 43.72 0 64.92 21.2 64.92 21.2 58.46 6.47 58.46 6.47 43.72"/><polygon class="cls-1" points="6.47 6.47 21.2 6.47 21.2 0 0 0 0 21.2 6.47 21.2 6.47 6.47"/></g><g><path class="cls-1" d="M79.65,34.16l3.2-3.85c1.6,1.21,3.49,2.06,5.42,2.06,1.7,0,2.35-.56,2.35-1.24,0-1.24-1.11-1.5-3.07-2.32l-2.64-1.11c-2.45-.91-4.47-2.84-4.47-5.91,0-3.62,3.26-6.59,8.09-6.59,2.51,0,5.19,.91,7.25,2.84l-2.81,3.53c-1.53-1.01-2.74-1.53-4.77-1.53-1.24,0-2.09,.46-2.09,1.44s1.21,1.34,3.33,2.12l2.45,1.01c2.84,1.04,4.47,2.87,4.47,5.81,0,3.59-3,6.79-8.49,6.79-2.77,0-5.84-.98-8.23-3.04Z"/><path class="cls-1" d="M104.78,20.29h-6.1v-4.7h17.82v4.7h-6.1v16.51h-5.61V20.29Z"/><path class="cls-1" d="M118.49,26.1c0-7.18,3.52-10.9,8.68-10.9s8.68,3.72,8.68,10.9-3.53,11.1-8.68,11.1-8.68-3.72-8.68-11.1Zm11.62,0c0-4.05-1.11-6.07-2.94-6.07s-2.94,2.02-2.94,6.07,1.11,6.27,2.94,6.27,2.94-2.02,2.94-6.27Z"/><path class="cls-1" d="M139.05,15.59h7.96c4.57,0,8.49,1.7,8.49,7.05s-4.05,7.44-8.49,7.44h-2.35v6.72h-5.61V15.59Zm7.7,10.05c2.22,0,3.26-1.11,3.26-3s-1.17-2.61-3.26-2.61h-2.09v5.61h2.09Z"/><path class="cls-1" d="M79.65,62.93l3.2-3.85c1.6,1.21,3.49,2.06,5.42,2.06,1.7,0,2.35-.56,2.35-1.24,0-1.24-1.11-1.5-3.07-2.32l-2.64-1.11c-2.45-.91-4.47-2.84-4.47-5.91,0-3.62,3.26-6.59,8.09-6.59,2.51,0,5.19,.91,7.25,2.84l-2.81,3.53c-1.53-1.01-2.74-1.53-4.77-1.53-1.24,0-2.09,.46-2.09,1.44s1.21,1.34,3.33,2.12l2.45,1.01c2.84,1.04,4.47,2.87,4.47,5.81,0,3.59-3,6.79-8.49,6.79-2.77,0-5.84-.98-8.23-3.04Z"/><path class="cls-1" d="M99.69,44.36h5.61v7.9h4.57v-7.9h5.61v21.21h-5.61v-8.42h-4.57v8.42h-5.61v-21.21Z"/><path class="cls-1" d="M118.49,54.87c0-7.18,3.52-10.9,8.68-10.9s8.68,3.72,8.68,10.9-3.53,11.1-8.68,11.1-8.68-3.72-8.68-11.1Zm11.62,0c0-4.05-1.11-6.07-2.94-6.07s-2.94,2.02-2.94,6.07,1.11,6.27,2.94,6.27,2.94-2.02,2.94-6.27Z"/><path class="cls-1" d="M143.95,49.06h-6.1v-4.7h17.82v4.7h-6.1v16.51h-5.61v-16.51Z"/><path class="cls-1" d="M157.98,62.93l3.2-3.85c1.6,1.21,3.49,2.06,5.42,2.06,1.7,0,2.35-.56,2.35-1.24,0-1.24-1.11-1.5-3.07-2.32l-2.64-1.11c-2.45-.91-4.47-2.84-4.47-5.91,0-3.62,3.26-6.59,8.09-6.59,2.51,0,5.19,.91,7.25,2.84l-2.81,3.53c-1.53-1.01-2.74-1.53-4.77-1.53-1.24,0-2.09,.46-2.09,1.44s1.21,1.34,3.33,2.12l2.45,1.01c2.84,1.04,4.47,2.87,4.47,5.81,0,3.59-3,6.79-8.49,6.79-2.77,0-5.84-.98-8.23-3.04Z"/><path class="cls-1" d="M178.22,44.36h7.96c4.57,0,8.49,1.7,8.49,7.05s-4.05,7.44-8.49,7.44h-2.35v6.72h-5.61v-21.21Zm7.7,10.05c2.22,0,3.26-1.11,3.26-3s-1.18-2.61-3.26-2.61h-2.09v5.61h2.09Z"/><path class="cls-1" d="M196.82,54.87c0-7.18,3.52-10.9,8.68-10.9s8.68,3.72,8.68,10.9-3.53,11.1-8.68,11.1-8.68-3.72-8.68-11.1Zm11.62,0c0-4.05-1.11-6.07-2.94-6.07s-2.94,2.02-2.94,6.07,1.11,6.27,2.94,6.27,2.94-2.02,2.94-6.27Z"/><path class="cls-1" d="M222.28,49.06h-6.1v-4.7h17.82v4.7h-6.1v16.51h-5.61v-16.51Z"/><path class="cls-1" d="M241.87,49.06h-6.1v-4.7h17.82v4.7h-6.1v16.51h-5.61v-16.51Z"/><path class="cls-1" d="M257.21,44.36h14.43v4.7h-8.81v3.33h7.51v4.7h-7.51v3.79h9.14v4.7h-14.75v-21.21Z"/><path class="cls-1" d="M275.94,44.36h7.9c4.57,0,8.49,1.57,8.49,6.85s-3.92,7.25-8.49,7.25h-2.28v7.12h-5.61v-21.21Zm7.51,9.66c2.22,0,3.39-.98,3.39-2.81s-1.18-2.42-3.39-2.42h-1.89v5.22h1.89Zm3.17-.75l6.89,12.3h-6.27l-4.41-8.58,3.79-3.72Z"/></g></svg>