<?xml version="1.0" encoding="UTF-8"?><svg id="Layer_1" xmlns="http://www.w3.org/2000/svg" viewBox="0 0 64.93 64.92"><defs><style>.cls-1{fill:#f4462f;}</style></defs><polygon class="cls-1" points="43.73 0 43.73 6.47 58.46 6.47 58.46 21.2 64.93 21.2 64.93 0 43.73 0"/><polygon class="cls-1" points="58.46 58.46 43.73 58.46 43.73 64.92 64.93 64.92 64.93 43.72 58.46 43.72 58.46 58.46"/><polygon class="cls-1" points="6.47 43.72 0 43.72 0 64.92 21.2 64.92 21.2 58.46 6.47 58.46 6.47 43.72"/><polygon class="cls-1" points="6.47 6.47 21.2 6.47 21.2 0 0 0 0 21.2 6.47 21.2 6.47 6.47"/><path class="cls-1" d="M37.44,29.92l-4-1.65c-3.47-1.28-5.44-1.87-5.44-3.47s1.39-2.35,3.41-2.35c3.31,0,5.28,.85,7.78,2.51l4.58-5.76c-3.36-3.15-7.73-4.64-11.84-4.64-7.89,0-13.22,4.85-13.22,10.77,0,5.01,3.31,8.16,7.3,9.65l4.32,1.81c3.2,1.33,5.01,1.76,5.01,3.79,0,1.12-1.07,2.03-3.84,2.03-3.15,0-6.24-1.39-8.85-3.36l-5.23,6.29c3.89,3.36,8.9,4.96,13.44,4.96,8.96,0,13.86-5.22,13.86-11.09,0-4.8-2.67-7.78-7.3-9.49Z"/></svg>