<?xml version="1.0" encoding="UTF-8"?><svg id="Layer_1" xmlns="http://www.w3.org/2000/svg" viewBox="0 0 64.93 64.92"><defs><style>.cls-1{fill:#f4462f;}</style></defs><polygon class="cls-1" points="43.73 0 43.73 6.47 58.46 6.47 58.46 21.2 64.93 21.2 64.93 0 43.73 0"/><polygon class="cls-1" points="58.46 58.46 43.73 58.46 43.73 64.92 64.93 64.92 64.93 43.72 58.46 43.72 58.46 58.46"/><polygon class="cls-1" points="6.47 43.72 0 43.72 0 64.92 21.2 64.92 21.2 58.46 6.47 58.46 6.47 43.72"/><polygon class="cls-1" points="6.47 6.47 21.2 6.47 21.2 0 0 0 0 21.2 6.47 21.2 6.47 6.47"/><polygon class="cls-1" points="47.54 15.21 18.43 15.21 18.43 22.88 28.4 22.88 28.4 49.86 37.57 49.86 37.57 22.88 47.54 22.88 47.54 15.21"/></svg>