<?xml version="1.0" encoding="UTF-8"?><svg id="Layer_1" xmlns="http://www.w3.org/2000/svg" viewBox="0 0 64.93 64.92"><defs><style>.cls-1{fill:#f4462f;}</style></defs><path class="cls-1" d="M47.73,47.73c8.42-8.42,8.42-22.12,0-30.54-4.08-4.08-9.5-6.33-15.27-6.33s-11.19,2.25-15.27,6.33c-4.08,4.08-6.33,9.5-6.33,15.27s2.25,11.19,6.33,15.27c4.21,4.21,9.74,6.31,15.27,6.31s11.06-2.11,15.27-6.31h0ZM21.77,21.77c2.86-2.86,6.66-4.43,10.7-4.43,2.85,0,5.56,.8,7.92,2.25l-20.8,20.8c-1.46-2.36-2.25-5.08-2.25-7.92,0-4.04,1.57-7.84,4.43-10.7Zm21.39,21.39c-5.04,5.04-12.79,5.76-18.62,2.17l20.8-20.79c1.46,2.36,2.25,5.08,2.25,7.92,0,4.04-1.57,7.84-4.43,10.7Z"/><polygon class="cls-1" points="43.73 0 43.73 6.47 58.46 6.47 58.46 21.2 64.93 21.2 64.93 0 43.73 0"/><polygon class="cls-1" points="58.46 58.46 43.73 58.46 43.73 64.92 64.93 64.92 64.93 43.72 58.46 43.72 58.46 58.46"/><polygon class="cls-1" points="6.47 43.72 0 43.72 0 64.92 21.2 64.92 21.2 58.46 6.47 58.46 6.47 43.72"/><polygon class="cls-1" points="6.47 6.47 21.2 6.47 21.2 0 0 0 0 21.2 6.47 21.2 6.47 6.47"/></svg>