<?xml version="1.0" encoding="utf-8"?>
<!-- Generator: Adobe Illustrator 26.4.1, SVG Export Plug-In . SVG Version: 6.00 Build 0)  -->
<svg version="1.1" id="Layer_1" xmlns="http://www.w3.org/2000/svg" xmlns:xlink="http://www.w3.org/1999/xlink" x="0px" y="0px"
	 viewBox="0 0 1026.1 634.5" style="enable-background:new 0 0 1026.1 634.5;" xml:space="preserve">
<style type="text/css">
	.st0{fill:#D0D0D0;}
	.st1{fill:none;stroke:#FFFFFF;}
	.st2{fill:#D0D0D0;stroke:#FFFFFF;}
	.st3{fill:#F4462F;}
</style>
<g>
	<path class="st0" d="M676.5,488.1l0.4-7.3l-0.9-1.2l-1.7-0.7l-2.5-2.8l0.5-2.9l48.8-5.1l-0.7-2.2l-1.5-1.5l-0.5-1.4l0.6-6.3
		l-2.4-5.7l0.5-2.6l0.3-3.7l2.2-3.8l-0.2-1.1l-1.7-1v-3.2l-1.8-1.9l-2.9-6.1l-12.9-45.8l-45.7,4l1.3,2l-1.3,67l4.4,33.2l0.9-0.5
		l1.3,0.1l0.6,0.4l0.8-0.1l2-3.8v-2.3l1.1-1.1l1.4,0.5l3.4,6.4v0.9l-3.3,2.2l3.5-0.4l4.9-1.6L676.5,488.1z"/>
	<path class="st0" d="M49.3,592.7h2.4l0.7,0.7l-1,1.2l-1.9,0.2l-2.5,1.3l-3.7-0.1l2.2-0.9l0.3-1.1l2.5-0.3L49.3,592.7z M57.6,591
		l1.3,0.5h0.9l0.5,1.2l0.3-0.6l0.9,0.2l1.1,1.5v0.5l-4.2,1.9l-2.4-0.1l-1-0.5l-1.1,0.7h-2l-1.1-1.4l4.7-0.5L57.6,591z M63,590.9
		l1,0.1l0.7,0.7v1l-1.3,0.1l-0.9-1.1L63,590.9z M65.5,591.2l1.3-0.1l-0.1,1l-1.1,0.6L65.5,591.2z M65.8,593.4l3.4-0.1l0.2,1.1
		l-1.3,0.1l-0.3-0.5l-0.8,0.6l-0.4-0.6l-0.9-0.2L65.8,593.4z M232.1,601l2.1,0.1l-1,1.9l-1.1-0.1l-0.4-0.8l0.5-1.3 M231.1,597.9
		l0.6-1.3l-0.2-2.3l2.4-0.5l4.5,4.4l1.3,3.4l1.9,1.6l0.3,5.1h-1.4l-1.3-2.3l-3.1-2.4h-0.6l1.1,2.8l1.7,0.2l0.2,2.1l-0.9,0.1
		l-4.1-4.4l-0.1-0.9l1.9-1v-1l-0.5-0.8l-1.6-0.6l-1.7-1.3l1.4,0.1l0.5-0.4l-0.6-0.9l-0.6,0.5L231.1,597.9z M227.5,588.8l1.3,0.1
		l2.4,2.5l-0.2,0.8l-0.8-0.1l-0.1,1.8l0.5,0.5v1.5l-0.8,0.3l-0.4,1.2l-0.8-0.4l-0.4-2.2l1.1-1.4l-2.1-2.2l0.1-1.2L227.5,588.8z
		 M229,587.3l1.9,0.2l2.5,0.1l3.4,3.2l-0.2,0.5l-1.1,0.6l-1.1-0.2l-0.1-0.7l-1.2-1.6l-0.3,0.7l1,1.3l-0.2,1.2l-0.8-0.1l-1.3,0.2
		l-0.1-1.7l-2.6-2.8L229,587.3z M216.3,578.4l0.9-0.4h1.6l0.7-0.5l4.1,2.2l0.1,1.5l-0.5,0.5h-0.8L221,581l1.1,1.3h1.8l0.5,2h-0.9
		l-2.2-1.5l-1.1-0.2l0.6,1.3l0.1,0.9l0.8-0.6l1.7,1.2l1.3-0.1l-0.2,0.8l1.9,4.3v3.4l0.4,2.1l-0.8,0.3l-1.2-2l-0.5-1.5l-1.6-1.6
		l-0.2-2.7l-0.6-1.7h-0.7l0.3,1.1v0.5l-1.4,1l0.1-3.3l-1.6-1.6l-1.3-2.3l-1.2-1.2L216.3,578.4z M223.5,576.1l1.1,1.8l2.4-0.1l1,2.1
		l-0.6,0.6l2,3.2v1.3l-1.2,0.8v0.7l-2,1.9l-0.5-1.4l-0.1-1.3l0.6-0.7v-1.1l-1.5-1.9l-0.5-3.7l-0.9-1.5L223.5,576.1z M166.8,557.8
		l-4,4.1v1.6l2.1-0.8l0.8-1.9l2.2-2.4L166.8,557.8z M135.2,574.4v0.6l1.8,1.2l0.2-1.4l0.6,0.9l3.5,0.1l0.7-0.6l0.2-1.8l-0.5-0.7
		h-1.4v-0.8l0.4-0.6v-0.4l-1.5-0.3l-3.3,3.6L135.2,574.4z M127.1,580.6l1.5,5.8h2.1l2.4-2.5l0.3,1.2l6.3-4l0.7-1l-1-1.1v-0.7
		l0.5-1.3l-0.9-0.1l-2,1v-1.2l-2.7-0.6l-2.4,0.3l-0.2,3.4l-0.8-2l-1.5-0.1l-1,0.6L127.1,580.6z M124.9,588.8l0.1-0.7l2.1-1.3
		l0.6,0.3l1.3,0.2l1.3,1.2l-2.2-0.2l-0.4-0.6l-1,0.6L124.9,588.8z M119.7,592.1l-1.1,0.8l1.5,1.4l0.8-0.7l-0.1-1.3L119.7,592.1z
		 M113.4,584.2l1.4,0.1l0.4,0.6l-1.8,0.1V584.2z M99.5,596.1v0.5l0.7,0.1l-0.1-0.6H99.5z M99.1,592.9l-1,1v0.5l0.7,1.1l1-1l-0.7-0.1
		V592.9z M97.1,592.1l-0.3,1l-1.3,0.1l-0.4,0.2v1.3l-0.5,0.9h0.6l0.7-0.9l0.8-0.1l0.9-1l0.2-1.3L97.1,592.1z M92.7,590.1l-0.2,1.8
		l1.4,0.8l1.2-0.6v-1l1.7-0.3l-0.1-0.6l-0.9-0.2l-0.7,0.6l-0.9-0.5H92.7z M87.8,590l1,0.7l-0.3,1.2l-1.4-1.1L87.8,590z M83.6,591.3
		l1.4,0.1l-0.7,0.8L83.6,591.3z M80.1,594.3l1.8,1.1l-1.7,0.1L80.1,594.3z M54.7,563.1l1.2,0.6l-0.8,0.6L54.7,563.1z M54,556.8
		l0.4,1.2l0.8-1.2H54z M78.3,537.5l1.5-0.1l0.9,0.4l1.1-0.5l1.3-0.1l1.6,0.8l0.8,1.9l-0.1,0.9l-1.2,2l-2.4-0.2l-2.1-1.8l-1-0.4
		l-1.1-2L78.3,537.5z M57.2,523.1l0.1,1.9l2,2v0.5l-0.8-0.2l-1.7-0.8l-0.3-1.1l-0.3-1.6L57.2,523.1z M75.5,499.8v1.2l1.9,1.8h2.3
		l0.6,1.1v1.6l2.1,1.9l1.8,1.2l-0.1,0.7l-0.7,1.1l-1.4-1.2l-2.1,0.1l-0.8-0.8l-0.9-2.1l-1.5-2.2l-2.6-0.1l-1-0.7l1-2.1L75.5,499.8z
		 M92.3,495.3h1l0.1,1.1h-1L92.3,495.3z M108.5,515l0.9,0.1v1.2l-1.7-0.5L108.5,515z M236.3,592.7l-1.2,0.4l-0.1,1.1h1.2
		L236.3,592.7z M78.7,588.2l-1.3-0.4l-4.1,0.6l-2.8,1.4l-0.1,1.9l1.9,0.7l1.5-0.9l1.7-0.1l4.7,1.4l0.1-1.3l-1.6-1.1L78.7,588.2z
		 M80.8,590.5l-0.4-1.4l1.2,0.2l0.1,1.4h1.8l0.4-2.5l0.3,2.4l2.5-0.1l3.2-3.3l0.8,0.1l-0.7,1.3l1.4,0.9l4.2-0.2l2.6-1.2l1.4-0.1
		l0.3,1.5l0.6-0.5l0.4-1.4l5.9,0.2l1.9-1.6l-1.3-1.1l0.6-1.2l2.6,0.2l-0.2-1.2l2.5,0.2l0.7-1.1l1.1,0.2l4.6-1.9l0.2-1.7l5.6-2.4
		l2-1.9l1.2-0.6l1.3,0.8l2.3-0.9l1.1-1.9l0.5-1.3l1.7-0.9l1.5-0.7l0.4-1.4l-1.1-1.7l-2.2-0.2l-0.2-1.3l0.8-1.6l1.4-0.2l1.3-1.5
		l1.9-0.1l3.4-3.2l0.4-1.4l1.5-2.3l3.8-4.1l2.5-0.9l1.9-0.9l2.1,0.8l1.4,2.6h-1.5l-1.4-1.5l-3,2l-1.7,0.1l-0.2,3.1l-3.1,4.9l0.6,2
		h2.3l-0.6,1l-1.4,0.1l-2.4,1.8v0.9l1.9,1l3.4-0.6l1.4-1.7l1.4,0.1l3-1.7l0.5-2.3l1.6-0.1l6.3,0.8l1-1.1l1-4.5l-1.6,1.1l0.6-2.2
		l-1.6-1.4l0.8-1.5l0.1,1.5h3.4l0.7-1l1.6-0.1l-0.3,1.7l1.9,0.1l-1.9,1.3l4.1,1.1l-3.5,0.4l-1.3,1.2l0.9,1.4l4.6-1.7l2.3,1.7
		l0.7-0.9l0.6,1.4l4,2.3h2.9l3.9-0.5l4.3,1.1l2,1.9l4.5,0.4l1.8-1.5l0.8,2.4l-1.8,0.7l1.2,1.2l7.4,3.8l1.4,2.5l5.4,4.1l3.3-2
		l-0.6-2.2l-3.5-2l3.1,1.2l0.5-0.7l0.9,1.3v2.7l2.1-0.6l2.1,1.8l-2.5-9.8l1.2,1.3l1.4,6l2.2,2.5l2.4-0.4l1.8,3.5h0.9l0.6,5.6
		l3.4,0.5l1.6,2.2l1.8,1.1l0.4,2.8l-1.8,2.6l2.9,1.6l1.2-2.4l-0.2,3.1l-0.8,0.9l1.4,1.7l0.7-2.4l-0.2-1.2l0.8,0.2l0.6,2.3l-1,1.4
		l0.6,2.6l0.5,0.4l0.3-1.6l0.7,0.6l-0.3,2l1.2,0.2l-0.4,0.9l1.7-0.1v-1h-1l0.1-1.7l-0.8-0.6l1.7-0.3l0.5-0.8v-1.6l0.5,1.3l-0.6,1.8
		l1.2,3.9l1.8,0.1l2.2-4.2l0.1-1.9l-1.3-4l-0.1-1.2l0.5-1.2l-0.7-0.7l-1.7,0.1l-2.5-2h-1.7l-2-1.4h-1.5l-0.5-1.6l-1.4-0.3l-0.2-1.5
		l-1-0.5l0.1-1.7l-5.1-7.4l-1.8-1.5v-1.2l-4.3-3.5l-0.7-1.1l-1.6-2l-1.9-0.6v-2.2l-1.2-1.3l-1.7-0.7l-2.1,1.3l-1.6,2.1l-0.4,2.4
		l-1.5,0.1l-2.5,2.7l-0.8-0.3v-2.5l-2.4-2.2l-2.3-2l-0.5-2l-2.5-1.3l0.2-2.2l-2.8-0.1l-0.7,1.1h-1.2l-0.7-0.7l-1.2,0.8l-1.8-1.2
		v-85.8l-6.9-4.1l-1.8-0.5l-2.2,1.1l-2.2,0.1l-2.3-1.6l-4.3-0.6l-5.8-3.6l-5.7-0.4l-2,0.5l-0.2-1.8l-1.8-0.7l1.1-1l-0.2-0.9
		l-3.2-1.1h-2.4l-0.4,0.4l-0.9-0.6l0.1-2.6l-0.8-0.9l-2.5,2.9l-0.8-0.1v-0.8l1.7-0.8v-0.8l-1.9-2.4l-1.1-0.1l-4.5,3.1h-3.9l0.4-0.9
		l-1.8-0.1l-5.2,3.4h-1.8l-0.6-0.8l-2.7,1.5l-3.6,3.7l-2.8,2.7l-1.5,1.2l-2.6,0.1l-2.2-0.4l-2.3-1.3l0,0l-2.8,3.9l-0.1,2.4l2.6,2.4
		l2.1,4.5l0.2,5.3l2.9,2l3.4,0.4l0.7,0.8l-1.5,2.3l0.7,2.7l-1.7-2.6V487l-1.5-0.3l0.1,1.2l0.7,2.1l2.9,3.7h-1.4l-2.2,1.1l-6.2-2.5
		l-0.1-2l1.4-1.3v-1.4l-2.1-0.5l-2.3,0.2l-4.8,0.2l1.5,2.3l-1.9-1.8l-8.4,1.2l-0.8,1.5l4.9,4.7l-0.8,1.4l-0.3,2l-0.7,0.8l-0.1,1.9
		l4.4,3.6l4.1,0.2l4.6,1.9h2l0.8-0.6l3.8,0.1l0.1-0.8l1.2,1.1l0.1,2l-2.5-0.1l0.1,3.3l0.5,3.2l-2.9,2.7l-1.9-0.1l-2-0.8l-1,0.1
		l-3.1,2.1l-1.7,0.2l-1.4-2.8h-3.1l-2.2,2l-0.5,1.8l-3.3,1.8l-5.3,4.3l-0.3,3.1l0.7,2.2l1,1.2l1-0.4l0.9,1l-0.8,0.6l-1.5,0.9
		l1.1,1.5l-2.6,1.1l0.8,2.2l1.7,2.3l0.8,4.1l4,1.5l2.6-0.8l1.7-1.1l0.5,2.1l0.3,4.4l-1.9,1.4v4.4l-0.6,0.9h-1.7l1.7,1.2l2.1-0.1
		l0.4-1l4.6-0.6l2,2.6l1.3-0.7l1.3,5.1l1,0.5l1-0.7l0.1-2.4l0.9-1l0.7,1.1l0.2,1.6l1.6,0.4l4.7-1.2l0.2,1.2l-2,1.1l-1.6,1.7l-2.8,7
		l-4.3,2l-1.4,1.5l-0.3,1.4l-1-0.6l-9.3,3.3l-1.8,4.1l-1.3-0.4l0.5-1.1l-1.5-1.4l-3.5-0.2l-5.3,3.2l-2.2,1.3h-2.3l-0.5,2.4
		L80.8,590.5z"/>
	<path class="st0" d="M173.1,408.3l3-2.2l0.8-2.4l-1-1.6l-1.8-0.2l-1.1-1.6l1.1-6.9l1.6-0.3l2.4-3.2l1.6-7l2.4-3.6l4.8-1.7l1.3-1.3
		l-0.4-1.9l-2.3-2.5l-1.2-5.8l-1.4-1.8l-1.3-3.4l0.9-2.1l1.4-3l0.5-2.9l-0.5-4.9l1-13.6l3.5-0.6l3.7,1.4l1.2,2.7h2l2.4-2.9l3.4-17.5
		l46.2,8.2l40,6l-17.4,124.1l-37.3-5.4l-64.2-37.5l0.5-2.9l2-1.8L173.1,408.3z"/>
	<path class="st0" d="M617.7,387.7l0.9-2.2l1.2,0.5l0.7-1l-0.8-0.7l0.3-1.5l-1.1-0.9l0.6-1l-0.1-1.5l-1.1-0.1l0.8-0.8l1.3,0.8
		l0.3-1.4l-0.4-1.1l0.1-0.7l2,0.6l-0.4-1.5l1.6-1.3l-0.5-0.9l-1.1,0.1l-0.6-0.9l0.9-0.9l1.6-0.2l0.5-0.8l1.4-0.2l-0.1-0.8l-0.9-0.9
		v-0.5h1.5l0.4-0.7l-1.4-1l-0.1-0.6l-11.2,0.8l2.8-5.1l1.7-1.5v-2.2l-1.6-2.5l-39.8,2l-39.1,0.7l4.1,24.4l-0.7,39l2.6,2.3l2.8-1.3
		l3.2,0.8l0.2,11.9l52.3-1.3l1.2-1.5l0.5-3l-1.5-2.3l-0.5-2.2l0.9-0.7v-0.8l-1.7-1.1l-0.1-0.7l1.6-0.9l-1.2-1.1l1.7-7.1l3.4-1.6
		v-0.8l-1.1-1.4l2.9-5.4h1.9l1.5-1.2l-0.3-5.2l3.1-4.5l1.8-0.6l-0.5-3.1L617.7,387.7z"/>
	<path class="st0" d="M102.9,386.3l3.4,5.2l-1.4,0.1l-1.8-1.9L102.9,386.3z M104.8,376.5l1.8,4.1l2.6,1l0.7-0.6l-1.3-2.5l-2.6-2.4
		L104.8,376.5z M84.9,357.5v2.4l2,1.2l4.4-0.2l1-1l-3.1-0.2L84.9,357.5z M79,357.6l3.3,0.5l1.4,2.2h-3.8L79,357.6z M126.9,403.1
		l-1-3l0.2-3l-0.4-7.9l-1.8-4.8l-1.2-1.4l-0.6-1.5l-7-8.6l-3.6,0.1l-2-1.9l1.1-1.8l-0.7-3.7l-2.2-1.2l-3.9-0.6l-2.8-1.3l-1.5-1.9
		L95,354l-2.7-2.2l-3.7-0.5l-3.1-2.3l-4.7-1.5l-2.8-0.3l-2.5-2.5l0.2-2.8l0.8-4.8l1.8-5.1l-1.4-1.6l-4-9.4l-2.7-3.7l-0.4-3l-1.6-2.3
		l0.2-2.5l-2-5l-2.9-2.7l0.6-7.1l2.4-0.8l1.8-3.1l-0.4-3.2l-1-0.9h-2.5l-2.5-3.3l-1.5-3.5v-7.5l1.2-4.2l0.2-2.1l2.5,0.2l-0.1,1.6
		l-0.8,0.7v2.5l3.7,3.2v-4.7l-1.4-3.4l0.5-1.1l-1-1.7l2.8-1.5l-1.9-3l-1.4,0.5l-1.5,3.8l0.5,1.3l-0.8,1l-0.9-0.1l-5.4-6.1l0.7-5.6
		l-1.1-3.9L49.7,237l0.8-10.7l2.3-3.6l0.2-6.4l-5.5-11.1l0.3-5.2l6.9-7.5l1.7-2.4l-0.1-1.4l4-9.2l0.1-8.4l0.9-2.5l66.1,18.6
		L111,250.3l1.1,3.5l70.4,105l-0.9,2.1l1.3,3.4l1.4,1.8l1.2,5.8l2.3,2.5l0.4,1.9l-1.3,1.3l-4.8,1.7l-2.4,3.6l-1.6,7l-2.4,3.2
		l-1.6,0.3l-1.1,6.9l1.1,1.6l1.8,0.2l1,1.6l-0.8,2.4l-3,2.2l-2.2-0.1L126.9,403.1z"/>
	<path class="st0" d="M408.1,344l-16.5-1l-51.7-4.8l-52.6-6.5l11.5-88.3l44.9,5.7l37.5,3.4l33.1,2.4l-1.4,22.1L408.1,344z"/>
	<path class="st0" d="M907,199.6l0.4-1.1l-3.2-12.3l-0.1-0.3l-14.9,3.4v0.7l-0.9,0.3l-0.5-0.7l-10.5,2.4l2.8,16.3l1.8,1.5l-3.5,3.4
		l1.7,2.2l5.4-4.5l1.7-1.3h0.8l2.4-3.1l1.4,0.1l2.9-1.1h2.1l5.3-2.7l2.8-0.9l1-1l1.5,0.5L907,199.6z"/>
	<path class="st0" d="M855.7,247.3l-1.6,0.3l-1.5,1.1l-1.2,2.1l7.6,27.1l10.9-2.3l-2.2-7.6l-1.1,0.5l-3.3-2.6l-0.5-1.7l-1.8-1
		l-0.2-3.7l-2.1-2.2l-1.1-0.8l-1.2-1.1l-0.4-3.2l0.3-2.1l1-2.2L855.7,247.3z"/>
	<path class="st0" d="M785.2,465.8l-4-0.7l-1.7-0.9l-2.2,1.4v2.5l1.4,2.1l-0.5,4.3l-2.1,0.6l-1-1.1l-0.6-3.2l-50.1,3.3l-3.3-6
		l-48.8,5.1l-0.5,2.9l2.5,2.8l1.7,0.7l0.9,1.2l-0.4,7.3l-1.1,0.6l0.5,0.4l1-0.3l0.7-0.8l10.5-2.7l9.2-0.5l8.1,1.9l8.5,5l2.4,0.8
		l2.2,2l-0.1,2.7h2.4l1.9-1l2.5,0.1l2-0.8l2.9-2l3.1-2.9l1.1-0.4l0.6,0.5h1.4l0.5-0.8l-0.5-1.2l-0.6-0.6l0.2-0.8l2-1.1l5-0.4l0.8,1
		l1,0.1l2.3,1l3,1.8l1.2,1.7l1.1,1.2l2.8,1.4v2.4l2.8,1.9l1,0.1l1.6,1.4l0.7,1.6l1,0.2l0.8,2.1l0.7,0.6l1-1.1l2.9,0.1l0.5,1.4
		l1.1,0.9v1.3l2.9,2.2l0.2,9.6l-1.8,5.8l1,1.2l-0.2,3.4l-0.8,1.4l0.7,1.2l2.3,2.3l0.3,1.5l0.8,1l-0.4-1.9l1.3-0.6l0.8-3.6l-3-1.2
		l0.1-0.6l2.6-0.4l0.9,2.6l1.1,0.6l0.1-2l1.1,0.3l0.6,0.8l-0.1,0.7l-2.9,4.2l-0.2,1.1l-1.7,1.9v1.1l3.7,3.8l5.3,7.9l1.8,2.1v1.8
		l2.8,4.6l2.3,0.6l0.7-1.2l-2.1,0.3l-3-4.5l0.2-1.4l1.5-0.8v-1.5l-0.6-1.3l0.9-0.9l0.4,0.9l0.7,0.5v4l-1.2-0.6l-0.8,0.9l1.4,1.6
		l1,2.6l1.2-0.6l2.3,1.2l2.1,2.2l1.6,5.1l3.1,4.8l0.8-1.3l2.8-0.5l3.2,1.3l0.3,1.7l3.3,3.8l0.1,1.1l2.2,2.7l-0.7,0.5v2.7l2.7,1.4
		h1.5l2.7-1.8l1.5,0.3l1.1,0.4l2.3-1.7l0.2-0.7l1.2,0.3l2.4-1.7l1.3-2.3l-0.7-3.2l-0.2-1.3l1.1-4l0.6-0.2l0.6,1.6l0.8-1.8l-0.8-7.2
		l-0.4-10.5l-1-6.8l-0.7-1.7l-6.6-11.1l-5.2-9.1l-2.2-3.3l-1.3-3.6l-0.2-3.4l0.9-0.3V511l-1.1-2.2l-4-4l-7.6-9.7l-5.7-10.4
		l-4.3-10.7l-0.6-3.7l-1.2-1l-0.5-3.8L785.2,465.8z M794.4,600.3l1.7-0.1l-0.7-1L794.4,600.3z M801.7,599.2v-0.7l1.6-0.2l3.7-3.3
		l1.5-0.6l2.4-0.9l0.3,1.3l1.7,0.8l-2.6,1.2h-2.4l-3.9,2.5L801.7,599.2z M818.9,591.6l-3,1.4l-1,1.3l1.1,0.1L818.9,591.6z
		 M822.7,588.7l-1.1,0.3l-1.4,2l1.1-0.2l1.5-1.6L822.7,588.7z M831,573l-1.7,5.6l-0.8,1l-1,2.6l-1.2,1.6l-0.7,1.7l-1.9,2.2v0.9
		l2.7-2.8l2.4-3.5l0.6-2l2.1-4.9L831,573z"/>
	<path class="st0" d="M795.3,434.8v1.4l-4.2,6.2l-1.2,0.2l1.5,0.5v2l-0.9,1.1l-0.6,6l-2.3,6.2l0.5,2l0.7,5.1l-3.6,0.3l-4-0.7
		l-1.7-0.9l-2.2,1.4v2.5l1.4,2.1l-0.5,4.3l-2.1,0.6l-1-1.1l-0.6-3.2l-50.1,3.3l-3.3-6l-0.7-2.2l-1.5-1.5l-0.5-1.4l0.6-6.3l-2.4-5.7
		l0.5-2.6l0.3-3.7l2.2-3.8l-0.2-1.1l-1.7-1v-3.2l-1.8-1.9l-2.9-6.1l-12.9-45.8l22.9-2.9l21.4-3l-0.1,1.9l-1.9,1L741,382l0.2,1.3
		l6.1,3.8l2.6-0.3l3.1,4l0.4,1.7l4.2,5.1l2.6,1.7l1.4,0.2l2.2,1.6l1.1,2.2l2,1.6l1.8,0.5l2.7,2.7l0.1,1.4l2.6,2.8l5,2.3l3.6,6.7
		l0.3,2.7l3.9,2.1l2.5,4.8l0.8,3.1l4.2,0.4L795.3,434.8z"/>
	<path class="st0" d="M350.5,574.4l-0.2,3.2l1.7,1.9l0.1,1.2l-4.8,4.5l-0.1,1.2l1.9,3.2l1.7,4.2v2.6l-0.5,1.2l0.1,3.4l4.1,2.1
		l1.1,1.1l1.2-1.1l2.1-3.6l4.5-2.9l3.3-0.5l2.5-1l1.7-1.2l3.2-3.5l-2.8-1.1l-1.4-1.4l0.1-1.7l-0.5-0.6h-2l0.2-2.5l-0.7-1.2l-2.6-2.3
		l-4.5-1.9l-2.8-0.2l-3.3-2.7l-1.2-0.6L350.5,574.4z M335.2,557.4l-1.1,1.5l-0.1,1.7l2.7,2.4l1.9,0.5l0.6,1l0.4,3l3.6,0.2l5.3-2.6
		l-0.1-2.5l-1.4-0.5l-3.5-2.6l-1.8-0.3l-2.9,1.3l-1.5-2.7L335.2,557.4z M333.7,568.9l0.9-1.4l2.5-0.3l0.6,1.8L333.7,568.9z
		 M326.7,560.2l1.7,4l3.1-0.6l0.3-2l-1.4-1.5L326.7,560.2z M322.6,553.5l-1.1,2.4h5l4.8,1.6l2.5-1.6l0.2-1.5l-4.8,0.2L322.6,553.5z
		 M306.6,542.9l-1.9,2.1l-2.9,0.6l0.8,2.2l2.2,2.8l0.1,1l2.1-0.3l2.3,0.1l1.7,1.2l3.5-0.8v-0.7l-1-0.8l-0.5-2.1l-0.8-0.3l-0.5,1
		l-1.2-1.3l0.2-1.4l-1.8-3.3l-1.1-0.7L306.6,542.9z M274.8,530.5l-4.2,2.9l0.2,2.3l2.4,1.2l1.9,1.3l2.7,0.4l2.6-2.2l-0.2-1.9
		l0.8-1.7v-1.4l-1-0.9L274.8,530.5z M264,535.3l-0.3,1.2l-1.9,0.9l-0.6,1.8l1,0.8l1.1-1.5l1.9-0.6l0.4-2.6L264,535.3z"/>
	<path class="st0" d="M198.8,203.8l-24.4-5.4l8.5-37.3l2.9-5.8l0.4-2.1l0.8-0.9l-0.9-2l-2.9-1.2l0.2-4.2l4-5.8l2.5-0.8l1.6-2.3
		l-0.1-1.6l1.8-1.6l3.2-5.5l4.2-4.8l-0.5-3.2l-3.5-3.1l-1.6-3.6l1.1-4.3l-0.7-4l12.7-56.1l14.2,3l-4.8,22l3.7,7.4l-1.6,4.8l3.6,4.8
		l1.9,0.7l3.9,8.3v2.1l2.3,3h0.9l1.4,2.1h3.2v1.6l-7.1,17l-0.5,4.1l1.4,0.5l1.6,2.6l2.8-1.4l3.6-2.4l1.9,1.9l0.5,2.5l-0.5,3.2
		l2.5,9.7l2.6,3.5l2.3,1.4l0.4,3v4.1l2.3,2.3l1.6-2.3l6.9,1.6l2.1-1.2l9,1.7l2.8-3.3l1.8-0.6l1.2,1.8l1.6,4.1l0.9,0.1l-8.5,54.8
		l-47.9-8.2L198.8,203.8z"/>
	<path class="st0" d="M657,286.6l-1,5.2v2l2.4,3.5v0.7l-0.3,0.9l0.9,1.9l-0.3,2.4l-1.6,1.8l-1.3,4.2l-3.8,5.3l-0.1,7h-1l0.9,1.9v0.9
		l-2.2,2.7l0.1,1.1l1.5,2.2l-0.1,0.9l-3.7,0.6l-0.6,1.2l-1.2-0.6l-1,0.5l-0.4,3.3l1.7,1.8l-0.4,2.4l-1.5,0.3l-6.9-3l-4,3.7l0.3,1.8
		h-2.8l-1.4-1.5l-1.8-3.8V336l0.8-0.6l0.1-1.3l-1.7-1.9l-0.9-2.5l-2.7-4.1l-4.8-1.3l-7.4-7.1l-0.4-2.4l2.8-7.6l-0.4-1.9l1.2-1.1
		v-1.3l-2.8-1.5l-3-0.7l-3.4,1.2l-1.3-2.3l0.6-1.9l-0.7-2.4l-8.6-8.4l-2.2-1.5l-2.5-5.9l-1.2-5.4l1.4-3.7l0.7-0.7l0.1-2.3l-0.7-0.9
		l1-1.5l1.8-0.6l0.9-0.3l1-1.2v-2.4l1.7-2.4l0.5-0.5l0.1-3.5l-0.9-1.4l-1-0.3l-1.1-1.6l1-4l3-0.8h2.4l4.2-1.8l1.7-2.2l0.1-2.4
		l1.1-1.3l1.3-3.2l-0.1-2.6l-2.8-3.5h-1.2l-0.9-1.1l0.2-1.6l-1.7-1.7l-2.5-1.3l0.5-0.6l45.9-2.8l0.1,4.6l3.4,4.6l1.2,4.1l1.6,3.2
		L657,286.6z"/>
	<path class="st0" d="M662.7,235.5l-5.1,2.3l-4.7-1.4l4.1,50.2l-1,5.2v2l2.4,3.5v0.7l-0.3,0.9l0.9,1.9l-0.3,2.4l-1.6,1.8l-1.3,4.2
		l-3.8,5.3l-0.1,7h-1l0.9,1.9l1.1,0.8l0.6-1l-0.7-1.7l4.6-0.5l0.2,1.2l1.1,0.2l0.4-0.9l-0.6-1.3l0.3-0.8l1.3,0.8l1.7-0.4l1.7,0.6
		l3.4,2.1l1.8-2.8l3.5-2.2l3,3.3l1.6-2.1l0.3-2.7l3.8-2.3l0.2,1.3l1.9,1.2l3-0.2l1.2-0.7l0.1-3.4l2.5-3.7l4.6-4.4l-0.1-1.7l1.2-3.8
		l2.2,1l6.7-4.5l-0.4-1.7l-1.5-2.1l1-1.9l-6.6-57.2l-0.1-1.4l-32.4,3.4L662.7,235.5z"/>
	<path class="st0" d="M590.4,203.7l2.1,1.6l0.6,1.1l-1.6,3.3l-0.1,2.5l2,5.5l2.7,1.5l3.3,0.7l1.3,2.8l-0.5,0.6l2.5,1.3l1.7,1.7
		l-0.2,1.6l0.9,1.1h1.2l2.8,3.5l0.1,2.6l-1.3,3.2l-1.1,1.3l-0.1,2.4l-1.7,2.2l-4.2,1.8h-2.4l-3,0.8l-1,4l1.1,1.6l1,0.3l0.9,1.4
		l-0.1,3.5l-0.5,0.5l-1.7,2.4v2.4l-1,1.2l-0.9,0.3l-1.8,0.6l-1,1.5l0.7,0.9l-0.1,2.3l-0.7,0.7l-1.5-0.8l-1.1-1.1l-0.6-1.6l-1.7-1.3
		l-14.3,0.8l-27.2,1.2l-25.9-0.1l-1.8-4.4l0.7-2.2l-0.8-3.3l0.2-2.9L515,254l-0.4-6.1l-2.8-5l-0.2-3.7l-2.2-4.3l-1.3-3.7v-1.4
		l-0.6-1.7v-2.3l-0.5-0.9l-0.7-1.7l-0.3-1.3l-1.3-1.2l1-4.3l1.7-5.1l-0.7-2l-1.3-0.4l-0.4-1.6l1-0.5l0.1-1.1l-1.3-1.5l0.1-1.6
		l2.2,0.1h28.2l36.3-0.9l18.6-0.7L590.4,203.7z"/>
	<path class="st0" d="M492.6,280.2l-43.7-1.2l-36-2l-4.8,67l67.7,2.9l62,0.1l-0.5-48.1l-3.2-0.7l-2.6-4.7L529,291l0.5-2.3l2.7-2.6
		l0.1-1.2l-1.5-2.1l-0.9,1l-2-0.6l-2.9-3L492.6,280.2z"/>
	<path class="st0" d="M725.6,343.2l-20.5,1.4l-5.2,0.8l-17.4,1l-2.6,0.8l-22.6,2l-0.7-0.6h-3.7l1.2,3.2l-0.6,0.9l-23.3,1.5l1-2.7
		l1.4,0.9l0.7-0.4l1.2-4.1l-1-1l1-2l0.2-0.9l-1.3-0.8l-0.3-1.8l4-3.7l6.9,3l1.5-0.3l0.4-2.4l-1.7-1.8l0.4-3.3l1-0.5l1.2,0.6l0.6-1.2
		l3.7-0.6l0.1-0.9l-1.5-2.2l-0.1-1.1l2.2-2.7v-0.9l1.1,0.8l0.6-1l-0.7-1.7l4.6-0.5l0.2,1.2l1.1,0.2l0.4-0.9l-0.6-1.3l0.3-0.8
		l1.3,0.8l1.7-0.4l1.7,0.6l3.4,2.1l1.8-2.8l3.5-2.2l3,3.3l1.6-2.1l0.3-2.7l3.8-2.3l0.2,1.3l1.9,1.2l3-0.2l1.2-0.7l0.1-3.4l2.5-3.7
		l4.6-4.4l-0.1-1.7l1.2-3.8l2.2,1l6.7-4.5l-0.4-1.7l-1.5-2.1l1-1.9l1.3,0.5l2.2,0.1l1.9-0.8l2.9,1.2l2.2,3.4v1l4.1,0.7l2.3-0.2
		l1.9,2.1l2.2,0.2v-1l1.9-0.8l3,0.8l1.2,0.8l1.3-0.7h0.9l0.6-1.7l3.4-1.8l0.5,0.8l0.8,2.9l3.5,1.4l1.2,2.1l-0.1,1.1l0.6,1l-0.6,3.6
		l1.9,1.6l0.8,1.1l1,0.6l-0.1,0.9l4.4,5.6h1.4l1.5,1.8l1.2,0.3l1.4-0.1l-4.9,6.6l-2.9,1l-3,3l-0.4,2.2l-2.1,1.3l-0.1,1.7l-1.4,1.4
		l-1.8,0.5l-0.5,1.9l-1,0.4l-6.9,4.2L725.6,343.2z M627.6,354.5l-0.7-0.7l0.2-1h1.1l0.7,0.7l-0.3,1H627.6z"/>
	<path class="st0" d="M636,493.5l-1.2-1.8l0.3-1.3l-4.8-6.8l0.9-4.6l1-1.4l0.1-1.4l-36,2l1.7-11.9l2.4-4.8l6-8.4l-1.8-2.5h2v-3.3
		l-2.4-2.5l0.5-1.7l-1.2-1l-1.6-7.1l0.6-1.4l-52.3,1.3l0.5,19.9l0.7,3.4l2.6,2.8l0.7,5.4l3.8,4.6l0.8,4.3h1l-0.1,7.3l-3.3,6.4
		l1.3,2.3l-1.3,1.5l0.7,3l-0.1,4.3l-2.2,3.5l-0.1,0.8l-1.7,1.2l1,1.8l1.2,1.1l1.6-1.3l5.3-0.9l6.1-0.1l9.6,3.8l8,1l1.5-1.4l1.8-0.2
		l4.8,2.2l1.6-0.4l1.1-1.5l-4.2-1.8l-2.2,1l-1.1-0.2l-1.4-2l3.3-2.2l1.6-0.1v1.7l1.5-0.1l3.4-0.3l0.4,2.3l1.1,0.4l0.6,1.9l4.8,1
		l1.7,1.6v0.7h-1.2l-1.5,1.7l1.7,1.2l5.4,1l2.7,2.8l4.4-1l-3.7,0.2l-0.1-0.6l2.8-0.7l0.2-1.8l1.2-0.3v-1.4l1.1,0.1v1.6l2.5,0.1
		l0.8-1.9l0.9,0.3l0.2,2.5l1.2,0.2l-1.8,2l2.6-0.9l2-1.1l2.9-3.3h-0.7l-1.3,1.2l-0.4-0.1l-0.5-0.8l0.9-1.2v-2.3l1.1-0.8l0.7,0.7
		l1-0.8l1-0.1l0.6,1.3l-0.6,1.9h2.4l5.1,1.7l0.5,1.3l1.6,1.4l2.8,0.1l1.3,0.7l1.8-1l0.9-1.7v-1.7h-1.4l-1.2-1.4l-1.1-1.1l-3.2-0.9
		l-2.6,0.2l-4.2-2.4v-2.3l1.3-1l2.4,0.6l-3.1-1.6l0.2-0.8h3.6l2.6-3.5l-2.6-1.8l0.8-1.5l-1.2-0.8h-0.8l-2,2.1v2.1l-0.6,0.7l-1.1-0.1
		l-1.6-1.4H632v-1.5l0.6-0.7l0.8,0.7l1.7-1.6l0.7-1.6l0.8-0.3L636,493.5z M625.7,490.8l1.9,1l0.8,1.1l2.5,0.1l1.5,0.8l0.2,1.4
		l-0.4,0.6l-0.9-1.5l-1.4,1.2l-0.9,1.4l-2.8,0.8l-1.6,0.1l-3.7-1l0.1-1.7l2-2l1.1-2.4L625.7,490.8z M621,492v1.1l-1.8,2H618v-2.2
		l1.6-1.5L621,492z"/>
	<path class="st0" d="M908.5,149.4l0.6,4l3.2,2l0.8,2.2l2.3,1.4l1.4-0.3l1-3l-0.8-2.9l1.6-0.9l0.5-2.8l-0.6-1.3l3.3-1.9l-2.2-2.3
		l0.9-2.4l1.4-2.2l0.5,3.2l1.6-2l1.3,0.9l1.2-0.8v-1.7l3.2-1.3l0.3-2.9l2.5-0.2l2.7-3.7v-0.7l-0.9-0.5l-0.1-3.3l0.6-1.1l0.2,1.6
		l1-0.5l-0.2-3.2l-0.9,0.3l-0.1,1.2l-1.2-1.4l0.9-1.4l0.6,0.1l1.1-0.4l0.5,2.8l2-0.3l2.9,0.7v-1l-1.1-1.2l1.3,0.1l0.1-2.3l0.6,0.8
		l0.3,1.9l2.1,1.5l0.2-1l0.9-0.2l-0.3-0.8l0.8-0.6l-0.1-1.6l-1.6-0.2l-2,0.7l1.4-1.6l0.7-0.8l1.3-0.2l0.4,1.3l1.7,1.6l0.4-2.1
		l2.3-1.2l-0.9-1.3l0.1-1.7l1.1,0.5h0.7l1.7-1.4l0.4-2.3l2.2,0.3l0.1-0.7l0.2-1.6l0.5,1.4l1.5-1l2.3-4.1l-0.1-2.2l-1.4-2l-3-3.2
		h-1.9l-0.8,2.2l-2.9-3l0.3-0.8v-1.5l-1.6-4.5l-0.8-0.2l-0.7,0.4h-4.8l-0.3-3.6l-8.1-26l-7.3-3.7l-2.9-0.1l-6.7,6.6l-2.7-1l-1-3.9
		h-2.7l-6.9,19.5l0.7,6.2l-1.7,2.4l-0.4,4.6l1.3,3.7l0.8,0.2v1.6l-1.6,4.5l-1.5,1.4l-1.3,2.2l-0.4,7.8l-2.4-1l-1.5,0.4L908.5,149.4z
		 M943.1,124.7l-1,0.8v1.3l0.7-0.8l0.9,0.8l0.4-0.5l1.1,0.2l-1-0.8l0.4-0.8L943.1,124.7z M941.4,127.3l-1,1.1l0.5,0.4l-0.1,1h1.1
		V128L941.4,127.3z M938.4,125.7l0.9,1.3l1,0.5l0.3-1v-1.8l-1.3-0.7l-0.4,1.2L938.4,125.7z M937.4,130.7l-1.7-1.7l1.6-2.4l0.8,0.3
		l0.2,1.1l1,0.8v1.1l-1,1L937.4,130.7z"/>
	<path class="st0" d="M856.4,290v-1.7h-0.8v1.8L856.4,290z M868.2,286.1l1.2-2.2l0.1-2.5l-0.6-0.6l-0.7,0.9l-0.2,2.1l-0.8,1.4
		l-0.3,1.1l-4.6,1.6l-0.7,0.8l-1.3,0.2l-0.4,0.9l-1.3,0.6l-0.3-2.5l0.4-0.7l-0.8-0.5l0.2-1.5l-1.6,1v-2l1.2-0.3l-1.9-0.4l-0.7-0.8
		l0.4-1.3l-0.8-0.6l-0.7,1.6l0.5,0.8l-0.7,0.6l-1.1,0.5l-2-1l-0.2-1.2l-1-1.1l-1.4-1.7l1.5-0.8l-1-0.6V277l0.6-1l1.7-0.3l-1.4-0.6
		l-0.1-0.7l-1.3-0.1l-0.4,1.1l-0.6,0.3l0.1-3.4l1-1l0.8,0.7l0.1-1.6l-1-0.9l-0.9,1.1l-1,1.4l-0.6-1l0.2-2.4l0.9-1l0.9,0.9l1.2-0.7
		l-0.4-1.7l-1,1l-0.9-2.1l-0.2-1.7l1.1-2.4l1.1-1.4l1.4-0.2l-0.5-0.8l0.5-0.6l-0.3-0.7l0.2-2.1l-1.5,0.4l-0.8,1.1l1,1.3l-2.6,3.6
		l-0.9-0.4l-0.7,0.9l-0.6,2.2l-1.8,0.5l1.3,0.6l1.3,1.3l-0.2,0.7l0.9,1.2l-1.1,1l0.5,0.3l-0.5,1.3v2.1l-0.5,1.3l0.9,1.1l0.7,3.4
		l1.3,1.4l1.6,1.4l0.4,2.8l1.6,2l0.4,1.4v1h-0.7l-1.5-1.2l-0.4,0.2l-1.2-0.2l-1.7-1.4l-1.4-0.3l-1,0.5l-1.2-0.3l-0.4,0.2l-1.7-0.8
		l-1-1l-1-1.3l-0.6-0.2l-0.8,0.7l-1.6,1.3l-1.1-0.8l-0.4-2.3l0.8-2.1l-0.3-0.5l0.3-0.4l-0.7-1l1-0.1l1-0.9l0.4-1.8l1.7-2.6l-2.6-1.8
		l-1,1.7l-0.6-0.6h-1l-0.6-0.1l-0.4-0.4l0.1-0.5l-1.7-0.6l-0.8,0.3l-1.2-0.1l-0.7-0.7l-0.5-0.2l-0.2-0.7l0.6-0.8v-0.9l-1.2-0.2
		l-1-0.9l-0.9,0.1l-1.6-0.3l-0.9-0.4l0.2-1.6l-1-0.5l-0.2-0.7h-0.7l-0.8-1.2l0.2-1l-2.6,0.4l-2.2-1.6l-1.4,0.3l-0.9,1.4h-1.3
		l-1.7,2.9l-3.3,0.4l-1.9-1l-2.6,3.8l-2.2-0.3l-3.1,3.9l-0.9,1.6l-1.8,1.6l-1.7-11.4l60.5-11.8l7.6,27.1l10.9-2.3v5.3l-0.1,3.1
		l-1,1.8L868.2,286.1z M854.8,284.3l-1.3,0.9l0.8,1.8l1.7,0.8l-0.4-1.6L854.8,284.3z"/>
	<path class="st0" d="M933.4,194.9h3.4l0.9-0.6l0.1-1.3l-1.9-1.8l0.4,1l-1.5,1.5h-2.3l0.1,0.8L933.4,194.9z M924.4,196.7l-1.2-0.6
		l1-0.8l0.6-2.1l1.2-1l0.8-0.2l0.6,0.9l1.1,0.2l0.6-0.6l0.5,1.9l-1.3,0.3l-2.8,0.7L924.4,196.7z M889.5,173.3l18.4-3.8l1-1.5
		l0.3-1.7l1.9-0.6l0.5-1.1l1.7-1.1l1.3,0.3l1.7,3.3l1,0.4l1.1-1.3l0.8,1.3v1.1l-3,2.4l0.2,0.8l-0.9,1l0.4,0.8l-1.3,0.3l0.9,1.2
		l-0.8,0.7l0.6,1l0.9-0.2l0.3-0.8l1.1,0.6h1.8l2.5,2.6l0.2,2.6l1.8,0.1l0.8,1.1l0.6,2l1,0.7h1.9l1.9-0.1l0.8-0.9l1.6-1.2l1.1-0.3
		l-1.2-2.1l-0.3,0.9l-1.5-3.6h-0.8l-0.4,0.9l-1.2-1l1.3-1.1l1.8,0.4l2.3,2.1l1.3,2.7l1.2,3.3l-1,2.8v-1.8l-0.7-1l-3.5,2.3l-0.9-0.3
		l-1.6,1l-0.1,1.2l-2.2,1.2l-2,2.1l-2,1.9h-1.2l3.3-3.3l0.5-1.9l-0.5-0.6l-0.3-1.3l-0.9-0.1l-0.1,1.3l-1,1.2h-1.2l-0.3,1.1l0.4,1.2
		l-1.2,1.1l-1.1-0.2l-0.4,1l-1.4-3l-1.3-1.1l-2.6-1.3l-0.6-2.2h-0.8l-0.7-2.6l-6.5,2l-0.1-0.3l-14.9,3.4v0.7l-0.9,0.3l-0.5-0.7
		l-10.5,2.4l-0.7-1l0.5-15L889.5,173.3z"/>
	<path class="st0" d="M696.8,230.5l0.1,1.4l21.4-3.5l0.5-1.2l3.9-5.9V217l0.8-2.1l2.2-0.8l2-7.8l1-0.5l1,0.6l-0.2,0.6l-1.1,0.8
		l0.3,0.9l0.8,0.4l1.9-1.4l0.4-9.8l-1.6-2.3l-1.2-3.7v-2.5l-2.3-4.4v-1.8l-1.2-3.3l-2.3-3l-2.9-1l-4.8,3l-2.5,4.6l-0.2,0.9l-3,3.5
		l-1.5-0.2l-2.9-2.8l-0.1-3.4l1.5-1.9l2-0.2l1.2-1.7l0.2-4l0.8-0.8l1.1-0.1l0.9-1.7l-0.2-9.6l-0.3-1.3l-1.2-1.2l-1.7-1l-0.1-1.8
		l0.7-0.6l1.8,0.8l-0.3-1.7l-1.9-2.7l-0.7-1.6l-1.1-1.1h-2.2l-8.1-2.9l-1.4-1.7l-3.1-0.3l-1.2,0.3l-4.4-2.3h-1.4l0.5,1l-2.7-0.1
		l0.1,0.6l0.6,0.6l-2.5,2.1l0.1,1.8l1.5,2.3l1.5,0.2v0.6l-1.5,0.5l-2.1-0.1l-2.8,2.5l0.1,2.5l0.4,5.8l-2.2,3.4l0.8-4.5l-0.8-0.6
		l-0.9,5.3l-1-2.3l0.5-2.3l-0.5-1l0.6-1.3l-0.6-1.1l1-1v-1.2l-1.3,0.6l-1.3,3.1l-0.7,0.7l-1.3,2.4l-1.7-0.2l-0.1,1.2h-1.6l0.2,1.5
		l0.2,2l-3,1.2l0.1,1.3l1,1.7l-0.1,5.2l-1.3,4.4l-1.7,2.5l1.2,1.4l0.8,3.5l-1,2.5l-0.2,2.1l1.7,3.4l2.5,4.9l1.2,1.9l1.6,6.9
		l-0.1,8.8l-0.9,3.9l-2,3.2l-0.9,3.7l-2,3l-1.2,1L696.8,230.5z M601,133.7l3,3.8l17,3.8l1.4,1l4,0.8l0.7,0.5l2.8-0.2l4.9,0.8
		l1.4,1.5l-1,1l0.8,0.8l3.8,0.7l1.2,1.2l0.1,4.4l-1.3,2.8l2,0.1l1-0.8l0.9,0.8l-1.1,3.1l1,1.6l1.2,0.3l0.8-1.8l2.9-4.6l1.6-6l2.3-2
		l-0.5-1.6l0.5-0.9l1,1.6l-0.3,2.2l2.9-2.2l0.2-2.3l2.1,0.6l0.8-1.6l0.7,0.6l-0.7,1.5l-1,0.5l-1,2l1.4,1.8l1.1-0.5l-0.5-0.7l1-1.5
		l1.9-1.7h0.8l0.2-2.6l2-1.8l7.9-0.5l1.9-3.1l3.8-0.3l3.8,1.2l4.2,2.7l0.7-0.2l-0.2-3.5l0.7-0.2l4.5,1.1l1.5-0.2l2.9-0.7l1.7,0.4
		l1.8,0.1v-1.1l-0.7-0.9l-1.5-0.2l-1.1-0.8l0.5-1.4l-0.8-0.3l-2.6,0.1l-0.1-1l1.1-0.8l0.6,0.8l0.5-1.8l-0.7-0.7l0.7-0.2l-1.4-1.3
		l0.3-1.3l0.1-1.9h-1.3l-1.5,1l-1.9,0.1l-0.5,1.8l-1.9,0.2l-0.3-1.2l-2.2,0.1l-1,1.2l-0.7-0.1l-0.2-0.8l-2.6,0.4l-0.1-4.8l1-2
		l-0.7-0.1l-1.8,1.1h-2.2l-3.8,2.7l-6.2,0.3l-4.1,0.8l-1.9,1.5l-1.4,1.3l-2.5,1.7l-0.3,0.8l-0.6-1.7l-1.3-0.6v0.6l0.7,0.7v1.3
		l-1.5-0.6h-0.6l-0.3,1.2l-2-1.9l-1.3-0.2l-1.3,1.5l-3.2-0.1l-0.5-1.4l-2-1.9l-1.3-1.6v-0.7l-1.1-1.4l-2.6-1.2l-3.3-0.1l-1.1-0.9
		h-1.4l-0.7,0.4l-2.2,2.2l-0.7,1.1l-1-0.7l0.2-1l0.8-2.1l3.2-5l0.8-0.2l1.7-1.9l0.7-1.6l3-0.6l0.8-0.6l-0.1-1l-0.5-0.5l-4.5,0.2
		l-2,0.5l-2.6,1.2l-1.2,1.2l-1.7,2.2l-1.8,1l-3.3,3.4l-0.4,1.6l-7.4,4.6l-4,0.5l-1.8,0.4l-2.3,3l-1.8,0.7l-4.4,2.3L601,133.7z
		 M701.7,137.5l3.8,0.1l0.6-0.5l-0.2-2l-1.7-1.8l-1.9,0.1l-0.1,0.5l1.1,0.4l-1.6,0.8l-0.3,1l-0.6-0.6l-0.4,0.8L701.7,137.5z
		 M626.6,95.6l-2.3,0.2l-2.7,1.9l-7.1,5.3l0.8,1l1.8,0.3l2.8-2l-1.1-0.5l2.3-1.6h1l3-1.9l-0.1-0.9L626.6,95.6z M667.7,158.4v1
		l2.1,1.6l-0.2-2.4L667.7,158.4z M667,161.2l1.1,0.1v0.9h-1L667,161.2z M688.4,139.9v0.9l0.8-0.2v-0.5L688.4,139.9z M693.1,143
		l-0.1-1.1l-1.6-0.2l-0.6-0.4h-0.9l-0.4,0.3l0.9,0.4l1.1,1.1L693.1,143z M675.1,144.2l-0.1,1.1l-0.3,0.7l0.2,2.2l0.4,0.3l0.7,0.1
		l0.5-0.9l0.1-1.6l-0.3-0.6l-0.1-1.1L675.1,144.2z"/>
	<path class="st0" d="M498.2,89.3l-1.1,2.8l0.8,1.4l-0.3,5.1l-0.5,1.1l2.7,9.1l1.3,2.5l0.7,14l1,2.7l-0.4,5.8l2.9,7.4l0.3,5.8
		l-0.1,2.1l-0.1,2.2l-0.9,2l-3.1,1.9l-0.3,1.2l1.7,2.5l0.4,1.8l2.6,0.6l1.5,1.9l-0.2,39.5h28.2l36.3-0.9l18.6-0.7l-1.1-4.5l-0.2-3
		l-2.2-3l-2.8-0.7l-5.2-3.6l-0.6-3.3l-6.3-3.1l-0.2-1.3h-3.3l-2.2-2.6l-2-1.3l0.7-5.1l-0.9-1.6l0.5-5.4l1-1.8l-0.3-2.7l-1.2-1.3
		l-1.8-0.3v-1.7l2.8-5.8l5.9-3.9l-0.4-13l0.9,0.4l0.6-0.5l0.1-1.1l0.9-0.6l1.4,1.2l0.7-0.1l0,0l-1.2-2.2l4.3-3.1l3.1-3.7l1.6-0.8
		l4.7-5.9l6.3-5.8l3.9-2.1l6.3-2.7l7.6-4.5l-0.6-0.4l-3.7,0.7l-2.8,0.1l-1-1.6l-1.4-0.9l-9.8,1.2l-1-2.8l-1.6-0.1l-1.7,0.8l-3.7,3.1
		h-4.1l-2.1-1l-0.3-1.7l-3.9-0.8l-0.6-1.6l-0.7-1.3l-1,0.9l-2.6,0.1l-9.9-5.5h-2.9l-0.8-0.7l-3.1,1.3l-0.8,1.3l-3.3,0.8l-1.3-0.2
		v-1.7l-0.7-0.9h-5.9l-0.4-1.4h-2.6l-1.1,0.4l-2.4-1.7l0.3-1.4l-0.6-2.4l-0.7-1.1l-0.2-3l-1-3.1l-2.1-1.6h-2.9l0.1,8L495.8,82
		L498.2,89.3z"/>
	<path class="st0" d="M657.3,489.3l-5,0.1l-2.4-1.5l-7.9,2.5l-0.9-0.7l-0.5,0.2l-0.1,1.6l-0.6,0.1l-2.6,2.7l-0.7-0.1l-0.6-0.7
		l-1.2-1.8l0.3-1.3l-4.8-6.8l0.9-4.6l1-1.4l0.1-1.4l-36,2l1.7-11.9l2.4-4.8l6-8.4l-1.8-2.5h2v-3.3l-2.4-2.5l0.5-1.7l-1.2-1l-1.6-7.1
		l0.6-1.4l1.2-1.5l0.5-3l-1.5-2.3l-0.5-2.2l0.9-0.7v-0.8l-1.7-1.1l-0.1-0.7l1.6-0.9l-1.2-1.1l1.7-7.1l3.4-1.6v-0.8l-1.1-1.4l2.9-5.4
		h1.9l1.5-1.2l-0.3-5.2l3.1-4.5l1.8-0.6l-0.5-3.1l38.3-2.6l1.3,2l-1.3,67l4.4,33.2L657.3,489.3z"/>
	<path class="st0" d="M588.8,269.6l-1.1-1.1l-0.6-1.6l-1.7-1.3l-14.3,0.8l-27.2,1.2l-25.9-0.1l1.3,1.3l-0.3,1.4l2.1,3.7l3.9,6.3
		l2.9,3l2,0.6l0.9-1l1.5,2.1l-0.1,1.2l-2.7,2.6L529,291l2.5,2.5l2.6,4.7l3.2,0.7l0.5,48.1l0.2,10.8l39.1-0.7l39.8-2l1.6,2.5v2.2
		l-1.7,1.5l-2.8,5.1l11.2-0.8l1-2l1.2-0.5v-0.7l-1.2-1.1l-0.6-1l1.7,0.2l0.8-0.7l-1.4-1.5l1.4-0.5l0.1-1l-0.6-1v-1.3l-0.7-0.7l0.2-1
		h1.1l0.7,0.7l-0.3,1l0.8,0.7l0.8-1l1-2.7l1.4,0.9l0.7-0.4l1.2-4.1l-1-1l1-2l0.2-0.9l-1.3-0.8h-2.8l-1.4-1.5l-1.8-3.8V336l0.8-0.6
		l0.1-1.3l-1.7-1.9l-0.9-2.5l-2.7-4.1l-4.8-1.3l-7.4-7.1l-0.4-2.4l2.8-7.6l-0.4-1.9l1.2-1.1v-1.3l-2.8-1.5l-3-0.7l-3.4,1.2l-1.3-2.3
		l0.6-1.9l-0.7-2.4l-8.6-8.4l-2.2-1.5l-2.5-5.9l-1.2-5.4l1.4-3.7L588.8,269.6z"/>
	<path class="st0" d="M280.5,151.2l57.3,7.9l51,5.3l2-20.7L396,77l-53.5-5.6l-54.3-7.7l-65.9-12.5l-4.8,22l3.7,7.4l-1.6,4.8l3.6,4.8
		l1.9,0.7l3.9,8.3v2.1l2.3,3h0.9l1.4,2.1h3.2v1.6l-7.1,17l-0.5,4.1l1.4,0.5l1.6,2.6l2.8-1.4l3.6-2.4l1.9,1.9l0.5,2.5l-0.5,3.2
		l2.5,9.7l2.6,3.5l2.3,1.4l0.4,3v4.1l2.3,2.3l1.6-2.3l6.9,1.6l2.1-1.2l9,1.7l2.8-3.3l1.8-0.6l1.2,1.8l1.6,4.1l0.9,0.1L280.5,151.2z"
		/>
	<path class="st0" d="M436,211.8l38,1.6l3.4,3.2l1.7,0.2l2.1,2l1.8-0.1l1.8-2l1.5,0.6l1-0.7l0.7,0.5l0.9-0.4l0.7,0.4l0.9-0.4l1,0.5
		l1.4-0.6l2,0.6l0.6,1.1l6.1,2.2l1.2,1.3l0.9,2.6l1.8,0.7l1.5-0.2l0.5,0.9v2.3l0.6,1.7v1.4l1.3,3.7l2.2,4.3l0.2,3.7l2.8,5l0.4,6.1
		l1.3,0.7l-0.2,2.9l0.8,3.3l-0.7,2.2l1.8,4.4l1.3,1.3l-0.3,1.4l2.1,3.7l3.9,6.3h-32.4l-43.7-1.2l-36-2l1.4-22.1l-33.1-2.4l3.7-44.2
		L436,211.8z"/>
	<path class="st0" d="M201.1,317.5l-3.4,17.5l-2.4,2.9h-2l-1.2-2.7l-3.7-1.4l-3.5,0.6l-1,13.6l0.5,4.9l-0.5,2.9l-1.4,3l-70.4-105
		l-1.1-3.5l16.4-63.1l47,11.2l24.4,5.4l23.3,4.7L201.1,317.5z"/>
	<path class="st0" d="M896.1,114.3l-1.3,0.1l-1-1.1l-1.9,1.4l-0.5,6.1l1.2,2.3l-1.1,3.5l2.1,2.8l-0.4,1.7l0.1,1.3l-1.1,2.1l-1.4,0.4
		l-0.6,1.3l-2.1,1l-0.7,1.5l1.4,3.4l-0.5,2.5l0.5,1.5l-1,1.9l0.4,1.9l-1.3,1.9l0.2,2.2l-0.7,1.1l0.7,4.5l0.7,1.5l-0.5,2.6l0.9,1.8
		L888,168l-0.5,1.3l-0.1,1.4l2.1,2.6l18.4-3.8l1-1.5l0.3-1.7l1.9-0.6l0.5-1.1l1.7-1.1l1.3,0.3l0.8-4.8l-2.3-1.4l-0.8-2.2l-3.2-2
		l-0.6-4l-11.9-36.8L896.1,114.3z"/>
	<path class="st0" d="M876,216.1l-14.6-4.9l-1.8,2.5l0.1,2.2l-3,5.4l1.5,1.8l-0.7,2l-1,1l0.5,3.6l2.7,0.9l1,2.8l2.1,1.1l4.2,3.2
		l-3.3,2.6l-1.6,2.3l-1.8,3l-1.6,0.6l-1.4,1.7l-1,2.2l-0.3,2.1l0.8,0.9l0.4,2.3l1.2,0.6l2.4,1.5l1.8,0.8l1.6,0.8l0.1,1.1l0.8,0.1
		l1.1-1.2l0.8,0.4l2.1,0.2l-0.2,2.9l0.2,2.5l1.8-0.7l1.5-3.9l1.6-4.8l2.9-2.8l0.6-3.5l-0.6-1.2l1.7-2.9v-1.2l-0.7-1.1l1.2-2.7
		l-0.3-3.6l-0.6-8.2l-1.2-1.4v1.4l0.5,0.6h-1.1l-0.6-0.4l-1.3-0.2l-0.9,0.6l-1.2-1.6l0.7-1.7v-1l1.7-0.7l0.8-2.1L876,216.1z"/>
	<path class="st0" d="M391,353.6h-0.8l-7.9,99.3l-31.8-2.6l-34.4-3.6l-0.3,3l2,2.2l-30.8-4.1l-1.4,10.2l-15.7-2.2l17.4-124.1
		l52.6,6.5l51.7,4.8L391,353.6z"/>
	<path class="st0" d="M906.4,202.3l-1.3,0.1l-0.5,1L906.4,202.3z M875.8,225l0.7,0.6l1.3-0.3l1.1,0.3l0.9-1.3h1.9l2.4-0.9l5.1-2.1
		l-0.5-0.5l-1.9,0.8l-2,0.9l0.2-0.8l2.6-1.1l0.8-1l1.2,0.1l4.1-2.3v0.7l-4.2,3l4.5-2.8l1.7-2.2l1.5-0.1l4.5-3.1l3.2-3.1l3-2.3l1-1.2
		l-1.7-0.1l-1,1.2l-0.2,0.7l-0.9,0.7l-0.8-1.1l-1.7,1l-0.1,0.9l-0.9-0.2l0.5-0.9l-1.2-0.7l-0.6,0.9l0.9,0.3l0.2,0.5l-0.3,0.5
		l-1.4,2.6h-1.9l0.9-1.8l0.9-0.6l0.3-1.7l1.4-1.6l0.9-0.8l1.5-0.7l-1.2-0.2l-0.7,0.9h-0.7l-1.1,0.8l-0.2,1l-2.2,2.1l-0.4,0.9
		l-1.4,0.9l-7.7,1.9l0.2,0.9l-0.9,0.7l-2,0.3l-1-0.6l-0.2,1.1l-1.1-0.4l0.1,1l-1.2-0.1l-1.2,0.5l-0.2,1.1h-1l0.2,1h-0.7l0.2,1
		l-1.8,0.4l-1.5,2.3L875.8,225z M875,224.6l-1.6,0.4v1l-0.7,1.6l0.6,0.7l2.4-2.3l-0.1-0.9L875,224.6z M864.9,129.4l-0.6,1.9l1.4,0.9
		l-0.4,1.5l0.5,3.2l2.2,2.3l-0.4,2.2l0.6,2l-0.4,1l-0.3,3.8l3.1,6.7l-0.8,1.8l0.9,2.2l0.9-1.6l1.9,1.5l3,14.2l-0.5,2l1.1,1l-0.5,15
		l0.7,1l2.8,16.3l1.8,1.5l-3.5,3.4l1.7,2.2l-1.3,3.3l-1.5,1.7l-1.5,2.3l-0.2-0.7l0.4-5.9l-14.6-4.9l-1.6-1.1l-1.9,0.3l-3-2.2l-3-5.8
		h-2l-0.4-1.5l-1.7-1.1l-70.5,13.9l-0.8-6l4.3-3.9l0.6-1.7l3.9-2.5l0.6-2.4l2.3-2l0.8-1.1l-1.7-3.3l-1.7-0.5l-1.8-3l-0.2-3.2
		l7.6-3.9l8.2-1.6h4.4l3.2,1.6l0.9-0.1l1.8-1.6l3.4-0.7h3l2.6-1.3l2.5-2.6l2.4-3.1l1.9-0.4l1.1-0.5l0.4-3.2l-1.4-2.7l-1.2-0.7l2-1.3
		l-0.1-1.8h-1.5l-2.3-1.4l-0.1-3.1l6.2-6.1l0.7-2.4l3.7-6.3l5.9-6.4l2.1-1.7l2.5,0.1l20.6-5.2L864.9,129.4z"/>
	<path class="st0" d="M862.5,320.8l-29.1,6.1l-39.4,7.3l-29.4,3.5v5.2l-1.5-0.1l-1.4,1.2l-2.4,5.2l-2.6-1.1l-3.5,2.5l-0.7,2.1
		l-1.5,1.2l-0.8-0.8l-0.1-1.5l-0.8-0.2l-4,3.3l-0.6,3.4l-4.7,2.4l-0.5,1.2l-3.2,2.6l-3.6,0.5l-4.6,3l-0.8,4.1l-1.3,0.9l-1.5-0.1
		l-1.4,1.3l-0.1,4.9l21.4-3l4.4-1.9l1.3-0.1l7.3-4.3l23.2-2.2l0.4,0.5l-0.2,1.4l0.7,0.3l1.2-1.5l3.3,3l0.1,2.6l19.7-2.8l24.5,17.1
		l4-2.2l3-0.7h1.7l1.1,1.1l0.8-2l0.6-5l1.7-3.9l5.4-6.1l4.1-3.5l5.4-2.3l2.5-0.4l1.3,0.4l0.7,1.1l3.3-6.6l3.3-5.3l-0.7-0.3l-4.4,6.8
		l-0.5-0.8l2-2.2l-0.4-1.5l-2-0.5l1,1.3l-1.2,0.1l-1.2-1.8l-1.2,2l-1.6,0.2l1-2.7l0.7-1.7l-0.2-2.9l-2.2-0.1l0.9-0.9l1.1,0.3
		l2.7,0.1l0.8-0.5h2.3l2-1.9l0.2-3.2l1.3-1.4l1.2-0.2l1.3-1l-0.5-3.7l-2.2-3.8l-2.7-0.2l-0.9,1.6l-0.5-1l-2.7,0.2l-1.2,0.4l-1.9,1.2
		l-0.3-0.4h-0.9l-1.8,1.2l-2.6,0.5v-1.3l0.8-1l1,0.7h1l1.7-2.1l3.7-1.7l2-2.2h2.4l0.8,1.3l1.7,0.8l-0.5-1.5l-0.3-1.6l-2.8-3.1
		l-0.3-1.4l-0.4,1l-0.9-1.3L862.5,320.8z M869.5,351.8l2.7-2.5l4.6-3.3v-3.7l-0.4-3.1l-1.7-4.2l1.5,1.4l1,3.2l0.4,7.6l-1.7,0.4
		l-3.1,2.4l-3.2,3.2L869.5,351.8z M871.4,332.5l-0.9-0.2v1l2.5,2.2l-0.2-1.4L871.4,332.5z M874.3,334.6l-1.4-2.8l-2.2-3.4l-2.4-3
		l-2.2-4.3l-0.8-0.7l2.2,4.3l0.3,1.3l3.4,5.5l1.8,2.1L874.3,334.6z"/>
	<path class="st0" d="M498.2,89.3l-1.1,2.8l0.8,1.4l-0.3,5.1l-0.5,1.1l2.7,9.1l1.3,2.5l0.7,14l1,2.7l-0.4,5.8l2.9,7.4l0.3,5.8
		l-0.1,2.1l-29.5-0.4l-46-2.1l-39.2-2.9L396,77l44.5,3.4l55.3,1.6L498.2,89.3z"/>
	<path class="st0" d="M719.2,229.5l1.9-0.4l3,1.3l2.1,0.6l0.7,0.9h1l1-1.5l1.3,0.8h1.5l-0.1,1l-3.1,0.5l-2,1.1l1.9,0.8l1.6-1.5
		l2.4-0.4l2.2,1.5l1.5-0.1l2.5-1.7l3.6-2.1l5.2-0.3l4.9-5.9l3.8-3.1l9.3-5.1l4.9,29.9l-2.2,1.2l1.4,2.1l-0.1,2.2l0.6,2l-1.1,3.4
		l-0.1,5.4l-1,3.6l0.5,1.1l-0.4,2.2l-1.1,0.5l-2,3.3l-1.8,2h-0.6l-1.8,1.7l-1.3-1.2l-1.5,1.8l-0.3,1.2h-1.3l-1.3,2.2l0.1,2.1l-1,0.5
		l1.4,1.1v1.9l-1,0.2l-0.7,0.8l-1,0.5l-0.6-2.1l-1.6-0.5l-1,2.3l-0.3,2.2l-1.1,1.3l1.3,3.6l-1.5,0.8l-0.4,3.5H746l-3.2,1.4l-1.2-2.1
		l-3.5-1.4l-0.8-2.9l-0.5-0.8l-3.4,1.8l-0.6,1.7h-0.9l-1.3,0.7l-1.2-0.8l-3-0.8l-1.9,0.8v1l-2.2-0.2l-1.9-2.1l-2.3,0.2l-4.1-0.7v-1
		l-2.2-3.4l-2.9-1.2l-1.9,0.8l-2.2-0.1l-1.3-0.5l-6.6-57.2l21.4-3.5L719.2,229.5z"/>
	<path class="st0" d="M535,419.3l-4.6-3.8l-2.2-0.9l-0.5,1.6l-5.1,0.3L522,415l-5,2.5l-1.6-0.7l-3.7,0.3l-0.6,1.7l-3.6,0.9l-1.3-1.2
		l-1.2,0.1l-2-1.8l-2.1,0.7l-2-0.5l-1.8-2l-2.5,4.2l-1.2,0.8l-1-1.8l0.3-2l-1.2-0.7l-2.3,2.5l-1.7-1.2l-0.1-1.5l-1.3,0.5l-2.6-1.7
		l-3,2.6l-2.3-1.1l0.7-2.1l-2.3,0.1l-1.9-3l-3.5-1.1l-2,2.3l-2.3-2.2l-1.4,0.4l-2,0.1l-3.5-1.9l-2.3,0.1l-1.2-0.7l-0.5-2.9l-2.3-1.7
		l-1.1,1.5l-1.4-1l-1.2-0.4l-1.1,1l-1.5-0.3l-2.5-3l-2.7-1.3l1.4-42.7l-52.6-3.2l0.6-10.6l16.5,1l67.7,2.9l62,0.1l0.2,10.8l4.1,24.4
		l-0.7,39L535,419.3z"/>
	<path class="st0" d="M127.4,187.2l47,11.2l8.5-37.3l2.9-5.8l0.4-2.1l0.8-0.9l-0.9-2l-2.9-1.2l0.2-4.2l4-5.8l2.5-0.8l1.6-2.3
		l-0.1-1.6l1.8-1.6l3.2-5.5l4.2-4.8l-0.5-3.2l-3.5-3.1l-1.6-3.6l-30.3-7.3l-2.8,1l-5.4-0.9l-1.8-0.9l-1.5,1.2l-3.3-0.4l-4.5,0.5
		l-0.9,0.7l-4.2-0.4l-0.8-1.6l-1.2-0.2l-4.4,1.3l-1.6-1.1l-2.2,0.8l-0.2-1.8l-2.3-1.2l-1.5-0.2l-1-1.1l-3,0.3l-1.2-0.8h-1.2
		l-1.2,0.9l-5.5,0.7l-6.6-4.2l1.1-5.6l-0.4-4.1l-3.2-3.7l-3.7,0.1l-0.4-1.1l0.4-1.2l-0.7-0.8l-1,0.1l-1.1,1.3l-1.5-0.2l-0.5-1.1
		l-1-0.1l-0.7,0.6l-2-1.9v4.3l-1.3,1.3l-1.1,3.5l-0.1,2.3l-4.5,12.3l-13.2,31.3l-3.2,4.6l-1.6-0.1l0.1,2.1l-5.2,7.1l-0.3,3.3l1,1.3
		l0.1,2.4l-1.2,1.1l-1.2,3l0.1,5.7l1.2,2.9L127.4,187.2z"/>
	<path class="st0" d="M859.8,210.1l-1.9,0.3l-3-2.2l-3-5.8h-2l-0.4-1.5l-1.7-1.1l-70.5,13.9l-0.8-6l-4.2,3.4l-0.9,0.1l-2.7,3
		l-3.3,1.7l4.9,29.9l3.2,19.7l17.4-2.9l60.5-11.8l1.2-2.1l1.5-1.1l1.6-0.3l1.6,0.6l1.4-1.7l1.6-0.6l1.8-3l1.6-2.3l3.3-2.6l-4.2-3.2
		l-2.1-1.1l-1-2.8l-2.7-0.9l-0.5-3.6l1-1l0.7-2l-1.5-1.8l3-5.4l-0.1-2.2l1.8-2.5L859.8,210.1z"/>
	<path class="st0" d="M916.7,191.4l-1.3-1.1l-2.6-1.3l-0.6-2.2h-0.8l-0.7-2.6l-6.5,2l3.2,12.3l-0.4,1.1l0.4,1.8l5.6-3.6l0.1-3
		l-0.8-0.8l0.4-0.6l-0.1-1.3l-0.9-0.7l1.2-0.4l-0.9-1.6l1.8,0.7l0.3,1.4l0.7,1.2l-1.4-0.8l1.1,1.7l-0.3,1.2l-0.6-1.1v2.5l0.6-0.9
		l0.4,0.9l1.3-1.5l-0.2-2.5l1.4,3.1l1-0.9L916.7,191.4z M912,203.6h0.9l0.5-0.6l-0.8-1.3l-0.7,0.7L912,203.6z"/>
	<path class="st0" d="M805.8,370.9l-19.7,2.8l-0.1-2.6l-3.3-3l-1.2,1.5l-0.7-0.3l0.2-1.4l-0.4-0.5l-23.2,2.2l-7.3,4.3l-1.3,0.1
		l-4.4,1.9l-0.1,1.9l-1.9,1L741,382l0.2,1.3l6.1,3.8l2.6-0.3l3.1,4l0.4,1.7l4.2,5.1l2.6,1.7l1.4,0.2l2.2,1.6l1.1,2.2l2,1.6l1.8,0.5
		l2.7,2.7l0.1,1.4l2.6,2.8l5,2.3l3.6,6.7l0.3,2.7l3.9,2.1l2.5,4.8l0.8,3.1l4.2,0.4l0.8-1.5h0.6l1.8-1.5l0.5-2l3.2-2.1l0.3-2.4
		l-1.2-0.9l0.8-0.7l0.8,0.4l1.3-0.4l1.8-2.1l3.8-1.8l1.6-2.4l0.1-0.7l4.8-4.4l-0.1-0.5l-0.9-0.8l1.1-1.5h0.8l0.4,0.5l0.7-0.8h1.3
		l0.6-1.5l2.3-2.1l-0.3-5.4l0.8-2.3l3.6-6.2l2.4-2.2l2.2-1.1L805.8,370.9z"/>
	<path class="st0" d="M430,146.6l46,2.1l29.5,0.4l-0.1,2.2l-0.9,2l-3.1,1.9l-0.3,1.2l1.7,2.5l0.4,1.8l2.6,0.6l1.5,1.9l-0.2,39.5
		l-2.2-0.1l-0.1,1.6l1.3,1.5l-0.1,1.1l-1,0.5l0.4,1.6l1.3,0.4l0.7,2l-1.7,5.1l-1,4.3l1.3,1.2l0.3,1.3l0.7,1.7l-1.5,0.2l-1.8-0.7
		l-0.9-2.6l-1.2-1.3l-6.1-2.2l-0.6-1.1l-2-0.6l-1.4,0.6l-1-0.5l-0.9,0.4l-0.7-0.4l-0.9,0.4l-0.7-0.5l-1,0.7l-1.5-0.6l-1.8,2
		l-1.8,0.1l-2.1-2l-1.7-0.2l-3.4-3.2l-38-1.6l-51.1-3.5l3.9-43.9l2-20.7L430,146.6z"/>
	<path class="st0" d="M654.4,385.8l45.7-4l22.9-2.9l0.1-4.9l1.4-1.3l1.5,0.1l1.3-0.9l0.8-4.1l4.6-3l3.6-0.5l3.2-2.6l0.5-1.2l4.7-2.4
		l0.6-3.4l4-3.3l0.8,0.2l0.1,1.5l0.8,0.8l1.5-1.2l0.7-2.1l3.5-2.5l2.6,1.1l2.4-5.2l1.4-1.2l1.5,0.1v-5.2l0.3-0.7l-4.6,0.5l-0.2,1
		l-28.9,3.3l-5.6,1.4l-20.5,1.4l-5.2,0.8l-17.4,1l-2.6,0.8l-22.6,2l-0.7-0.6h-3.7l1.2,3.2l-0.6,0.9l-23.3,1.5l-0.8,1l-0.8-0.7h-1
		v1.3l0.6,1l-0.1,1l-1.4,0.5l1.4,1.5l-0.8,0.7l-1.7-0.2l0.6,1l1.2,1.1v0.7l-1.2,0.5l-1,2l0.1,0.6l1.4,1l-0.4,0.7h-1.5v0.5l0.9,0.9
		l0.1,0.8l-1.4,0.2l-0.5,0.8l-1.6,0.2l-0.9,0.9l0.6,0.9l1.1-0.1l0.5,0.9l-1.6,1.3l0.4,1.5l-2-0.6l-0.1,0.7l0.4,1.1l-0.3,1.4
		l-1.3-0.8l-0.8,0.8l1.1,0.1l0.1,1.5l-0.6,1l1.1,0.9l-0.3,1.5l0.8,0.7l-0.7,1l-1.2-0.5l-0.9,2.2l-1.6,0.7L654.4,385.8z"/>
	<path class="st0" d="M315.8,449.7l0.3-3l34.4,3.6l31.8,2.6l7.9-99.3h0.8l52.6,3.2l-1.4,42.7l2.7,1.3l2.5,3l1.5,0.3l1.1-1l1.2,0.4
		l1.4,1l1.1-1.5l2.3,1.7l0.5,2.9l1.2,0.7l2.3-0.1l3.5,1.9l2-0.1l1.4-0.4l2.3,2.2l2-2.3l3.5,1.1l1.9,3l2.3-0.1l-0.7,2.1l2.3,1.1
		l3-2.6l2.6,1.7l1.3-0.5l0.1,1.5l1.7,1.2l2.3-2.5l1.2,0.7l-0.3,2l1,1.8l1.2-0.8l2.5-4.2l1.8,2l2,0.5l2.1-0.7l2,1.8l1.2-0.1l1.3,1.2
		l3.6-0.9l0.6-1.7l3.7-0.3l1.6,0.7l5-2.5l0.6,1.5l5.1-0.3l0.5-1.6l2.2,0.9l4.6,3.8l6.4,1.9l2.6,2.3l2.8-1.3l3.2,0.8l0.2,11.9
		l0.5,19.9l0.7,3.4l2.6,2.8l0.7,5.4l3.8,4.6l0.8,4.3h1l-0.1,7.3l-3.3,6.4l1.3,2.3l-1.3,1.5l0.7,3l-0.1,4.3l-2.2,3.5l-0.1,0.8
		l-1.7,1.2l1,1.8l1.2,1.1l-3.5,0.3l-8.4,3.9l-3.5,1.4l-1.8,1.8l-0.7-0.5l2.1-2.3l1.8-0.7l0.5-0.9l-2.9-0.1l-0.7-0.8l0.8-2l-0.9-1.8
		h-0.6l-2.4,1.3l-1.9,2.6l0.3,1.7l3.3,3.4l1.3,0.3v0.8l-2.3,1.6l-4.9,4l-4,3.9l-3.2,1.4l-5,3l-3.7,2l-4.5,1.9l-4.1,2.5l3.2-3v-1.1
		l0.6-0.8l-0.2-1.8l-1.5-0.1l-1.1,1.5l-2.6,1.3l-1.8-1.2l-0.3-1.7h-1.5l0.8,2.2l1.4,0.7l1.2,0.9l1.8,1.6l-0.7,0.8l-3.9,1.7l-1.7,0.1
		l-1.2-1.2l-0.5,2.1l0.5,1.1l-2.7,2l-1.5,0.2l-0.8,0.7l-0.4,1.7l-1.8,3.3l-1.6,0.7l-1.6-0.6l-1.8,1.1l0.3,1.4l1.3,0.8l1,0.8
		l-1.8,3.5l-0.3,2.8l-1,1.7l-1.4,1l-2.9,0.4l1.8,0.6l1.9-0.6l-0.4,3.2l-1.1-0.1l0.2,1.2l0.3,1.4l-1.3,0.9v3.1l1.6,1.4l0.6,3.1
		l-0.4,2.2l-1,0.4l0.4,1.5l1.1,0.4l0.8,1.7v2.6l1.1,2.1l2.2,2.6l-0.1,0.7l-2.2-0.2l-1.6,1.4l0.2,1.4l-0.9-0.3l-1.4-0.2l-3.4-3.7
		l-2.3-0.6h-7.1l-2.8-0.8l-3.6-3l-1.7-1l-2.1,0.1l-3.2-2.6l-5.4-1.6v-1.3l-1.4-1.8l-0.9-4.7l-1.1-1.7l-1.7-1.4v-1.6L446,566l0.6-2.6
		l-0.3-2.2l-1.3-1.4l0.7-3l-0.8-3.2l-1.7-1.4h-1.1l-4-3.5l0.1-1.9l-0.8-1.7l-0.8-0.2l-0.9-2.4l-2-1.6l-2.9-2.5l-0.2-2.1l-1-0.7
		l0.2-1.6l0.5-0.7l-1.4-1.5l0.1-0.7l-2-2.2l0.1-2.1l-2.7-4.9l-0.1-1.7l-1.8-3.1l-5.1-4.8v-1.1l-3.3-1.7l-0.1-1.8l-1.2-0.4v-0.7
		l-0.8-0.2l-2.1-2.8h-0.8l-0.7-0.6l-1.3,1.1h-2.2l-2.6-1.1h-4.6l-4.2-2.1l-1.3,1.9l-2.2-0.6l-3.3,1.2l-1.7,2.8l-2,3.2l-1.1,4.4
		l-1.4,1.2l-1.1,0.1l-0.9,1.6l-1.3,0.6l-0.1,1.8l-2.9,0.1l-1.8-1.5h-1l-2-2.9l-3.6-0.5l-1.7-2.3l-1.3-0.2l-2.1-0.8l-3.4-3.4l0.2-0.8
		l-1.6-1.2l-1-0.1l-3.4-3.1l-0.1-2l-2.3-4l0.2-1.6l-0.7-1.3l0.8-1.5l-0.1-2.4l-2.6-4.1l-0.6-4.2l-1.6-1.6v-1l-1.2-0.2l-0.7-1.1
		l-2.4-1.7l-0.9-0.1l-1.9-1.6v-1.1l-2.9-1.8l-0.6-2.1l-2.6-2.3l-3.2-4.4l-3-1.3l-2.1-1.8l0.2-1.2l-1.3-1.4l-1.7-3.7l-2.4-1
		L315.8,449.7z M490.7,588l0.8,0.1l-0.6-4.8l-3.5-12.3l-0.2-8.1l4.9-10.5l6.1-8.2l7.2-5.1v-0.7h-0.8l-2.6,1l-3.6,2.3l-0.7,1.5
		l-8.2,11.6l-2.8,7.9v8.8l3.6,12L490.7,588z"/>
	<path class="st0" d="M266.7,238.6l3.3-21.9l-47.9-8.2l-21,109l46.2,8.2l40,6l11.5-88.3L266.7,238.6z"/>
	<path class="st0" d="M892.6,123.1l-1.1,3.5l2.1,2.8l-0.4,1.7l0.1,1.3l-1.1,2.1l-1.4,0.4l-0.6,1.3l-2.1,1l-0.7,1.5l1.4,3.4l-0.5,2.5
		l0.5,1.5l-1,1.9l0.4,1.9l-1.3,1.9l0.2,2.2l-0.7,1.1l0.7,4.5l0.7,1.5l-0.5,2.6l0.9,1.8L888,168l-0.5,1.3l-0.1,1.4l2.1,2.6l-12.4,2.7
		l-1.1-1l0.5-2l-3-14.2l-1.9-1.5l-0.9,1.6l-0.9-2.2l0.8-1.8l-3.1-6.7l0.3-3.8l0.4-1l-0.6-2l0.4-2.2l-2.2-2.3l-0.5-3.2l0.4-1.5
		l-1.4-0.9l0.6-1.9l-0.8-1.7l27.3-6.9L892.6,123.1z"/>
	<path class="st0" d="M868.2,286.1l-1.1,2.8l0.5,1.1l0.4-1.1l0.8-3.1L868.2,286.1z M833.6,279.1l-0.7-1l1-0.1l1-0.9l0.4-1.8
		l-0.2-0.5l0.1-0.5l-0.3-0.7l-0.6-0.5l-0.4-0.1l-0.5-0.4l-0.6-0.6h-1l-0.6-0.1l-0.4-0.4l0.1-0.5l-1.7-0.6l-0.8,0.3l-1.2-0.1
		l-0.7-0.7l-0.5-0.2l-0.2-0.7l0.6-0.8v-0.9l-1.2-0.2l-1-0.9l-0.9,0.1l-1.6-0.3l-0.4,0.7l-0.4,1.6l-0.5,2.3l-10-5.2l-0.2,0.9l0.9,1.6
		l-0.8,2.3l0.1,2.9l-1.2,0.8l-0.5,2.1l-0.9,0.8l-1.4,1.8l-0.9,0.8l-1,2.5l-2.4-1.1l-2.3,8.5l-1.3,1.6l-2.8-0.5l-1.3-1.9l-2.3-0.7
		l-0.1,4.7l-1.4,1.7l0.4,1.5l-2.1,2.2l0.4,1.9l-3.7,6.3l-1,3.3l1.5,1.2l-1.5,1.9l0.1,1.4l-2.3,2l-0.7-1.1l-4.3,3.1l-1.5-1l-0.6,1.4
		l0.8,0.5l-0.5,0.9l-5.5,2.4l-3-1.8l-0.8,1.7l-1.9,1.8l-2.3,0.1l-4.4-2.3l-0.1-1.5l-1.5-0.7l0.8-1.2l-0.7-0.6l-4.9,6.6l-2.9,1l-3,3
		l-0.4,2.2l-2.1,1.3l-0.1,1.7l-1.4,1.4l-1.8,0.5l-0.5,1.9l-1,0.4l-6.9,4.2l28.9-3.3l0.2-1l4.6-0.5l-0.3,0.7l29.4-3.5l39.4-7.3
		l29.1-6.1l-0.6-1.2l0.4-0.1l0.9,0.9l-0.1-1.4l-0.3-1.9l1.6,1.2l0.9,2.1v-1.3l-3.4-5.5v-1.2l-0.7-0.8l-1.3,0.7l0.5,1.4h-0.8l-0.4-1
		l-0.6,0.9l-0.9-1.1l-2.1-0.1l-0.2,0.7l1.5,2.1l-1.4-0.7l-0.5-1l-0.4,0.8l-0.8,0.1l-1.5,1.7l0.3-1.6v-1.4l-1.5-0.7l-1.8-0.5
		l-0.2-1.7l-0.6-1.3l-0.6,1.1l-1.7-1l-2,0.3l0.2-0.9l1.5-0.2l0.9,0.5l1.7-0.8l0.9,0.4l0.5,1v0.7l1.9,0.4l0.3,0.9l0.9,0.4l0.9,1.2
		l1.4-1.6h0.6l-0.1-2.1l-1.3,1l-0.6-0.9l1.5-0.2l-1.2-0.9l-1.2,0.6l-0.1-1.7l-1.7,0.2l-2.2-1.1l-1.8-2.2l3.6,2.2l0.9,0.3l1.7-0.8
		l-1.7-0.9l0.6-0.6l-1-0.5l0.8-0.2l-0.3-0.9l1.1,0.9l0.4-0.8l0.4,1.3l1.2,0.8l0.6-0.5l-0.5-0.6l-0.1-2.5l-1.1-0.1l-1.6-0.8l0.9-1.1
		l-2-0.1l-0.4-0.5l-1.4,0.6l-1.4-0.8l-0.5-1.2l-2.1-1.2l-2.1-1.8l-2.2-1.9l3,1.3l0.9,1.2l2.1,0.7l2.3,2.5l0.2-1.7l0.6,1.3l2.3,0.5
		v-4l-0.8-1.1l1.1,0.4l0.1-1.6l-3.1-1.4l-1.6-0.2l-1.3-0.2l0.3-1.2l-1.5-0.3l-0.1-0.6h-1.8l-0.2,0.8l-0.7-1h-2.7l-1-0.4l-0.2-1
		l-1.2-0.6l-0.4-1.5l-0.6-0.4l-0.7,1.1l-0.9,0.2l-0.9,0.7h-1.5l-0.9-1.3l0.4-3.1l0.5-2.4l0.6,0.5L833.6,279.1z M855.5,290.7l0.9-0.1
		V290l-0.8,0.1L855.5,290.7z M863,304.9l-1,2.7l1.2-1.3L863,304.9z M861.2,289.6l0.7,0.3l-0.2,1.9l-0.5-0.5l-1.3,1l1,0.4l-1.8,4.4
		l0.1,8.1l1.9,3.1l0.5-1.5l0.4-2.7l-0.3-2.3l0.7-0.9l-0.2-1.4l1.2-0.6l-0.6-0.5l0.5-0.7l0.8,1.1l-0.2,1.1l-0.4,3.9l1.1-2.2l0.4-3.1
		l0.1-3l-0.3-2l0.6-2.3l1.1-1.8l0.1-2.2l0.3-0.9l-4.6,1.6l-0.7,0.8L861.2,289.6z"/>
	<path class="st0" d="M195.4,104.3l0.7,4l-1.1,4.3l-30.3-7.3l-2.8,1l-5.4-0.9l-1.8-0.9l-1.5,1.2l-3.3-0.4l-4.5,0.5l-0.9,0.7
		l-4.2-0.4l-0.8-1.6l-1.2-0.2l-4.4,1.3l-1.6-1.1l-2.2,0.8l-0.2-1.8l-2.3-1.2l-1.5-0.2l-1-1.1l-3,0.3l-1.2-0.8h-1.2l-1.2,0.9
		l-5.5,0.7l-6.6-4.2l1.1-5.6l-0.4-4.1l-3.2-3.7l-3.7,0.1l-0.4-1.1l0.4-1.2l-0.7-0.8l-1,0.1l-2.1-1.5l-1.2,0.4l-2-0.1l-0.7-1.5
		l-1.6-0.3l2.5-7.5l-0.7,6l0.5,0.5v-2l0.8-0.2l1.1,2.3l-0.5-2.2l1.2-4.2l1.8,0.4l-1.1-2l-1,0.3L94,69.6l0.2-4.2l0.2,1.5l0.9,0.5
		l0.6-1.6h3.2l-2.2-1.2l-1.7-1.9l-1.4,1.6l1.2-3.1l-0.3-4.6L94.5,53l0.9-6.1l-0.5-2l-1.4-2.1l0.1-4l0.4-2.7l2-2.3l-0.7-1.4l0.2-0.6
		l0.9,0.1l7.8,7.6l4.7,1.9l5.1,2.5l3.2-0.1l0.2,3l1-1.6h0.7l0.6,2.7l0.5-2.6l1.4-0.2l0.5,0.7l-1.1,0.6l0.1,1.6l0.7-1.5h1.1l-0.4,2.6
		l-1.1-0.8l0.4,1.4l-0.1,1.5l-0.8,0.7l-2.5,2.9l1.2-3.4l-1.6,0.4l-0.4,2.1l-3.8,2.8l-0.4,1l-2.1,2.2l-0.1,1h2.2l2.4-0.2l0.5-0.9
		l-3.9,0.5v-0.6l2.6-2.8l1.8-0.8l1.9-0.2l1-1.6l3-2.3v-1.4h1.1l0.1,4h-1.5l-0.6,0.8l-1.1-0.9l0.3,1.1v1.7l-0.7,0.7l-0.3-1.6
		l-0.8,0.8l0.7,0.6l-0.9,1.1h1.3l0.7-0.5l0.1,2l-1,1.9l-0.9,1l-0.1,1.8l-1-0.2l-0.2-1.4l0.9-1.1l-0.8-0.5l-0.8,0.7l-0.7,2.2
		l-0.8,0.9l-0.1-2l0.8-1.1l-0.2-1.1l-1.2,1.2l0.1,2.2l-0.6,0.4l-2.1-0.4l-1.3,1.2l2.2-0.6l-0.2,2.2l1-1.8l0.4,1.4l0.5-1l0.7,1.8h0.7
		l0.7-0.8l0.6-0.1l2-1.9l0.2-1.2l0.8,0.6l0.3,0.9l0.7-0.3l0.1-1.2h1.3l0.2-2.9l-0.1-2.7l0.9,0.3l-0.7-2.1l1.4-0.8l0.2-2.4l2.3-2.2
		l1,0.1l0.3-1.4l-1.2-1.4l-0.1-3.5l-0.8,0.9l0.7,2.9l-0.6,0.1l-0.6-1.9l-0.6-0.5l0.3-2.3l1.8-0.1l0.3,0.7l0.3-1.6l-1.6-1.7l-0.6-1.6
		l-0.2,2l0.9,1.1l-0.7,0.4l-1-0.8l-1.8,1.3l1.5,0.5l0.2,2.4l-0.3,1.8l0.9-1.3l1.4,2.3l-0.4,1.9h-1.5v-1.2l-1.5-1.2l0.5-3l-1.9-2.6
		l2.7-3l0.6-4.1h0.9l1.4,3.2v-2.6l1.2,0.3v-3.3l-0.9-0.8l-1.2,2.5l-1-3l1.3-0.1l-1.5-4.9l1.9-0.6l25.4,7.5l31.7,8l23.6,5.5
		L195.4,104.3z M116.7,64.9h0.5l0.1,0.8l-0.5,0.3l0.1,0.6l-0.7,0.4l-0.2-0.9l0.5-0.4L116.7,64.9z M121.7,60.6l-1.2,1.9l-0.1,0.8
		l0.4,0.2l0.5-0.6l1.1,0.1L121.7,60.6z M121.3,39l0.5,0.6l1.3-0.3l0.2-1l1.2-1.8l-1-0.4l-0.7,1.6l-0.1-1.6l-1.1,0.2l-0.7,1.4
		L121.3,39z M124.5,33.5l0.7,1.5l-0.9,0.2l-0.8,0.4l-0.2-2.4L124.5,33.5z M121.8,31.9l-1.1-0.2l0.5,1.4L121.8,31.9z M120.8,34.4
		l0.8,0.4l-0.4,1.1l1.7-0.5l-0.2-2.2l-0.9-0.2L120.8,34.4z M118.1,34l0.3,2.7L120,38l0.6-1.9l-1.1-2.2L118.1,34z M120,32.9l-1.1-1
		L118,32l1.8,1.5L120,32.9z M123.2,25.9H122v0.8l1.2,0.6V25.9z M122.3,58.4l0.4-2.7h-1.1l-0.2,1.9L122.3,58.4z"/>
	<path class="st0" d="M756.9,318.2l-0.8,1.2l1.5,0.7l0.1,1.5l4.4,2.3l2.3-0.1l1.9-1.8l0.8-1.7l3,1.8l5.5-2.4l0.5-0.9l-0.8-0.5
		l0.6-1.4l1.5,1l4.3-3.1l0.7,1.1l2.3-2l-0.1-1.4l1.5-1.9l-1.5-1.2l1-3.3l3.7-6.3l-0.4-1.9l2.1-2.2l-0.4-1.5l1.4-1.7l0.1-4.7l2.3,0.7
		l1.3,1.9l2.8,0.5l1.3-1.6l2.3-8.5l2.4,1.1l1-2.5l0.9-0.8l1.4-1.8l0.9-0.8l0.5-2.1l1.2-0.8l-0.1-2.9l0.8-2.3l-0.9-1.6l0.2-0.9
		l10,5.2l0.5-2.3l0.4-1.6l0.4-0.7l-0.9-0.4l0.2-1.6l-1-0.5l-0.2-0.7h-0.7l-0.8-1.2l0.2-1l-2.6,0.4l-2.2-1.6l-1.4,0.3l-0.9,1.4h-1.3
		l-1.7,2.9l-3.3,0.4l-1.9-1l-2.6,3.8l-2.2-0.3l-3.1,3.9l-0.9,1.6l-1.8,1.6l-1.7-11.4l-17.4,2.9l-3.2-19.7l-2.2,1.2l1.4,2.1l-0.1,2.2
		l0.6,2l-1.1,3.4l-0.1,5.4l-1,3.6l0.5,1.1l-0.4,2.2l-1.1,0.5l-2,3.3l-1.8,2h-0.6l-1.8,1.7l-1.3-1.2l-1.5,1.8l-0.3,1.2h-1.3l-1.3,2.2
		l0.1,2.1l-1,0.5l1.4,1.1v1.9l-1,0.2l-0.7,0.8l-1,0.5l-0.6-2.1l-1.6-0.5l-1,2.3l-0.3,2.2l-1.1,1.3l1.3,3.6l-1.5,0.8l-0.4,3.5H746
		l-3.2,1.4l-0.1,1.1l0.6,1l-0.6,3.6l1.9,1.6l0.8,1.1l1,0.6l-0.1,0.9l4.4,5.6h1.4l1.5,1.8l1.2,0.3l1.4-0.1L756.9,318.2z"/>
	<path class="st0" d="M644.5,164.7l-2.9,0.8l0.2,2.3l-2.4,3.4l-0.2,3.1l0.6,0.7l0.8-0.7l0.5-1.6l2-1.1l1.6-4.2l3.5-1.1l0.8-3.3
		l0.7-0.9l0.4-2.1l1.8-1.1v-1.5l1-0.9l1.4,0.1v2l-1,0.1l0.5,1.2l-0.7,2.2l-0.6,0.1l-1.2,4.5l-0.7,0.5l-2.8,7.2l-0.3,4.2l0.6,2
		l0.1,1.3l-2.4,1.9l0.3,1.9l-0.9,3.1l0.3,1.6l0.4,3.7l-1.1,4.1l-1.5,5l1,1.5L644,205l0.8,1.7l-0.5,1.1l1.1,0.9v2.7l1.3,1.5l-0.4,3
		l0.3,4l-45.9,2.8l-1.3-2.8l-3.3-0.7l-2.7-1.5l-2-5.5l0.1-2.5l1.6-3.3l-0.6-1.1l-2.1-1.6l-0.2-2.6l-1.1-4.5l-0.2-3l-2.2-3l-2.8-0.7
		l-5.2-3.6l-0.6-3.3l-6.3-3.1l-0.2-1.3h-3.3l-2.2-2.6l-2-1.3l0.7-5.1l-0.9-1.6l0.5-5.4l1-1.8l-0.3-2.7l-1.2-1.3l-1.8-0.3v-1.7
		l2.8-5.8l5.9-3.9l-0.4-13l0.9,0.4l0.6-0.5l0.1-1.1l0.9-0.6l1.4,1.2l0.7-0.1h2.6l6.8-2.6l0.3-1h1.2l0.7-1.2l0.4,0.8l1.8-0.9l1.8-1.7
		l0.3,0.5l1-1l2.2,1.6l-0.8,1.6l-1.2,1.4l0.5,1.5l-1.4,1.6l0.4,0.9l2.3-1.1v-1.4l3.3,1.9l1.9,0.7l1.9,0.7l3,3.8l17,3.8l1.4,1l4,0.8
		l0.7,0.5l2.8-0.2l4.9,0.8l1.4,1.5l-1,1l0.8,0.8l3.8,0.7l1.2,1.2l0.1,4.4l-1.3,2.8l2,0.1l1-0.8l0.9,0.8l-1.1,3.1l1,1.6l1.2,0.3
		L644.5,164.7z M595,127.4l-0.5,0.1l-1.5,1.6l0.2,0.5l1.5-0.6v-0.6l0.9-0.3L595,127.4z M596.6,126.3l-1,0.3l-0.2,0.7l0.9-0.1
		L596.6,126.3z M595.3,124.7l-0.2,0.9h1.7l0.6-0.4l0.1-1L595.3,124.7z M598.1,121.7l-0.3,1.9l1.2-0.5l0.1-1.4H598.1z M656.4,153.6
		l-2,0.3l-0.4,1.3l1.3,1.7L656.4,153.6z"/>
	<path class="st0" d="M388.8,164.4l-51-5.3l-57.3-7.9l-2,10.7l-8.5,54.8l-3.3,21.9l32.1,4.8l44.9,5.7l37.5,3.4l3.7-44.2L388.8,164.4
		z"/>
	<path class="st0" d="M837,272.7l-2.6-1.8l-1,1.7l0.5,0.4l0.4,0.1l0.6,0.5l0.3,0.7l-0.1,0.5l0.2,0.5L837,272.7z"/>
</g>
<g>
	<path class="st1" d="M721.1,468.1l-48.8,5.1l-0.5,2.9l2.5,2.8l1.7,0.7l0.9,1.2l-0.4,7.3l-1.1,0.6"/>
	<path class="st1" d="M700.1,381.8l12.9,45.8l2.9,6.1l1.8,1.9v3.2l1.7,1l0.2,1.1l-2.2,3.8l-0.3,3.7l-0.5,2.6l2.4,5.7l-0.6,6.3
		l0.5,1.4l1.5,1.5l0.7,2.2"/>
	<path class="st1" d="M654.4,385.8l1.3,2l-1.3,67l4.4,33.2"/>
	<path class="st1" d="M654.4,385.8l45.7-4"/>
	<path class="st1" d="M550.2,434.9l52.3-1.3"/>
	<path class="st1" d="M625.2,365.6l-11.2,0.8l2.8-5.1l1.7-1.5v-2.2l-1.6-2.5l-39.8,2l-39.1,0.7"/>
	<path class="st1" d="M602.5,433.6l1.2-1.5l0.5-3l-1.5-2.3l-0.5-2.2l0.9-0.7v-0.8l-1.7-1.1l-0.1-0.7l1.6-0.9l-1.2-1.1l1.7-7.1
		l3.4-1.6v-0.8l-1.1-1.4l2.9-5.4h1.9l1.5-1.2l-0.3-5.2l3.1-4.5l1.8-0.6l-0.5-3.1"/>
	<path class="st1" d="M541.4,421.2l0.7-39l-4.1-24.4"/>
	<path class="st1" d="M616.1,388.4l1.6-0.7l0.9-2.2l1.2,0.5l0.7-1l-0.8-0.7l0.3-1.5l-1.1-0.9l0.6-1l-0.1-1.5l-1.1-0.1l0.8-0.8
		l1.3,0.8l0.3-1.4l-0.4-1.1l0.1-0.7l2,0.6l-0.4-1.5l1.6-1.3l-0.5-0.9l-1.1,0.1l-0.6-0.9l0.9-0.9l1.6-0.2l0.5-0.8l1.4-0.2l-0.1-0.8
		l-0.9-0.9v-0.5h1.5l0.4-0.7l-1.4-1l-0.1-0.6"/>
	<path class="st1" d="M541.4,421.2l2.6,2.3l2.8-1.3l3.2,0.8l0.2,11.9"/>
	<path class="st1" d="M182.5,358.8l-0.9,2.1l1.3,3.4l1.4,1.8l1.2,5.8l2.3,2.5l0.4,1.9l-1.3,1.3l-4.8,1.7l-2.4,3.6l-1.6,7l-2.4,3.2
		l-1.6,0.3l-1.1,6.9l1.1,1.6l1.8,0.2l1,1.6l-0.8,2.4l-3,2.2l-2.2-0.1"/>
	<path class="st1" d="M287.3,331.7l-17.4,124.1"/>
	<path class="st1" d="M201.1,317.5l-3.4,17.5l-2.4,2.9h-2l-1.2-2.7l-3.7-1.4l-3.5,0.6l-1,13.6l0.5,4.9l-0.5,2.9l-1.4,3"/>
	<path class="st1" d="M201.1,317.5l46.2,8.2l40,6"/>
	<path class="st1" d="M127.4,187.2L111,250.3l1.1,3.5l70.4,105"/>
	<path class="st1" d="M61.3,168.6l66.1,18.6"/>
	<path class="st1" d="M412.9,277l-4.8,67"/>
	<path class="st1" d="M381.2,252.5l33.1,2.4l-1.4,22.1"/>
	<path class="st1" d="M287.3,331.7l52.6,6.5l51.7,4.8"/>
	<path class="st1" d="M391.6,343l16.5,1"/>
	<path class="st1" d="M298.8,243.4l-11.5,88.3"/>
	<path class="st1" d="M298.8,243.4l44.9,5.7l37.5,3.4"/>
	<path class="st1" d="M877.3,192l10.5-2.4l0.5,0.7l0.9-0.3v-0.7l14.9-3.4l0.1,0.3"/>
	<path class="st1" d="M880.1,215.4l-1.7-2.2l3.5-3.4l-1.8-1.5l-2.8-16.3"/>
	<path class="st1" d="M904.2,186.2l3.2,12.3l-0.4,1.1l0.4,1.8"/>
	<path class="st1" d="M835.3,275.3l1.7-2.6l-2.6-1.8l-1,1.7"/>
	<path class="st1" d="M833.4,272.6l0.5,0.4l0.4,0.1l0.6,0.5l0.3,0.7l-0.1,0.5l0.2,0.5"/>
	<path class="st1" d="M851.4,250.8l7.6,27.1l10.9-2.3"/>
	<path class="st1" d="M857.3,247.9l-1,2.2l-0.3,2.1"/>
	<path class="st1" d="M851.4,250.8l1.2-2.1l1.5-1.1l1.6-0.3l1.6,0.6"/>
	<path class="st1" d="M721.1,468.1l3.3,6l50.1-3.3l0.6,3.2l1,1.1l2.1-0.6l0.5-4.3l-1.4-2.1v-2.5l2.2-1.4l1.7,0.9l4,0.7l3.6-0.3"/>
	<path class="st1" d="M723,378.9l21.4-3"/>
	<path class="st1" d="M744.4,375.9l-0.1,1.9l-1.9,1L741,382l0.2,1.3l6.1,3.8l2.6-0.3l3.1,4l0.4,1.7l4.2,5.1l2.6,1.7l1.4,0.2l2.2,1.6
		l1.1,2.2l2,1.6l1.8,0.5l2.7,2.7l0.1,1.4l2.6,2.8l5,2.3l3.6,6.7l0.3,2.7l3.9,2.1l2.5,4.8l0.8,3.1l4.2,0.4"/>
	<path class="st1" d="M700.1,381.8l22.9-2.9"/>
	<path class="st1" d="M590.3,270.4l0.7-0.7l0.1-2.3l-0.7-0.9l1-1.5l1.8-0.6l0.9-0.3l1-1.2v-2.4l1.7-2.4l0.5-0.5l0.1-3.5l-0.9-1.4
		l-1-0.3l-1.1-1.6l1-4l3-0.8h2.4l4.2-1.8l1.7-2.2l0.1-2.4l1.1-1.3l1.3-3.2l-0.1-2.6l-2.8-3.5h-1.2l-0.9-1.1l0.2-1.6l-1.7-1.7
		l-2.5-1.3l0.5-0.6"/>
	<path class="st1" d="M507.1,202.7h28.2l36.3-0.9l18.6-0.7"/>
	<path class="st1" d="M518,267.5l25.9,0.1l27.2-1.2l14.3-0.8l1.7,1.3l0.6,1.6l1.1,1.1l1.5,0.8"/>
	<path class="st1" d="M518,267.5l-1.8-4.4l0.7-2.2l-0.8-3.3l0.2-2.9L515,254l-0.4-6.1l-2.8-5l-0.2-3.7l-2.2-4.3l-1.3-3.7v-1.4
		l-0.6-1.7v-2.3l-0.5-0.9"/>
	<path class="st1" d="M507,224.9l-0.7-1.7l-0.3-1.3l-1.3-1.2l1-4.3l1.7-5.1l-0.7-2l-1.3-0.4l-0.4-1.6l1-0.5l0.1-1.1l-1.3-1.5
		l0.1-1.6l2.2,0.1"/>
	<path class="st1" d="M600.7,222.7l-1.3-2.8l-3.3-0.7l-2.7-1.5l-2-5.5l0.1-2.5l1.6-3.3l-0.6-1.1l-2.1-1.6l-0.2-2.6"/>
	<path class="st1" d="M222.3,51.2l-4.8,22l3.7,7.4l-1.6,4.8l3.6,4.8l1.9,0.7l3.9,8.3v2.1l2.3,3h0.9l1.4,2.1h3.2v1.6l-7.1,17
		l-0.5,4.1l1.4,0.5l1.6,2.6l2.8-1.4l3.6-2.4l1.9,1.9l0.5,2.5l-0.5,3.2l2.5,9.7l2.6,3.5l2.3,1.4l0.4,3v4.1l2.3,2.3l1.6-2.3l6.9,1.6
		l2.1-1.2l9,1.7l2.8-3.3l1.8-0.6l1.2,1.8l1.6,4.1l0.9,0.1"/>
	<path class="st1" d="M174.4,198.4l24.4,5.4l23.3,4.7"/>
	<path class="st1" d="M174.4,198.4l8.5-37.3l2.9-5.8l0.4-2.1l0.8-0.9l-0.9-2l-2.9-1.2l0.2-4.2l4-5.8l2.5-0.8l1.6-2.3l-0.1-1.6
		l1.8-1.6l3.2-5.5l4.2-4.8l-0.5-3.2l-3.5-3.1l-1.6-3.6"/>
	<path class="st1" d="M270,216.7l-47.9-8.2"/>
	<path class="st1" d="M208.1,48.2l-12.7,56.1l0.7,4l-1.1,4.3"/>
	<path class="st1" d="M278.5,161.9l-8.5,54.8"/>
	<path class="st1" d="M652.9,236.4l4.1,50.2l-1,5.2v2l2.4,3.5v0.7l-0.3,0.9l0.9,1.9l-0.3,2.4l-1.6,1.8l-1.3,4.2l-3.8,5.3l-0.1,7h-1
		l0.9,1.9"/>
	<path class="st1" d="M633.4,343.2l-0.3-1.8l4-3.7l6.9,3l1.5-0.3l0.4-2.4l-1.7-1.8l0.4-3.3l1-0.5l1.2,0.6l0.6-1.2l3.7-0.6l0.1-0.9
		l-1.5-2.2l-0.1-1.1l2.2-2.7v-0.9"/>
	<path class="st1" d="M633.4,343.2h-2.8l-1.4-1.5l-1.8-3.8V336l0.8-0.6l0.1-1.3l-1.7-1.9l-0.9-2.5l-2.7-4.1l-4.8-1.3l-7.4-7.1
		l-0.4-2.4l2.8-7.6l-0.4-1.9l1.2-1.1v-1.3l-2.8-1.5l-3-0.7l-3.4,1.2l-1.3-2.3l0.6-1.9l-0.7-2.4l-8.6-8.4l-2.2-1.5l-2.5-5.9l-1.2-5.4
		l1.4-3.7"/>
	<path class="st1" d="M600.7,222.7l45.9-2.8"/>
	<path class="st1" d="M651.8,323.4l1.1,0.8l0.6-1l-0.7-1.7l4.6-0.5l0.2,1.2l1.1,0.2l0.4-0.9l-0.6-1.3l0.3-0.8l1.3,0.8l1.7-0.4
		l1.7,0.6l3.4,2.1l1.8-2.8l3.5-2.2l3,3.3l1.6-2.1l0.3-2.7l3.8-2.3l0.2,1.3l1.9,1.2l3-0.2l1.2-0.7l0.1-3.4l2.5-3.7l4.6-4.4l-0.1-1.7
		l1.2-3.8l2.2,1l6.7-4.5l-0.4-1.7l-1.5-2.1l1-1.9"/>
	<path class="st1" d="M664.4,233.9l32.4-3.4l0.1,1.4"/>
	<path class="st1" d="M703.5,289.1l-6.6-57.2"/>
	<path class="st1" d="M537.8,347l-0.5-48.1l-3.2-0.7l-2.6-4.7L529,291l0.5-2.3l2.7-2.6l0.1-1.2l-1.5-2.1l-0.9,1l-2-0.6l-2.9-3"/>
	<path class="st1" d="M412.9,277l36,2l43.7,1.2H525"/>
	<path class="st1" d="M408.1,344l67.7,2.9l62,0.1"/>
	<path class="st1" d="M630.2,354.2l1-2.7l1.4,0.9l0.7-0.4l1.2-4.1l-1-1l1-2l0.2-0.9l-1.3-0.8 M627.6,354.5l-0.7-0.7l0.2-1h1.1
		l0.7,0.7l-0.3,1"/>
	<path class="st1" d="M703.5,289.1l1.3,0.5l2.2,0.1l1.9-0.8l2.9,1.2l2.2,3.4v1l4.1,0.7l2.3-0.2l1.9,2.1l2.2,0.2v-1l1.9-0.8l3,0.8
		l1.2,0.8l1.3-0.7h0.9l0.6-1.7l3.4-1.8l0.5,0.8l0.8,2.9l3.5,1.4l1.2,2.1"/>
	<path class="st1" d="M630.2,354.2l23.3-1.5l0.6-0.9l-1.2-3.2h3.7l0.7,0.6l22.6-2l2.6-0.8l17.4-1l5.2-0.8l20.5-1.4l5.6-1.4
		 M627.6,354.5h1"/>
	<path class="st1" d="M731.2,341.8l6.9-4.2l1-0.4l0.5-1.9l1.8-0.5l1.4-1.4l0.1-1.7l2.1-1.3l0.4-2.2l3-3l2.9-1l4.9-6.6"/>
	<path class="st1" d="M742.8,300.1l-0.1,1.1l0.6,1l-0.6,3.6l1.9,1.6l0.8,1.1l1,0.6l-0.1,0.9l4.4,5.6h1.4l1.5,1.8l1.2,0.3l1.4-0.1"/>
	<path class="st1" d="M602.5,433.6l-0.6,1.4l1.6,7.1l1.2,1l-0.5,1.7l2.4,2.5v3.3h-2l1.8,2.5l-6,8.4l-2.4,4.8l-1.7,11.9l36-2
		l-0.1,1.4l-1,1.4l-0.9,4.6l4.8,6.8l-0.3,1.3l1.2,1.8l0.6,0.7"/>
	<path class="st1" d="M550.2,434.9l0.5,19.9l0.7,3.4l2.6,2.8l0.7,5.4l3.8,4.6l0.8,4.3h1l-0.1,7.3l-3.3,6.4l1.3,2.3l-1.3,1.5l0.7,3
		l-0.1,4.3l-2.2,3.5l-0.1,0.8l-1.7,1.2l1,1.8l1.2,1.1"/>
	<path class="st1" d="M889.5,173.3l18.4-3.8l1-1.5l0.3-1.7l1.9-0.6l0.5-1.1l1.7-1.1l1.3,0.3"/>
	<path class="st1" d="M877.3,192l-0.7-1l0.5-15"/>
	<path class="st1" d="M904.2,186.2l6.5-2l0.7,2.6h0.8l0.6,2.2l2.6,1.3l1.3,1.1l1.4,3"/>
	<path class="st1" d="M877.1,176l12.4-2.7"/>
	<path class="st1" d="M790.9,262.6l60.5-11.8"/>
	<path class="st1" d="M856.4,290l-0.8,0.1 M868.8,285.8l-0.6,0.3 M866.9,286.3l-4.6,1.6l-0.7,0.8 M833.4,272.6l-0.6-0.6h-1l-0.6-0.1
		l-0.4-0.4l0.1-0.5l-1.7-0.6l-0.8,0.3l-1.2-0.1l-0.7-0.7l-0.5-0.2l-0.2-0.7l0.6-0.8v-0.9l-1.2-0.2l-1-0.9l-0.9,0.1l-1.6-0.3
		 M833.3,279.5l0.3-0.4l-0.7-1l1-0.1l1-0.9l0.4-1.8"/>
	<path class="st1" d="M790.9,262.6l1.7,11.4l1.8-1.6l0.9-1.6l3.1-3.9l2.2,0.3l2.6-3.8l1.9,1l3.3-0.4l1.7-2.9h1.3l0.9-1.4l1.4-0.3
		l2.2,1.6l2.6-0.4l-0.2,1l0.8,1.2h0.7l0.2,0.7l1,0.5l-0.2,1.6l0.9,0.4"/>
	<path class="st1" d="M915.4,159l-2.3-1.4l-0.8-2.2l-3.2-2l-0.6-4l-11.9-36.8"/>
	<path class="st1" d="M696.9,231.9l21.4-3.5"/>
	<path class="st1" d="M599.1,133l1.9,0.7l3,3.8l17,3.8l1.4,1l4,0.8l0.7,0.5l2.8-0.2l4.9,0.8l1.4,1.5l-1,1l0.8,0.8l3.8,0.7l1.2,1.2
		l0.1,4.4l-1.3,2.8l2,0.1l1-0.8l0.9,0.8l-1.1,3.1l1,1.6l1.2,0.3"/>
	<path class="st1" d="M495.8,82l2.4,7.3l-1.1,2.8l0.8,1.4l-0.3,5.1l-0.5,1.1l2.7,9.1l1.3,2.5l0.7,14l1,2.7l-0.4,5.8l2.9,7.4l0.3,5.8
		l-0.1,2.1"/>
	<path class="st1" d="M507.1,202.7l0.2-39.5l-1.5-1.9l-2.6-0.6l-0.4-1.8l-1.7-2.5l0.3-1.2l3.1-1.9l0.9-2l0.1-2.2"/>
	<path class="st1" d="M590.2,201.1l-1.1-4.5l-0.2-3l-2.2-3l-2.8-0.7l-5.2-3.6l-0.6-3.3l-6.3-3.1l-0.2-1.3h-3.3l-2.2-2.6l-2-1.3
		l0.7-5.1l-0.9-1.6l0.5-5.4l1-1.8l-0.3-2.7l-1.2-1.3l-1.8-0.3v-1.7l2.8-5.8l5.9-3.9l-0.4-13l0.9,0.4l0.6-0.5l0.1-1.1l0.9-0.6
		l1.4,1.2l0.7-0.1"/>
	<path class="st1" d="M525,280.2l-3.9-6.3l-2.1-3.7l0.3-1.4l-1.3-1.3"/>
	<path class="st1" d="M537.8,347l0.2,10.8"/>
	<path class="st1" d="M625.2,365.6l1-2l1.2-0.5v-0.7l-1.2-1.1l-0.6-1l1.7,0.2l0.8-0.7l-1.4-1.5l1.4-0.5l0.1-1l-0.6-1v-1.3
		 M628.6,354.5l0.8,0.7l0.8-1"/>
	<path class="st1" d="M616.1,388.4l38.3-2.6"/>
	<path class="st1" d="M396,77l-5.2,66.7"/>
	<path class="st1" d="M390.8,143.7l-2,20.7"/>
	<path class="st1" d="M388.8,164.4l-51-5.3l-57.3-7.9l-2,10.7"/>
	<path class="st1" d="M744.4,375.9l4.4-1.9l1.3-0.1l7.3-4.3l23.2-2.2l0.4,0.5l-0.2,1.4l0.7,0.3l1.2-1.5l3.3,3l0.1,2.6l19.7-2.8
		l24.5,17.1"/>
	<path class="st1" d="M764.6,337.7v5.2l-1.5-0.1l-1.4,1.2l-2.4,5.2l-2.6-1.1l-3.5,2.5l-0.7,2.1l-1.5,1.2l-0.8-0.8l-0.1-1.5l-0.8-0.2
		l-4,3.3l-0.6,3.4l-4.7,2.4l-0.5,1.2l-3.2,2.6l-3.6,0.5l-4.6,3l-0.8,4.1l-1.3,0.9l-1.5-0.1l-1.4,1.3l-0.1,4.9"/>
	<path class="st1" d="M764.6,337.7l29.4-3.5l39.4-7.3l29.1-6.1"/>
	<path class="st1" d="M390.8,143.7l39.2,2.9l46,2.1l29.5,0.4"/>
	<path class="st1" d="M384.9,208.3l51.1,3.5l38,1.6l3.4,3.2l1.7,0.2l2.1,2l1.8-0.1l1.8-2l1.5,0.6l1-0.7l0.7,0.5l0.9-0.4l0.7,0.4
		l0.9-0.4l1,0.5l1.4-0.6l2,0.6l0.6,1.1l6.1,2.2l1.2,1.3l0.9,2.6l1.8,0.7l1.5-0.2"/>
	<path class="st1" d="M381.2,252.5l3.7-44.2"/>
	<path class="st1" d="M891.4,120.8l1.2,2.3l-1.1,3.5l2.1,2.8l-0.4,1.7l0.1,1.3l-1.1,2.1l-1.4,0.4l-0.6,1.3l-2.1,1l-0.7,1.5l1.4,3.4
		l-0.5,2.5l0.5,1.5l-1,1.9l0.4,1.9l-1.3,1.9l0.2,2.2l-0.7,1.1l0.7,4.5l0.7,1.5l-0.5,2.6l0.9,1.8L888,168l-0.5,1.3l-0.1,1.4l2.1,2.6"
		/>
	<path class="st1" d="M861.4,211.2l14.6,4.9l-0.4,5.9"/>
	<path class="st1" d="M857.3,247.9l1.4-1.7l1.6-0.6l1.8-3l1.6-2.3l3.3-2.6l-4.2-3.2l-2.1-1.1l-1-2.8l-2.7-0.9l-0.5-3.6l1-1l0.7-2
		l-1.5-1.8l3-5.4l-0.1-2.2l1.8-2.5"/>
	<path class="st1" d="M391.6,343l-0.6,10.6"/>
	<path class="st1" d="M317.8,451.9l-2-2.2l0.3-3l34.4,3.6l31.8,2.6l7.9-99.3h0.8"/>
	<path class="st1" d="M127.4,187.2l47,11.2"/>
	<path class="st1" d="M222.1,208.5l-21,109"/>
	<path class="st1" d="M861.4,211.2l-1.6-1.1l-1.9,0.3l-3-2.2l-3-5.8h-2l-0.4-1.5l-1.7-1.1l-70.5,13.9l-0.8-6"/>
	<path class="st1" d="M877.1,176l-1.1-1l0.5-2l-3-14.2l-1.9-1.5l-0.9,1.6l-0.9-2.2l0.8-1.8l-3.1-6.7l0.3-3.8l0.4-1l-0.6-2l0.4-2.2
		l-2.2-2.3l-0.5-3.2l0.4-1.5l-1.4-0.9l0.6-1.9l-0.8-1.7"/>
	<path class="st1" d="M770.3,245.8l-4.9-29.9"/>
	<path class="st1" d="M742.8,300.1l3.2-1.4h1.5l0.4-3.5l1.5-0.8l-1.3-3.6l1.1-1.3l0.3-2.2l1-2.3l1.6,0.5l0.6,2.1l1-0.5l0.7-0.8
		l1-0.2v-1.9l-1.4-1.1l1-0.5l-0.1-2.1l1.3-2.2h1.3l0.3-1.2l1.5-1.8l1.3,1.2l1.8-1.7h0.6l1.8-2l2-3.3l1.1-0.5l0.4-2.2l-0.5-1.1l1-3.6
		l0.1-5.4l1.1-3.4l-0.6-2l0.1-2.2l-1.4-2.1l2.2-1.2"/>
	<path class="st1" d="M391,353.6l52.6,3.2l-1.4,42.7l2.7,1.3l2.5,3l1.5,0.3l1.1-1l1.2,0.4l1.4,1l1.1-1.5l2.3,1.7l0.5,2.9l1.2,0.7
		l2.3-0.1l3.5,1.9l2-0.1l1.4-0.4l2.3,2.2l2-2.3l3.5,1.1l1.9,3l2.3-0.1l-0.7,2.1l2.3,1.1l3-2.6l2.6,1.7l1.3-0.5l0.1,1.5l1.7,1.2
		l2.3-2.5l1.2,0.7l-0.3,2l1,1.8l1.2-0.8l2.5-4.2l1.8,2l2,0.5l2.1-0.7l2,1.8l1.2-0.1l1.3,1.2l3.6-0.9l0.6-1.7l3.7-0.3l1.6,0.7l5-2.5
		l0.6,1.5l5.1-0.3l0.5-1.6l2.2,0.9l4.6,3.8l6.4,1.9"/>
	<path class="st1" d="M195,112.6l-30.3-7.3l-2.8,1l-5.4-0.9l-1.8-0.9l-1.5,1.2l-3.3-0.4l-4.5,0.5l-0.9,0.7l-4.2-0.4l-0.8-1.6
		l-1.2-0.2l-4.4,1.3l-1.6-1.1l-2.2,0.8l-0.2-1.8l-2.3-1.2l-1.5-0.2l-1-1.1l-3,0.3l-1.2-0.8h-1.2l-1.2,0.9l-5.5,0.7l-6.6-4.2l1.1-5.6
		l-0.4-4.1l-3.2-3.7l-3.7,0.1l-0.4-1.1l0.4-1.2l-0.7-0.8l-1,0.1"/>
	<path class="st1" d="M770.3,245.8l3.2,19.7l17.4-2.9"/>
	<path class="st1" d="M384.9,208.3l3.9-43.9"/>
	<path class="st1" d="M731.2,341.8l28.9-3.3l0.2-1l4.6-0.5l-0.3,0.7"/>
	<path class="st1" d="M270,216.7l-3.3,21.9l32.1,4.8"/>
	<path class="st1" d="M756.2,317.6l0.7,0.6l-0.8,1.2l1.5,0.7l0.1,1.5l4.4,2.3l2.3-0.1l1.9-1.8l0.8-1.7l3,1.8l5.5-2.4l0.5-0.9
		l-0.8-0.5l0.6-1.4l1.5,1l4.3-3.1l0.7,1.1l2.3-2l-0.1-1.4l1.5-1.9l-1.5-1.2l1-3.3l3.7-6.3l-0.4-1.9l2.1-2.2l-0.4-1.5l1.4-1.7
		l0.1-4.7l2.3,0.7l1.3,1.9l2.8,0.5l1.3-1.6l2.3-8.5l2.4,1.1l1-2.5l0.9-0.8l1.4-1.8l0.9-0.8l0.5-2.1l1.2-0.8l-0.1-2.9l0.8-2.3
		l-0.9-1.6l0.2-0.9l10,5.2l0.5-2.3l0.4-1.6l0.4-0.7"/>
</g>
<circle class="st2" cx="835.1" cy="272.8" r="5"/>
<g>
	<path class="st3" d="M71.5,271.2c4.6-4.6,4.6-12.1,0-16.7c-2.2-2.2-5.2-3.5-8.4-3.5c-3.2,0-6.1,1.2-8.4,3.5
		c-2.2,2.2-3.5,5.2-3.5,8.4s1.2,6.1,3.5,8.4c2.3,2.3,5.3,3.5,8.4,3.5C66.2,274.6,69.2,273.5,71.5,271.2L71.5,271.2z M57.3,257
		c1.6-1.6,3.6-2.4,5.9-2.4c1.6,0,3,0.4,4.3,1.2l-11.4,11.4c-0.8-1.3-1.2-2.8-1.2-4.3C54.9,260.6,55.8,258.5,57.3,257z M69,268.7
		c-2.8,2.8-7,3.2-10.2,1.2l11.4-11.4c0.8,1.3,1.2,2.8,1.2,4.3C71.5,265,70.6,267.1,69,268.7z"/>
	<polygon class="st3" points="69.4,245.1 69.4,248.6 77.4,248.6 77.4,256.7 81,256.7 81,245.1 	"/>
	<polygon class="st3" points="77.4,277 69.4,277 69.4,280.6 81,280.6 81,269 77.4,269 	"/>
	<polygon class="st3" points="49,269 45.4,269 45.4,280.6 57,280.6 57,277 49,277 	"/>
	<polygon class="st3" points="49,248.6 57,248.6 57,245.1 45.4,245.1 45.4,256.7 49,256.7 	"/>
</g>
<g>
	<path class="st3" d="M114.3,114.8c4.6-4.6,4.6-12.1,0-16.7c-2.2-2.2-5.2-3.5-8.4-3.5c-3.2,0-6.1,1.2-8.4,3.5
		c-2.2,2.2-3.5,5.2-3.5,8.4s1.2,6.1,3.5,8.4c2.3,2.3,5.3,3.5,8.4,3.5C109,118.3,112,117.1,114.3,114.8L114.3,114.8z M100.1,100.6
		c1.6-1.6,3.6-2.4,5.9-2.4c1.6,0,3,0.4,4.3,1.2l-11.4,11.4c-0.8-1.3-1.2-2.8-1.2-4.3C97.7,104.3,98.6,102.2,100.1,100.6z
		 M111.8,112.3c-2.8,2.8-7,3.2-10.2,1.2l11.4-11.4c0.8,1.3,1.2,2.8,1.2,4.3C114.3,108.7,113.4,110.8,111.8,112.3z"/>
	<polygon class="st3" points="112.1,88.7 112.1,92.2 120.2,92.2 120.2,100.3 123.7,100.3 123.7,88.7 	"/>
	<polygon class="st3" points="120.2,120.7 112.1,120.7 112.1,124.2 123.7,124.2 123.7,112.6 120.2,112.6 	"/>
	<polygon class="st3" points="91.8,112.6 88.2,112.6 88.2,124.2 99.8,124.2 99.8,120.7 91.8,120.7 	"/>
	<polygon class="st3" points="91.8,92.2 99.8,92.2 99.8,88.7 88.2,88.7 88.2,100.3 91.8,100.3 	"/>
</g>
<g>
	<path class="st3" d="M136,409.3c4.6-4.6,4.6-12.1,0-16.7c-2.2-2.2-5.2-3.5-8.4-3.5c-3.2,0-6.1,1.2-8.4,3.5
		c-2.2,2.2-3.5,5.2-3.5,8.4s1.2,6.1,3.5,8.4c2.3,2.3,5.3,3.5,8.4,3.5C130.7,412.7,133.7,411.6,136,409.3L136,409.3z M121.8,395.1
		c1.6-1.6,3.6-2.4,5.9-2.4c1.6,0,3,0.4,4.3,1.2l-11.4,11.4c-0.8-1.3-1.2-2.8-1.2-4.3C119.4,398.7,120.2,396.6,121.8,395.1z
		 M133.5,406.8c-2.8,2.8-7,3.2-10.2,1.2l11.4-11.4c0.8,1.3,1.2,2.8,1.2,4.3C135.9,403.1,135,405.2,133.5,406.8z"/>
	<polygon class="st3" points="133.8,383.2 133.8,386.7 141.8,386.7 141.8,394.8 145.4,394.8 145.4,383.2 	"/>
	<polygon class="st3" points="141.8,415.2 133.8,415.2 133.8,418.7 145.4,418.7 145.4,407.1 141.8,407.1 	"/>
	<polygon class="st3" points="113.4,407.1 109.9,407.1 109.9,418.7 121.5,418.7 121.5,415.2 113.4,415.2 	"/>
	<polygon class="st3" points="113.4,386.7 121.5,386.7 121.5,383.2 109.9,383.2 109.9,394.8 113.4,394.8 	"/>
</g>
<g>
	<path class="st3" d="M104.6,372.1c4.6-4.6,4.6-12.1,0-16.7c-2.2-2.2-5.2-3.5-8.4-3.5c-3.2,0-6.1,1.2-8.4,3.5
		c-2.2,2.2-3.5,5.2-3.5,8.4s1.2,6.1,3.5,8.4c2.3,2.3,5.3,3.5,8.4,3.5C99.3,375.5,102.3,374.4,104.6,372.1L104.6,372.1z M90.4,357.9
		c1.6-1.6,3.6-2.4,5.9-2.4c1.6,0,3,0.4,4.3,1.2L89.2,368c-0.8-1.3-1.2-2.8-1.2-4.3C88,361.5,88.8,359.4,90.4,357.9z M102.1,369.6
		c-2.8,2.8-7,3.2-10.2,1.2l11.4-11.4c0.8,1.3,1.2,2.8,1.2,4.3C104.5,365.9,103.6,368,102.1,369.6z"/>
	<polygon class="st3" points="102.4,346 102.4,349.5 110.4,349.5 110.4,357.6 114,357.6 114,346 	"/>
	<polygon class="st3" points="110.4,377.9 102.4,377.9 102.4,381.5 114,381.5 114,369.9 110.4,369.9 	"/>
	<polygon class="st3" points="82,369.9 78.5,369.9 78.5,381.5 90.1,381.5 90.1,377.9 82,377.9 	"/>
	<polygon class="st3" points="82,349.5 90.1,349.5 90.1,346 78.5,346 78.5,357.6 82,357.6 	"/>
</g>
<g>
	<path class="st3" d="M802.8,448.4c4.6-4.6,4.6-12.1,0-16.7c-2.2-2.2-5.2-3.5-8.4-3.5c-3.2,0-6.1,1.2-8.4,3.5
		c-2.2,2.2-3.5,5.2-3.5,8.4s1.2,6.1,3.5,8.4c2.3,2.3,5.3,3.5,8.4,3.5C797.5,451.9,800.5,450.7,802.8,448.4L802.8,448.4z
		 M788.6,434.2c1.6-1.6,3.6-2.4,5.9-2.4c1.6,0,3,0.4,4.3,1.2l-11.4,11.4c-0.8-1.3-1.2-2.8-1.2-4.3
		C786.2,437.9,787,435.8,788.6,434.2z M800.3,445.9c-2.8,2.8-7,3.2-10.2,1.2l11.4-11.4c0.8,1.3,1.2,2.8,1.2,4.3
		C802.7,442.3,801.8,444.4,800.3,445.9z"/>
	<polygon class="st3" points="800.6,422.3 800.6,425.9 808.6,425.9 808.6,433.9 812.2,433.9 812.2,422.3 	"/>
	<polygon class="st3" points="808.6,454.3 800.6,454.3 800.6,457.8 812.2,457.8 812.2,446.2 808.6,446.2 	"/>
	<polygon class="st3" points="780.2,446.2 776.7,446.2 776.7,457.8 788.3,457.8 788.3,454.3 780.2,454.3 	"/>
	<polygon class="st3" points="780.2,425.9 788.3,425.9 788.3,422.3 776.7,422.3 776.7,433.9 780.2,433.9 	"/>
</g>
<g>
	<path class="st3" d="M734.3,421.1c4.6-4.6,4.6-12.1,0-16.7c-2.2-2.2-5.2-3.5-8.4-3.5c-3.2,0-6.1,1.2-8.4,3.5
		c-2.2,2.2-3.5,5.2-3.5,8.4s1.2,6.1,3.5,8.4c2.3,2.3,5.3,3.5,8.4,3.5C728.9,424.5,732,423.4,734.3,421.1L734.3,421.1z M720.1,406.9
		c1.6-1.6,3.6-2.4,5.9-2.4c1.6,0,3,0.4,4.3,1.2l-11.4,11.4c-0.8-1.3-1.2-2.8-1.2-4.3C717.6,410.5,718.5,408.5,720.1,406.9z
		 M731.8,418.6c-2.8,2.8-7,3.2-10.2,1.2l11.4-11.4c0.8,1.3,1.2,2.8,1.2,4.3C734.2,415,733.3,417,731.8,418.6z"/>
	<polygon class="st3" points="732.1,395 732.1,398.5 740.1,398.5 740.1,406.6 743.7,406.6 743.7,395 	"/>
	<polygon class="st3" points="740.1,427 732.1,427 732.1,430.5 743.7,430.5 743.7,418.9 740.1,418.9 	"/>
	<polygon class="st3" points="711.7,418.9 708.2,418.9 708.2,430.5 719.7,430.5 719.7,427 711.7,427 	"/>
	<polygon class="st3" points="711.7,398.5 719.7,398.5 719.7,395 708.2,395 708.2,406.6 711.7,406.6 	"/>
</g>
<g>
	<path class="st3" d="M657.5,239.2c4.6-4.6,4.6-12.1,0-16.7c-2.2-2.2-5.2-3.5-8.4-3.5c-3.2,0-6.1,1.2-8.4,3.5
		c-2.2,2.2-3.5,5.2-3.5,8.4c0,3.2,1.2,6.1,3.5,8.4c2.3,2.3,5.3,3.5,8.4,3.5C652.2,242.7,655.2,241.5,657.5,239.2L657.5,239.2z
		 M643.3,225c1.6-1.6,3.6-2.4,5.9-2.4c1.6,0,3,0.4,4.3,1.2l-11.4,11.4c-0.8-1.3-1.2-2.8-1.2-4.3C640.9,228.7,641.7,226.6,643.3,225z
		 M655,236.7c-2.8,2.8-7,3.2-10.2,1.2l11.4-11.4c0.8,1.3,1.2,2.8,1.2,4.3C657.4,233.1,656.5,235.2,655,236.7z"/>
	<polygon class="st3" points="655.3,213.1 655.3,216.7 663.3,216.7 663.3,224.7 666.9,224.7 666.9,213.1 	"/>
	<polygon class="st3" points="663.3,245.1 655.3,245.1 655.3,248.6 666.9,248.6 666.9,237 663.3,237 	"/>
	<polygon class="st3" points="634.9,237 631.4,237 631.4,248.6 643,248.6 643,245.1 634.9,245.1 	"/>
	<polygon class="st3" points="634.9,216.7 643,216.7 643,213.1 631.4,213.1 631.4,224.7 634.9,224.7 	"/>
</g>
<g>
	<path class="st3" d="M647.2,206.8c4.6-4.6,4.6-12.1,0-16.7c-2.2-2.2-5.2-3.5-8.4-3.5c-3.2,0-6.1,1.2-8.4,3.5
		c-2.2,2.2-3.5,5.2-3.5,8.4c0,3.2,1.2,6.1,3.5,8.4c2.3,2.3,5.3,3.5,8.4,3.5C641.9,210.3,644.9,209.1,647.2,206.8L647.2,206.8z
		 M633,192.6c1.6-1.6,3.6-2.4,5.9-2.4c1.6,0,3,0.4,4.3,1.2l-11.4,11.4c-0.8-1.3-1.2-2.8-1.2-4.3C630.6,196.3,631.5,194.2,633,192.6z
		 M644.7,204.3c-2.8,2.8-7,3.2-10.2,1.2l11.4-11.4c0.8,1.3,1.2,2.8,1.2,4.3C647.2,200.7,646.3,202.8,644.7,204.3z"/>
	<polygon class="st3" points="645,180.7 645,184.2 653.1,184.2 653.1,192.3 656.6,192.3 656.6,180.7 	"/>
	<polygon class="st3" points="653.1,212.7 645,212.7 645,216.2 656.6,216.2 656.6,204.6 653.1,204.6 	"/>
	<polygon class="st3" points="624.7,204.6 621.1,204.6 621.1,216.2 632.7,216.2 632.7,212.7 624.7,212.7 	"/>
	<polygon class="st3" points="624.7,184.2 632.7,184.2 632.7,180.7 621.1,180.7 621.1,192.3 624.7,192.3 	"/>
</g>
<g>
	<path class="st3" d="M617.3,310.2c4.6-4.6,4.6-12.1,0-16.7c-2.2-2.2-5.2-3.5-8.4-3.5c-3.2,0-6.1,1.2-8.4,3.5
		c-2.2,2.2-3.5,5.2-3.5,8.4s1.2,6.1,3.5,8.4c2.3,2.3,5.3,3.5,8.4,3.5C612,313.6,615,312.5,617.3,310.2L617.3,310.2z M603.1,296
		c1.6-1.6,3.6-2.4,5.9-2.4c1.6,0,3,0.4,4.3,1.2l-11.4,11.4c-0.8-1.3-1.2-2.8-1.2-4.3C600.7,299.6,601.6,297.5,603.1,296z
		 M614.8,307.7c-2.8,2.8-7,3.2-10.2,1.2l11.4-11.4c0.8,1.3,1.2,2.8,1.2,4.3C617.3,304,616.4,306.1,614.8,307.7z"/>
	<polygon class="st3" points="615.1,284.1 615.1,287.6 623.2,287.6 623.2,295.7 626.7,295.7 626.7,284.1 	"/>
	<polygon class="st3" points="623.2,316 615.1,316 615.1,319.6 626.7,319.6 626.7,308 623.2,308 	"/>
	<polygon class="st3" points="594.8,308 591.2,308 591.2,319.6 602.8,319.6 602.8,316 594.8,316 	"/>
	<polygon class="st3" points="594.8,287.6 602.8,287.6 602.8,284.1 591.2,284.1 591.2,295.7 594.8,295.7 	"/>
</g>
<g>
	<path class="st3" d="M329.9,380.3c4.6-4.6,4.6-12.1,0-16.7c-2.2-2.2-5.2-3.5-8.4-3.5c-3.2,0-6.1,1.2-8.4,3.5
		c-2.2,2.2-3.5,5.2-3.5,8.4s1.2,6.1,3.5,8.4c2.3,2.3,5.3,3.5,8.4,3.5C324.6,383.8,327.6,382.6,329.9,380.3L329.9,380.3z
		 M315.7,366.1c1.6-1.6,3.6-2.4,5.9-2.4c1.6,0,3,0.4,4.3,1.2l-11.4,11.4c-0.8-1.3-1.2-2.8-1.2-4.3
		C313.3,369.8,314.1,367.7,315.7,366.1z M327.4,377.8c-2.8,2.8-7,3.2-10.2,1.2l11.4-11.4c0.8,1.3,1.2,2.8,1.2,4.3
		C329.8,374.2,328.9,376.3,327.4,377.8z"/>
	<polygon class="st3" points="327.7,354.2 327.7,357.8 335.7,357.8 335.7,365.8 339.3,365.8 339.3,354.2 	"/>
	<polygon class="st3" points="335.7,386.2 327.7,386.2 327.7,389.7 339.3,389.7 339.3,378.1 335.7,378.1 	"/>
	<polygon class="st3" points="307.3,378.1 303.8,378.1 303.8,389.7 315.4,389.7 315.4,386.2 307.3,386.2 	"/>
	<polygon class="st3" points="307.3,357.8 315.4,357.8 315.4,354.2 303.8,354.2 303.8,365.8 307.3,365.8 	"/>
</g>
<g>
	<path class="st3" d="M736.2,217.6c4.6-4.6,4.6-12.1,0-16.7c-2.2-2.2-5.2-3.5-8.4-3.5c-3.2,0-6.1,1.2-8.4,3.5
		c-2.2,2.2-3.5,5.2-3.5,8.4s1.2,6.1,3.5,8.4c2.3,2.3,5.3,3.5,8.4,3.5C730.9,221.1,733.9,219.9,736.2,217.6L736.2,217.6z M722,203.4
		c1.6-1.6,3.6-2.4,5.9-2.4c1.6,0,3,0.4,4.3,1.2l-11.4,11.4c-0.8-1.3-1.2-2.8-1.2-4.3C719.6,207.1,720.5,205,722,203.4z M733.7,215.1
		c-2.8,2.8-7,3.2-10.2,1.2l11.4-11.4c0.8,1.3,1.2,2.8,1.2,4.3C736.2,211.5,735.3,213.6,733.7,215.1z"/>
	<polygon class="st3" points="734,191.5 734,195.1 742.1,195.1 742.1,203.1 745.6,203.1 745.6,191.5 	"/>
	<polygon class="st3" points="742.1,223.5 734,223.5 734,227 745.6,227 745.6,215.4 742.1,215.4 	"/>
	<polygon class="st3" points="713.7,215.4 710.1,215.4 710.1,227 721.7,227 721.7,223.5 713.7,223.5 	"/>
	<polygon class="st3" points="713.7,195.1 721.7,195.1 721.7,191.5 710.1,191.5 710.1,203.1 713.7,203.1 	"/>
</g>
<g>
	<path class="st3" d="M558.6,174.1c4.6-4.6,4.6-12.1,0-16.7c-2.2-2.2-5.2-3.5-8.4-3.5c-3.2,0-6.1,1.2-8.4,3.5
		c-2.2,2.2-3.5,5.2-3.5,8.4s1.2,6.1,3.5,8.4c2.3,2.3,5.3,3.5,8.4,3.5C553.3,177.5,556.3,176.4,558.6,174.1L558.6,174.1z
		 M544.4,159.9c1.6-1.6,3.6-2.4,5.9-2.4c1.6,0,3,0.4,4.3,1.2l-11.4,11.4c-0.8-1.3-1.2-2.8-1.2-4.3
		C542,163.5,542.8,161.4,544.4,159.9z M556.1,171.6c-2.8,2.8-7,3.2-10.2,1.2l11.4-11.4c0.8,1.3,1.2,2.8,1.2,4.3
		C558.5,167.9,557.6,170,556.1,171.6z"/>
	<polygon class="st3" points="556.4,148 556.4,151.5 564.4,151.5 564.4,159.6 568,159.6 568,148 	"/>
	<polygon class="st3" points="564.4,180 556.4,180 556.4,183.5 568,183.5 568,171.9 564.4,171.9 	"/>
	<polygon class="st3" points="536,171.9 532.5,171.9 532.5,183.5 544.1,183.5 544.1,180 536,180 	"/>
	<polygon class="st3" points="536,151.5 544.1,151.5 544.1,148 532.5,148 532.5,159.6 536,159.6 	"/>
</g>
<g>
	<path class="st3" d="M696.1,322c4.6-4.6,4.6-12.1,0-16.7c-2.2-2.2-5.2-3.5-8.4-3.5c-3.2,0-6.1,1.2-8.4,3.5
		c-2.2,2.2-3.5,5.2-3.5,8.4s1.2,6.1,3.5,8.4c2.3,2.3,5.3,3.5,8.4,3.5C690.8,325.4,693.8,324.3,696.1,322L696.1,322z M681.9,307.8
		c1.6-1.6,3.6-2.4,5.9-2.4c1.6,0,3,0.4,4.3,1.2L680.7,318c-0.8-1.3-1.2-2.8-1.2-4.3C679.5,311.4,680.4,309.3,681.9,307.8z
		 M693.6,319.5c-2.8,2.8-7,3.2-10.2,1.2l11.4-11.4c0.8,1.3,1.2,2.8,1.2,4.3C696.1,315.8,695.2,317.9,693.6,319.5z"/>
	<polygon class="st3" points="693.9,295.9 693.9,299.4 702,299.4 702,307.5 705.5,307.5 705.5,295.9 	"/>
	<polygon class="st3" points="702,327.9 693.9,327.9 693.9,331.4 705.5,331.4 705.5,319.8 702,319.8 	"/>
	<polygon class="st3" points="673.6,319.8 670,319.8 670,331.4 681.6,331.4 681.6,327.9 673.6,327.9 	"/>
	<polygon class="st3" points="673.6,299.4 681.6,299.4 681.6,295.9 670,295.9 670,307.5 673.6,307.5 	"/>
</g>
<g>
	<path class="st3" d="M702.3,370.1c4.6-4.6,4.6-12.1,0-16.7c-2.2-2.2-5.2-3.5-8.4-3.5c-3.2,0-6.1,1.2-8.4,3.5
		c-2.2,2.2-3.5,5.2-3.5,8.4s1.2,6.1,3.5,8.4c2.3,2.3,5.3,3.5,8.4,3.5C697,373.6,700,372.4,702.3,370.1L702.3,370.1z M688.1,355.9
		c1.6-1.6,3.6-2.4,5.9-2.4c1.6,0,3,0.4,4.3,1.2l-11.4,11.4c-0.8-1.3-1.2-2.8-1.2-4.3C685.7,359.5,686.5,357.5,688.1,355.9z
		 M699.8,367.6c-2.8,2.8-7,3.2-10.2,1.2l11.4-11.4c0.8,1.3,1.2,2.8,1.2,4.3C702.2,364,701.4,366,699.8,367.6z"/>
	<polygon class="st3" points="700.1,344 700.1,347.5 708.2,347.5 708.2,355.6 711.7,355.6 711.7,344 	"/>
	<polygon class="st3" points="708.2,376 700.1,376 700.1,379.5 711.7,379.5 711.7,367.9 708.2,367.9 	"/>
	<polygon class="st3" points="679.7,367.9 676.2,367.9 676.2,379.5 687.8,379.5 687.8,376 679.7,376 	"/>
	<polygon class="st3" points="679.7,347.5 687.8,347.5 687.8,344 676.2,344 676.2,355.6 679.7,355.6 	"/>
</g>
<g>
	<path class="st3" d="M827.3,351.4c4.6-4.6,4.6-12.1,0-16.7c-2.2-2.2-5.2-3.5-8.4-3.5c-3.2,0-6.1,1.2-8.4,3.5
		c-2.2,2.2-3.5,5.2-3.5,8.4s1.2,6.1,3.5,8.4c2.3,2.3,5.3,3.5,8.4,3.5C822,354.8,825,353.7,827.3,351.4L827.3,351.4z M813.1,337.2
		c1.6-1.6,3.6-2.4,5.9-2.4c1.6,0,3,0.4,4.3,1.2l-11.4,11.4c-0.8-1.3-1.2-2.8-1.2-4.3C810.7,340.8,811.6,338.7,813.1,337.2z
		 M824.8,348.9c-2.8,2.8-7,3.2-10.2,1.2l11.4-11.4c0.8,1.3,1.2,2.8,1.2,4.3C827.3,345.2,826.4,347.3,824.8,348.9z"/>
	<polygon class="st3" points="825.1,325.3 825.1,328.8 833.2,328.8 833.2,336.9 836.7,336.9 836.7,325.3 	"/>
	<polygon class="st3" points="833.2,357.3 825.1,357.3 825.1,360.8 836.7,360.8 836.7,349.2 833.2,349.2 	"/>
	<polygon class="st3" points="804.8,349.2 801.2,349.2 801.2,360.8 812.8,360.8 812.8,357.3 804.8,357.3 	"/>
	<polygon class="st3" points="804.8,328.8 812.8,328.8 812.8,325.3 801.2,325.3 801.2,336.9 804.8,336.9 	"/>
</g>
<g>
	<path class="st3" d="M934.8,182.9c4.6-4.6,4.6-12.1,0-16.7c-2.2-2.2-5.2-3.5-8.4-3.5c-3.2,0-6.1,1.2-8.4,3.5
		c-2.2,2.2-3.5,5.2-3.5,8.4s1.2,6.1,3.5,8.4c2.3,2.3,5.3,3.5,8.4,3.5C929.5,186.4,932.5,185.2,934.8,182.9L934.8,182.9z
		 M920.6,168.7c1.6-1.6,3.6-2.4,5.9-2.4c1.6,0,3,0.4,4.3,1.2l-11.4,11.4c-0.8-1.3-1.2-2.8-1.2-4.3
		C918.2,172.4,919,170.3,920.6,168.7z M932.3,180.4c-2.8,2.8-7,3.2-10.2,1.2l11.4-11.4c0.8,1.3,1.2,2.8,1.2,4.3
		C934.7,176.8,933.9,178.9,932.3,180.4z"/>
	<polygon class="st3" points="932.6,156.8 932.6,160.4 940.7,160.4 940.7,168.4 944.2,168.4 944.2,156.8 	"/>
	<polygon class="st3" points="940.7,188.8 932.6,188.8 932.6,192.3 944.2,192.3 944.2,180.8 940.7,180.8 	"/>
	<polygon class="st3" points="912.2,180.8 908.7,180.8 908.7,192.3 920.3,192.3 920.3,188.8 912.2,188.8 	"/>
	<polygon class="st3" points="912.2,160.4 920.3,160.4 920.3,156.8 908.7,156.8 908.7,168.4 912.2,168.4 	"/>
</g>
<g>
	<path class="st3" d="M921.8,176.8c4.6-4.6,4.6-12.1,0-16.7c-2.2-2.2-5.2-3.5-8.4-3.5c-3.2,0-6.1,1.2-8.4,3.5
		c-2.2,2.2-3.5,5.2-3.5,8.4c0,3.2,1.2,6.1,3.5,8.4c2.3,2.3,5.3,3.5,8.4,3.5C916.5,180.2,919.5,179.1,921.8,176.8L921.8,176.8z
		 M907.6,162.6c1.6-1.6,3.6-2.4,5.9-2.4c1.6,0,3,0.4,4.3,1.2l-11.4,11.4c-0.8-1.3-1.2-2.8-1.2-4.3
		C905.2,166.2,906,164.1,907.6,162.6z M919.3,174.3c-2.8,2.8-7,3.2-10.2,1.2l11.4-11.4c0.8,1.3,1.2,2.8,1.2,4.3
		C921.7,170.6,920.8,172.7,919.3,174.3z"/>
	<polygon class="st3" points="919.6,150.7 919.6,154.2 927.6,154.2 927.6,162.3 931.2,162.3 931.2,150.7 	"/>
	<polygon class="st3" points="927.6,182.7 919.6,182.7 919.6,186.2 931.2,186.2 931.2,174.6 927.6,174.6 	"/>
	<polygon class="st3" points="899.2,174.6 895.7,174.6 895.7,186.2 907.3,186.2 907.3,182.7 899.2,182.7 	"/>
	<polygon class="st3" points="899.2,154.2 907.3,154.2 907.3,150.7 895.7,150.7 895.7,162.3 899.2,162.3 	"/>
</g>
<g>
	<path class="st3" d="M898.5,228.7c4.6-4.6,4.6-12.1,0-16.7c-2.2-2.2-5.2-3.5-8.4-3.5c-3.2,0-6.1,1.2-8.4,3.5
		c-2.2,2.2-3.5,5.2-3.5,8.4c0,3.2,1.2,6.1,3.5,8.4c2.3,2.3,5.3,3.5,8.4,3.5C893.2,232.2,896.2,231,898.5,228.7L898.5,228.7z
		 M884.3,214.5c1.6-1.6,3.6-2.4,5.9-2.4c1.6,0,3,0.4,4.3,1.2l-11.4,11.4c-0.8-1.3-1.2-2.8-1.2-4.3
		C881.9,218.2,882.8,216.1,884.3,214.5z M896,226.2c-2.8,2.8-7,3.2-10.2,1.2l11.4-11.4c0.8,1.3,1.2,2.8,1.2,4.3
		C898.5,222.6,897.6,224.7,896,226.2z"/>
	<polygon class="st3" points="896.3,202.6 896.3,206.1 904.4,206.1 904.4,214.2 907.9,214.2 907.9,202.6 	"/>
	<polygon class="st3" points="904.4,234.6 896.3,234.6 896.3,238.1 907.9,238.1 907.9,226.5 904.4,226.5 	"/>
	<polygon class="st3" points="876,226.5 872.4,226.5 872.4,238.1 884,238.1 884,234.6 876,234.6 	"/>
	<polygon class="st3" points="876,206.1 884,206.1 884,202.6 872.4,202.6 872.4,214.2 876,214.2 	"/>
</g>
<path class="st0" d="M926.6,568.3L926.6,568.3L926.6,568.3L926.6,568.3L926.6,568.3L926.6,568.3L926.6,568.3l-0.1,0l0,0h0l0,0h0v0
	l0,0l0,0h0l0,0l0,0l0,0l0,0v0l0,0l0,0h0l0,0l0,0l0,0l0,0l0,0h0l0,0h0l0,0h0l0,0l0,0l0,0l0,0v0l0,0l0,0l0,0l0,0l0,0l0,0l0,0l0,0l0,0
	v0l0,0l0,0l0,0v0l0,0l0,0h0v0l0,0l0,0l0,0v0l0,0v0l0,0l0,0l-0.1,0v0l0,0v0l0,0v0l-0.1,0l0,0l0,0l0,0l0,0v0h0l0,0l0,0v0l0,0l0,0v0
	l-0.1,0v0l0,0v0l0,0l0,0l0,0v0h0v0l-0.1,0v0l0,0v0l0,0v0h0l0,0l0,0v0l0,0v0l0,0l0,0l0,0l0,0l0,0l0,0l0,0l0,0l0,0v0l0,0v0l0,0l0,0
	l0,0v0l0,0v0l0,0v0l0,0l0,0l0,0l0,0l0,0v0l0,0v0l0,0v0l0,0v0l0,0v0l0,0l0,0l0,0v0h0v0l0,0l0,0l-0.1,0v0l-0.1,0v0l0,0l0,0l-0.1,0v0h0
	l0,0l0,0l0,0l0,0l0,0l0,0l0,0l0,0v0l0,0v0l0,0l0,0v0l-0.1,0l0,0h0v0h0l0,0l0,0l0,0l0,0l0,0h0l0,0l0,0l0,0l0,0l0,0l0,0l0,0l0,0l0,0
	l0,0l0,0l0,0l0,0l0,0l0,0h-0.1l0,0l0,0l0,0h0l0,0l0,0l0,0l0,0l0,0l0,0l0,0l0,0l0,0h0l0,0l-0.1,0l0,0h0l0,0.1l-0.1,0l0,0l-0.1,0l0,0
	l0,0v0l0,0v0l0,0v0l0,0v0l0,0v0l-0.1,0l0,0l-0.1,0v0l0,0v0l0,0v0l0,0v0l0,0v0l0,0v0l0,0v0l0,0v0l0,0l0,0l0,0l0,0l0,0l0,0l0,0l0,0
	l0,0l0,0l0,0l0,0l-0.1,0l0,0l0,0l0,0h0l0,0l0,0v0h0l0,0l0,0l0,0l0,0l0,0l-0.1,0l0,0h0l0,0l0,0l0,0h0l0,0h0l0,0l0,0v0l0,0l0,0l0,0h0
	v0l0,0l0,0h0l0,0l0,0l0,0l0,0l0,0v0h0l0,0l0,0v0l0,0l0,0h0l0,0h0l0,0h0v0l0,0l0,0l0,0l0,0l0,0v0l0,0l0,0h0v0l0.1,0v0h0v0l0.1,0v0
	l0.1,0v0l0,0l0,0v0h0v0l0,0v0l0,0v0l0,0v0l0,0v0l0,0v0l0,0v0l0.1,0l0,0l0,0v0l0.1,0v0l0,0l0,0h0v0h0l0,0l0,0v0h0v0l0,0l0,0l0,0l0,0
	l0,0v0l0.1,0v0l0,0l0,0l0,0l0,0l0,0l0,0l-0.1,0v0l0,0v0l0,0v0l0,0l0,0l0,0v0l0,0v0l0,0v0l0,0l0,0l0,0l0,0l0,0l0,0l0,0v0l0,0v0l0,0v0
	l0,0l0,0l0,0l0,0l0,0v0l0,0v0l0,0v0l0,0v0l0,0v0l0,0l0,0l0,0v0l-0.1,0l0,0l0,0l0,0h0v0l0,0v0h-0.1v0l0,0l0,0l0,0l0,0l0,0l0,0l0,0v0
	l0,0v0h0v0l0,0l0,0l0,0v0l0,0l0,0h0l0,0l-0.1,0l0,0l0,0v0l0,0l0,0l0,0l0,0l0,0l0,0l0,0v0l-0.1,0v0l0,0l0,0h0l0,0h0l0,0h0l0,0.1l0,0
	l0,0l0,0l0,0h0l0,0l0,0l0,0l0,0l0,0l0,0l0,0h0l0,0l0,0l0,0l0,0l0,0l0,0l0,0l0,0l0,0v0l0,0l0,0l0,0l0,0h0l0,0l0,0l0,0l0,0l0,0l0,0v0
	l0,0v0h0l0,0l0,0v0l0,0v0h0l0,0h0l0,0l0,0v0h0l0,0h0l0,0l0,0l0,0l-0.1,0l0,0h0v0h0v0l0,0v0l-0.1,0l0,0l0,0v0h0l0,0h0l0,0l0,0l0,0
	l0,0l0,0h0v0l0,0v0h0l0,0l0,0l0,0l0,0v0l0,0v0l0,0v0l0,0v0l0,0v0l0,0l0,0l0,0l-0.1,0l0,0h-0.1l0,0l0,0v0l0,0l0,0l0,0l0,0h0l0,0l0,0
	l0,0l0,0l0,0l0,0h0l0,0l0,0l0,0l0,0v0l0,0l0,0l0,0v0l0,0l0,0l0,0v0l0,0v0l0,0v0l0,0l0,0h0l0,0l0,0l0,0h0l0,0l-0.1,0l0,0l-0.1,0l0,0
	h0l0,0l0,0l0,0l0,0l0,0h0l0,0h0v0h0l0,0l0,0l0,0l0,0l0,0h0l0-0.1h0l0,0h0l0,0h0l0-0.1l0,0l0,0l0,0v0l-0.1,0l0,0h0l0,0l0,0l0,0h0l0,0
	H921l0,0l0,0l0,0l0,0l0,0l0,0v0h0v0l0,0l0,0l0,0v0h0v0l0,0v0l0,0v0l0,0v0l0,0v0l0,0v0l0,0v0l0,0v0h0l0,0l0,0l0,0h0l0,0h0l0,0h0l0,0
	h0l0,0l0,0v0l0,0v0l0,0v0l-0.1,0v0l-0.1,0v0l0,0v0l-0.1,0l0,0l0,0l0,0l0,0l0,0l0,0l0,0l0,0l0,0l0,0l0,0l0,0v0l0,0v0l0,0v0l0,0l0,0
	l0,0v0l0,0l0,0l0,0l0,0h0l0,0l0,0v0l-0.1,0l0,0l-0.1,0l0,0l0,0l0,0h0l0,0.1l0,0l0,0l0.1,0v0l0,0l0,0h0l0,0h0v0l0,0l0,0l0,0v0l0,0
	l0,0h0l0,0l0,0l0,0h0l0,0l0,0v0l0,0l0,0l0,0v0h0l0,0l0,0l0,0l0,0h0l0,0h0l0,0l0,0l0,0l0,0l0,0l0,0l0,0l0,0v0l0,0l0,0h0v0l0,0v0l0,0
	l0,0l0,0l0,0l0,0h0l0,0h0v0h0v0l0,0l0,0l0,0l0,0h0v0l-0.1,0v0l0,0v0l0,0l0,0l0,0l0,0l0,0l0,0l0,0v0l0,0l0,0l0,0l0,0h0v0l0,0l0,0l0,0
	l0,0l0,0l0,0l0,0l0,0l0,0l0,0l0,0l0,0l0,0v0h0l0,0l0,0l0,0l0,0h0v0l0,0l0,0l0,0l0,0v0h0l0,0l0,0v0l0,0l0,0l0,0l0,0l0,0v0h0l0,0l0,0
	l0,0h0l0,0h0l0,0l0,0l0,0l0,0l0,0l0,0l0,0l0,0v0l0,0l0,0h0l0,0h0v0l0,0v0l0,0l0,0l0,0v0h0v0l0,0l0,0l0,0l-0.1,0v0h0l0,0h0l0,0l0,0v0
	l0,0l0,0l0,0v0l0,0v0l-0.1,0v0l0,0l0,0l0,0v0l0,0l0,0l0,0v0l0,0l0,0h0v0h0l0,0h0l0,0h0l0,0l0,0v0h0l0,0l0,0l0,0l0,0l0,0l0,0l0,0l0,0
	l0,0l0,0l0,0l0,0l0,0h0l0,0l0,0v0h0l0,0l0,0l0,0l0,0l0,0l0,0l0,0l0,0l0,0l0,0v0l0,0v0l0,0v0l-0.1,0v0l0,0l0,0h0l0,0l0,0l0,0l0,0v0
	l0,0v0l0,0v0l0,0v0l-0.1,0v0l-0.2,0v0l0,0v0l-0.1,0l0,0l0,0v0h0v0l0,0l0,0l0,0v0l0,0l0,0l0,0v0l-0.1,0v0l0,0l-0.1,0v0l0,0v0l0,0v0
	l0,0v0l-0.1,0l0,0l0,0v0l-0.1,0v0l0,0v0l-0.1,0l0,0l0,0v0l0,0v0l0,0v0l0,0v0l0,0l0,0h0v0l0,0l0,0l0,0v0l0,0v0l0,0v0l0,0l0,0l0,0v0
	l0,0v0h0v0l0,0l0,0l0,0v0l0,0v0l-0.1,0v0l0,0v0l-0.1,0v0l0,0l0,0l0,0v0l0,0l0,0h0v0l0,0l0,0l0,0l0,0l0,0l0,0l0,0v0l-0.1,0v0l-0.1,0
	v0l0,0l0,0v0l0,0v0l0,0v0l0,0l0,0l0,0v0l0,0l0,0l0,0v0l0,0l0,0l-0.1,0v0h0v0h0l0,0h0l0,0h0l0,0l0,0l0,0l0,0l0,0l0,0l0,0l0,0v0l0,0
	l0,0l0,0l0,0l0,0v0l0,0l0,0h0l0,0l0,0l0,0h0v0l0,0v0l-0.1,0v0l-0.1,0v0l0,0l0,0l0,0l0,0h0l0,0h0v0l-0.1,0l0,0l-0.1,0v0l-0.1,0l0,0h0
	l0,0l0,0l0,0l0,0l0,0l0,0v0l0,0l0,0l0,0l0,0l0,0l0,0l0,0l0,0l0,0v0h0l0,0l0,0v0l0,0l0,0h0l0,0l0,0l0,0h0l0,0l0,0v0l0,0v0l0,0l0,0
	l0,0v0l0,0v0l0,0v0l0,0v0l0,0v0h0v0l-0.1,0v0l-0.1,0v0l-0.1,0v0l0,0h0l0,0l0,0v0l-0.1,0v0l0,0l0,0l0,0l0,0l0,0v0l0,0v0l0,0l0,0l0,0
	l0,0l0,0l0,0l0,0v0l0,0v0l0,0l0,0h0l0,0h0l0,0l0,0v0h0l0,0l0,0v0l0,0l0,0l0,0v0h0l0,0l0,0v0l0,0l-0.1,0l0,0l0,0v0l0,0v0h0l0,0l0,0h0
	l0,0l0,0l0,0l0,0v0h0l0,0l0,0v0l0,0v0l0,0v0l-0.1,0v0h-0.1v0l-0.1,0l0,0l0,0v0h-0.1v0l0,0v0l0,0v0l0,0l0,0l0,0v0l-0.1,0v0h0l0,0l0,0
	l0,0l0,0l0,0h0v0l0,0l0,0l0,0l0,0v0l0,0v0l0,0l0,0h0v0l0,0l0,0l0,0l0,0l0,0h0v0l0,0l0,0l0,0l0,0l0,0v0l0,0v0l0,0l0,0l0,0v0l0,0v0h0
	v0l-0.1,0v0.1h0l0-0.1l0,0l0,0l0,0l0,0l-0.1,0l0,0l0,0v0l0,0v0l-0.1,0v0l0,0l0,0l0,0v0l0,0v0h0v0l0,0l0,0l0,0h0l0,0h0l0,0h0l0,0l0,0
	v0h0l0,0h0v0l0,0l0,0l0,0l0,0h0l0,0l0,0v0h0v0h0l0,0h0v0l0,0l0,0h0l0,0l0,0l0,0h0l0,0l0,0v0l-0.1,0l0-0.1l0,0v0l0,0h0l0,0l0,0l0,0
	l0,0h0l0,0h0l0,0l0,0l0,0l0,0l0,0h0l0,0h0v0h0l0,0h0l0,0l0,0v0l0,0v0h0v0h0v0h0l0,0h0v0l0,0v0h0v0l0,0v0h0v0l0,0v0l0,0v0l0,0l0,0h0
	v0h0v0l-0.1,0v0h0v0v0l0,0v0h-0.1v0h0v0l0,0h0l0,0l0,0v0l0,0v0h0l0,0l-0.1,0v0l0,0l0,0h0l0,0l0,0l0,0h0l0,0l0,0l0,0l0,0v0l-0.1,0v0
	l0,0l0,0l0,0l0,0h0v0l0,0l0,0l0,0v0l-0.1,0l0,0l0,0l0,0l0,0l0,0l-0.1,0l0,0l0,0v0l0,0v0l0,0v0l0,0l0,0.1l0,0l0,0l0,0l0,0l0,0l0,0h0
	l0,0h0l0,0l0,0v0l0,0l0,0l0,0l0,0l0,0v0l0,0v0l0,0l0,0h0l0,0.1h0l0,0l0.1,0v0l0,0v0l0.1,0v0l0.1,0v0l0,0l0,0l0,0l0,0l0,0l0,0l0,0
	l0,0l0,0l0,0h0l0,0h0l0,0l0,0l0,0l0.1,0l0,0h0l0,0h0v0h0l0,0h0l0,0l0,0l0,0h0l0,0h0l0,0l0,0l0,0l0,0v0l0,0v0l0,0v0l0,0l0,0l0,0v0
	l-0.1,0v0l-0.1,0v0l0,0v0l0,0v0l0,0v0l0,0v0l0,0v0l0,0l0,0l0,0l0,0v0l0,0v0l0,0v0l0,0v0l0,0l0,0h0v0l0,0l0,0v0h0l0,0h0l0,0h0v0l0,0
	v0l0,0v0h0l0,0h0v0l0,0v0h0v0l0,0l0,0l-0.1,0v0l0,0l0,0l0,0v0l0,0v0l0,0l0,0l0,0h0l0,0l0,0v0l0,0v0h0v0l0,0v0h0v0h0l0,0l0,0l-0.1,0
	l0,0h-0.1l0,0l0,0l0,0h-0.1l0,0l0,0l0,0l0,0l0,0l0,0l0,0l0,0l0,0h0l0,0.1l0,0v0l0,0v0l-0.1,0l0,0h0v0l0,0l0,0l0,0l0,0l0,0l0,0h0l0,0
	l0,0v0l0,0l0,0l0,0v0l0,0l0,0h0l0,0l0,0l0,0l0,0v0l0,0l0,0l0,0l0,0l0,0l0,0h0l0,0h0l0,0l0,0v0l0,0v0l-0.1,0l0,0l0,0v0l-0.1,0v0l0,0
	v0l0,0h0l0,0l0,0v0l-0.1,0l0,0l-0.1,0l0,0l0,0v0h0l0-0.1h0l0,0h0l0,0h0l0,0h0l0-0.1h0l0,0h0v0l0,0l-0.1,0v0l0,0l0,0l0,0l0,0l0,0v0
	l0,0v0l0,0v0l0,0l0,0l-0.1,0l0,0l0,0l0,0l0,0v0l0,0l0,0l-0.1,0l0,0h0l0,0h0l0,0l0,0v0l0,0l0,0l0,0v0l0,0v0l0,0v0h0v0l0.1,0v0l0.1,0
	v0l0,0v0l0,0v0l0,0v0l0,0v0l0,0l0,0l0,0l0,0l0,0l0,0h0l0,0l0,0l0,0h0v0h0v0h0l0,0h0l0,0.1l0,0v0l0,0l0,0l-0.1,0v0l0,0l0,0l0,0l0,0
	l0,0l0,0l0,0v0l0,0v0l0,0v0l-0.1,0l0,0l-0.1,0l0,0l0,0l0,0h0l0,0l0,0v0l0.1,0l0,0h0l0,0l0,0l0,0l0,0v0l0.1,0l0,0h0l0,0h0l0,0l0,0
	l0,0l0,0v0l0,0l0,0l0,0v0h0v0l-0.1,0l0,0l-0.1,0v0h0l0,0l0,0l0,0l0,0l0,0l0,0l0,0v0l-0.1,0v0l-0.1,0l0,0l0,0l0,0l0,0v0l0,0l0,0v0
	l0,0l0,0l0,0v0l0,0l0,0h0l0,0h0v0l0,0v0h0v0h0v0l0,0v0l0,0v0l0,0v0h0l0,0h0l0,0l0,0v0h0v0l0,0h0v0h0l0,0h0l0,0l0,0v0l0,0v0l0,0v0
	l0,0l0,0l0,0l0,0l-0.1,0l0,0l-0.1,0l0,0l0,0v0H907l0,0h0l0,0l0,0h0l0,0l0,0v0h0l0,0l0,0l0,0v0l0,0v0l0,0l0,0l0,0l0,0l0,0v0l0,0v0h0
	l0,0h0v0l0,0l0,0h0l0,0h0l0,0l0,0l0,0l0,0l0,0l0,0v0l-0.1,0l0,0l0,0l0,0l0,0l0,0l0,0l0,0l0,0l0,0v0l0,0v0l0,0l0,0l0,0v0l0,0v0l0,0v0
	h0v0h0.1l0,0h0v0h0l0,0l0,0l0,0l0,0v0l0,0v0h0l0,0l0,0l0,0l0,0l0,0l0,0l0,0l0,0l0,0h0v0l0,0l0,0l0,0v0l0,0v0.1l0,0l0,0l0-0.1l0,0h0
	l0,0l0,0v0l0,0v0l0,0v0h0v0h0v0h0l0,0l0,0v0l0,0v0l0,0l0,0l-0.1,0v0l0,0l0,0.1l0,0v0h0l0,0h0v0l-0.1,0l0,0h0l0,0l0,0v0h0v0l0,0v0
	l0,0v0l0,0l-0.1,0v0h0v0l0,0l0,0l0,0v0l0,0v0l0,0l0,0l0,0l0,0h0l0,0l0,0l0,0l-0.1,0l0,0l0,0v0l0,0l0,0l-0.1,0l0,0l0,0l0,0l0,0v0l0,0
	l0,0v0h0v0l0,0l0,0l0,0v0l0,0l0,0l0,0v0l0,0l0,0l0,0v0l0,0v0h0l0,0l0,0v0l0,0v0h0l0,0l0,0l0,0l0,0v0h0l0,0l0,0l0,0l0,0v0l0,0v0l0,0
	l0,0h0l0,0l0,0v0h0l0,0.1h0l0,0l0,0v0l0,0l0,0l0,0v0l0,0l0,0l0,0l0,0v0l-0.1,0l0,0l0,0v0h0l0,0l0,0l0,0h0v0l0,0v0l0,0v0l0,0l0,0l0,0
	v0h0l0,0l0,0h0l0,0h0l0,0h0l0,0l0,0l0,0h0l0,0h0l0,0l0,0v0l0,0l0,0h0v0h0l0,0l0,0l0,0l0,0v0l0,0l0,0l0,0l0,0l0,0v0l0,0l0,0l0,0v0
	l0,0v0l-0.1,0v0l-0.2,0l0,0l0,0v0h0v0l0,0l0,0h0v0l0,0l0,0l0,0v0l0,0v0l-0.1,0l0,0h0l0,0l0,0v0l0,0h-0.1v0l-0.1,0l0,0l0,0v0h0v0l0,0
	l0,0l0,0l0,0l-0.1,0l0,0l0,0v0l0,0l0,0h0v0l-0.1,0v0l0,0v0l-0.1,0v0l-0.1,0v0l0,0l0,0l0,0v0l0,0v0l-0.1,0v0h-0.1v0h0l0-0.1l0,0l0,0
	l0,0v0l0,0l0,0h0l0,0l0,0v0l0,0l0,0l0,0v0l0,0v0l0,0v0l-0.1,0v0h-0.1l0,0h0v0l-0.1,0v0h0v0l0,0v0l0,0l0,0l0,0v0l0,0v0l0,0v0l0,0l0,0
	l0,0l0,0l0,0l0,0h0l0,0l0,0v0h0l0,0l0,0h0l0,0l0,0l0,0h0l0,0.1l0,0l0,0h0l0,0h0v0l0,0v0l0,0v0l0,0v0l0,0v0h0l0,0.1l0,0v0l-0.1,0v0h0
	l0-0.1h0l0,0l0,0v0l0,0v0l-0.1,0v0l0,0v0h0v0h0l0-0.1l0,0v0l0,0l0,0h0l0,0l0,0l0-0.1h0l0,0h0l0,0l0,0v0l0,0l0,0l0,0v0l0,0v0l0,0v0
	l-0.1,0v0l0,0v0l-0.1,0v0l-0.1,0l0,0h0v0h0v0l0,0l0,0l0,0l0,0l0,0l0,0v0l0,0v0h0l0-0.1l0,0l0,0h0l0,0h0l0-0.1h0l0,0h0l0,0h0l0-0.1h0
	l0-0.1h0l0,0h0l0,0l0,0l0-0.1l0,0l0,0l0,0l0,0h0l0,0h0v0l0,0v0h0l0,0l0,0v0l0,0l0,0h0v0h0v0l0,0l0,0l0,0l0,0l0,0v0l0.1,0v0l0,0v0
	l0,0v0l0,0v0l0,0v0l0.1,0l0,0l0,0v0l0,0v0l0,0v0l0,0l0,0l0,0v0l0,0v0l0,0v0l0,0v0l0,0v0l0.1,0l0,0l0,0l0,0l0,0l0,0l0,0l0,0h0l0,0h0
	l0,0h0l0-0.1l0,0l0,0l0,0l0,0l0,0l0,0l0,0v0h0l0,0H903l0,0h0l0,0l0,0l0,0l0,0v0h0v0h0v0l0,0v0l0,0v0l0,0v0l0,0v0l0,0v0h0v0l-0.1,0v0
	l0,0v0l0,0l0,0l0,0l0,0l-0.1,0v0l-0.1,0l0,0h0l0,0l0,0l0,0l0,0l0,0l0,0v0l0,0v0l0,0l0,0l0,0l0,0l0,0l0,0l0,0v0h0l0,0l0,0l0,0l0,0v0
	h0l0,0h0l0,0h0l0,0l0,0l0,0h0l0,0h0l0,0l0,0l0,0l0,0l0,0l0,0l0,0l0,0l0,0h0l0,0h0l0,0l0,0v0l0,0v0l0,0v0l0.1,0l0,0l0,0l0,0h0v0l0,0
	v0h0v0h0l0-0.1l0,0l0,0l-0.1,0l0,0h0l0,0h0v0l0,0l0,0l0,0l0,0l0,0l0,0l0,0l0,0l0,0l0,0l0,0l0,0h-0.1v0h0v0h0l0,0l0,0h0l0,0h0l0,0h0
	l0,0h0l0,0h0l0,0l0,0l0,0l0,0h0l0,0h0l0,0h0.1v0l0,0v0l0,0l0,0h0l0,0l0,0l0,0h0v0h0l0,0h0l0,0l0,0v0l0,0v0l0,0v0h0v0l0,0l0,0l0.1,0
	l0,0l0,0l0,0h0l0,0l0,0l0,0h0l0,0h0l0,0h0l0,0h0l0,0h0l0,0h0l0,0h0l0,0h0l0-0.1h0l0,0h0l0,0h0l0,0h0l0,0h0l0,0h0l0,0l0,0l0,0l0,0
	l0-0.1h0l0,0l0,0v0l0,0v0l0,0l0,0l0,0l0,0l0,0l0,0h0l0,0h0l0,0h0v0l0,0l0,0h0v-0.1h0l0,0h0l0-0.1l0,0l0,0l0,0v0l0,0l0,0h0l0,0l0,0
	l0,0h0l0,0h0l0,0l0,0l0,0l0,0l0,0l0,0l0,0l0,0l0.1,0l0,0l0,0v0l0,0l0,0h0l0,0l0,0l0,0l0,0l0,0l0,0v0l0,0l0,0l0,0l0,0l0,0l0,0l0,0
	l0,0l0,0l0,0l0,0l0,0l0,0l0,0h0l0,0h0l0,0l0,0v0l0,0v0l0,0v0l0,0l0,0l0,0l0,0l0,0v0h0v0l0,0l0,0h0v0l0,0l0,0h0l0,0l0,0l0,0h0l0,0
	l0,0h0l0,0h0l0,0h0l0-0.1h0l0,0h0l0,0h0l0,0l0,0v0l0,0l0,0l0,0v0l0,0v0l0,0l0,0l-0.1,0v0l0,0l0,0l0,0l0,0l0,0v0l0,0l0,0l0,0l0,0l0,0
	l0,0h0v0h0l0-0.2h0l0,0h0l0,0h0l0,0h0l0,0l0,0l0,0h0l0,0l0,0v0l0,0l0,0h0l0,0h0v0h0l0,0h0v0h0l0,0h0l0,0l0,0l0,0l0,0l0,0l0,0l0,0h0
	l0,0l0,0l0,0l0,0l0,0l0,0l0,0l0,0l0-0.2h0l0,0h0l0,0h0l0,0h0l0,0l0,0l0,0h0l0,0l0,0l0,0l0,0v0h0l0,0h0v0l0,0v0l0,0v0l0,0l0,0l0,0v0
	l-0.1,0v0l0,0l-0.1,0l0,0l0,0v0l0,0v0l-0.1,0l0,0l0,0v0l-0.1,0v0l-0.1,0v0l0,0v0l0,0v0l-0.1,0v0l0,0v0l0,0v0l0,0l0,0l0,0l0,0h0l0,0
	l0,0l0,0h0l0,0h0l0,0h0v0h0l0,0h0l0,0l0,0l0,0h0l0,0l0,0v0l0,0l0,0h0l0,0h0l0,0l0,0l0,0l0,0l0,0h0l0,0l0,0l0,0h0l0,0h0l0,0h0l0,0
	l0,0v0h0l0,0h0l0,0h0l0,0h0l0,0h0l0,0h0l0,0h0l0,0h0l0,0l0,0l0,0l0,0l0,0l0,0v0l0,0v0l0,0l0,0l0,0h0l0,0h0l0,0h0l0,0h0l0,0l0,0v0
	l0,0l0,0h0l0,0l0,0l0,0l0,0l0,0l0,0l0,0h0l0,0h0l0,0h0l0,0h0l0,0l0,0v0l0,0l0,0h0l0,0l0,0l0,0l0,0v0l0.1,0v0l0,0l0,0h0v0l0,0v0
	l0.1,0l0,0l0.1,0v0l0.1,0v0l0,0l0,0h0l0,0h0l0,0l0,0l0,0l0,0l0,0l0,0v0l0,0v0l0,0v0l0,0l0,0l0.1,0v0l0,0v0l0.1,0v0l0.1,0v0l0,0v0
	l0,0l0,0l0,0v0l0,0v0l0,0v0l0,0l0,0l0,0l0,0l0,0v0h0l0,0l0,0v0h0v0l0,0v0l0,0l0,0l0,0l0,0h0v0l0.1,0v0l0,0v0l0,0v0l0,0v0l0,0l0,0
	l0,0v0h0v0h0l0,0l0,0l0,0h0l0,0l0,0l0,0l0,0l0,0l0,0v0l0,0v0l0,0l0,0l0,0v0l0,0l0,0l0,0v0l0,0v0h0l0,0l0,0l0,0l0.1,0v0l0,0l0,0l0,0
	v0l0,0l0,0l0,0v0l0,0v0l0,0l0,0h0l0,0l0,0v0l0,0l0,0l0,0l0,0l0,0l0,0l0,0l0,0l0,0l0,0h0l0,0h0l0,0h0l0,0h0l0,0h0l0,0h0l0,0h0l0-0.1
	h0l0,0h0l0,0h0l0,0h0l0,0l0,0l0,0l0,0v0v0h0l0,0l0,0l0,0h0l0-0.1h0l0,0h0l0,0h0v0l0,0v0l0,0l0,0l0,0l0,0h0v0h0l0,0l0,0l0,0h0l0,0h0
	l0,0h0l0-0.2l0,0v0l0,0l0-0.1l0,0v0l0,0l0,0h0l0,0l0,0l0,0l0,0l0,0l0.1,0v0h0v0l0,0l0,0h0l0,0h0l0,0h0l0,0h0l0,0l0,0v0l0,0v0l0,0
	l0,0l0,0l0,0l0,0l0,0l0,0l0,0l0,0v0l0,0l0,0l0,0l0,0l0,0l0,0l0,0l0,0h0v0l0,0v0l0,0l0,0l0,0l0,0v0l0,0v0h0v0h0l0,0l0,0v0l0,0v0l0,0
	v0l0.1,0v0l0.1,0v0l0.1,0v0l0,0v0h0v0l0.2,0v0h0l0,0l0,0l0,0l0,0l0,0l0.2,0v0l0.1,0v0l0,0v0l0.1,0l0,0l0.1,0l0,0l0.1,0l0,0l0,0v0h0
	v0h0v0l0.2,0v0l0.1,0v0l0,0l0,0l0,0v0h0l0,0l0.1,0v0h0l0,0h0v0h0.1v0l0,0v0h0.1v0l0.1,0l0,0l0,0l0,0l0.1,0v0h0v0l0,0l0,0l0.1,0l0,0
	l0,0l0,0h0v0l0.1,0v0l0,0v0l0,0l0,0l0,0v0l0,0v0l0,0l0,0l0,0v0h0l0,0l0.1,0l0,0l0,0l0,0h0v0h0.1v0l0,0l0,0l0,0l0,0v0l0,0v0l0,0v0h0
	l0,0h0.1l0,0l0,0v0h0l0,0l0,0l0,0l0,0l0,0l0,0l0,0l0,0l0,0l0,0l0,0l0,0v0l0,0v0l0.1,0v0l0,0v0l0,0l0,0h0v0h0l0,0l0,0l0,0v0l0.1,0v0
	l0,0v0l0.1,0v0h0l0,0h0v0l0,0l0.1,0v0l0,0v0l0,0l0,0l0,0l0,0l0,0v0l0,0v0l0,0l0,0l0.1,0v0l0,0v0l0,0l0,0l0.1,0v0l0.1,0v0l0,0v0l0,0
	v0l0,0v0l0,0l0,0l0.1,0l0,0l0,0v0l0,0l0,0l0,0v0l0.1,0v0l0,0l0,0v0l0,0v0l0.1,0v0l0,0v0l0.1,0v0l0,0l0.1,0v0l0,0v0l0.1,0v0l0.1,0
	l0,0l0,0l0,0l0,0v0l0.1,0v0l0,0v0l0.1,0v0l0.1,0v0l0.1,0l0,0l0.1,0l0,0l0,0v0h0l0,0l0,0v0l0.3,0l0,0l0.1,0l0,0l0.1,0v0h0l0,0l0.1,0
	v0l0.1,0v0l0,0v0l0.1,0v0l0.1,0v0l0,0l0,0l0,0v0h0l0,0l0,0v0h0.2v0l0.1,0v0l0,0v0l0.1,0v0l0,0v0l0.1,0v0l0,0v0l0,0l0,0l0.1,0v0l0,0
	l0,0v0l0,0v0l0.1,0v0l0.1,0v0l0,0l0,0l0,0l0,0l0,0v0l0,0v0l0,0v0l0,0l0,0l0,0v0l0,0l0,0h0l0,0l0,0l0,0l0,0l0,0l0,0v0l0.1,0v0l0.1,0
	v0l0,0v0l0.1,0v0l0,0l0,0l0,0v0l0,0v0l0,0l0,0l0,0v0l0,0v0h0v0l0,0v0l0,0v0l0,0v0l0,0v0h0.1v0h0l0,0l0.1,0v0l0,0v0l0,0l0.1,0v0l0,0
	v0l0,0v0l0,0l0,0l0,0v0l0.1,0v0l0,0l0,0l0,0v0l0.1,0v0l0,0v0l0,0l0,0l0,0l0,0l0,0l0,0l0,0l0-0.1l0,0v0l0,0l0,0l0,0l0,0l0,0l0,0l0,0
	l0,0v0l0,0l0.1,0v0l0,0v0l0.1,0v0l0.1,0l0,0h0l0,0l0,0l0,0l0,0v0l0,0v0l0,0v0l0,0v0l0,0v0h0l0,0l0,0l0,0l0,0l0,0h0l0,0l0.1,0l0,0
	l0.1,0v0l0.2,0v0l0.3,0v0l0,0v0l0,0l0,0l0,0l0,0h0v0l0.1,0v0h0v0l0.1,0v0l0.1,0l0,0h0v0h0.1l0,0l0,0h0v0l0.1,0l0,0l0,0l0,0l0.1,0v0
	l0.2,0v0l0.1,0v0l0,0v0l0,0v0l0.1,0v0l0.1,0v0l0,0v0l0,0l0,0l0,0v0l0,0v0l0.1,0v0l0.1,0v0l0.2,0l0,0l0,0v0l0.1,0v0l0,0v0l0,0l0,0
	l0,0l0,0l0,0v0l0,0v0l0.1,0l0,0l0,0v0l0,0v0l0,0v0l0,0v0l0,0v0l0.1,0v0l0,0v0l0,0l0,0l0,0v0l0,0l0,0l0,0v0l0,0v0l0,0l0,0l0,0v0
	l0.1,0l0,0l0,0l0,0h0l0,0v0l0.1,0v0l0,0v0l0,0v0l0,0v0l0.1,0v0h0v0h0v0l0,0v0h0.1l0,0l0,0l0,0l0.1,0l0,0l0,0l0,0h0.1v0l0,0v0h0l0,0
	l0,0l0,0l0,0v0l0,0l0,0h0l0,0l0,0l0.1,0v0l0.1,0v0l0,0v0l0,0v0l0,0v0l0.1,0v0h0v0l0,0l0,0l0,0l0,0v0l0.1,0v0l0.1,0v0l0.1,0v0l0,0v0
	l0,0v0l0,0v0l0,0l0.1,0v0l0.1,0v0l0,0v0l0.1,0v0l0.1,0v0l0,0v0l0,0l0,0l0,0l0,0h0l0,0l0,0l0,0l0,0l0,0h0l0,0l0,0l0,0h0l0,0l0,0l0,0
	h0v0l0,0l0,0l0,0v0l0,0v0l0,0v0l0.1,0v0l0.1,0v0l0.2,0v0l0,0v0l0.1,0v0l0.1,0v0l0,0v0l0,0v0l0,0l0,0l0,0l0,0h0v0l-0.1,0l0,0l0.1,0
	l0,0h0.1v0H919l0,0h0l0,0l0,0l0,0l0.1,0v0l0,0v0l0,0v0l0,0v0l0,0l0,0l0,0v0l0,0l0,0l0,0v0l0,0v0l0.1,0v0l0,0l0,0h0l0,0l0,0h0v0h0
	l0,0l0,0v0l0.1,0v0l0,0v0l0,0v0l0,0v0l0,0v0l0.1,0v0l0,0l0,0l0.1,0v0l0.1,0v0l0,0v0l0,0v0l0,0v0l0,0v0l0,0v0l0,0v0l0,0v0l0.1,0l0,0
	h0l0,0h0l0,0h0l0,0v0l0,0l0,0l0,0l0,0l0,0l0,0l0,0l0,0l0.1,0v0l0,0v0l0,0l0,0l0,0v0h0l0,0l0,0l0,0l0,0v0l0,0l0,0.1l0.1,0v0l0,0l0,0
	l0.1,0l0,0l0,0l0,0h0v0l0,0l0,0l0,0l0.1,0l0,0l0,0l0,0l0,0l0,0l0,0l0,0l0,0v0l0.1,0v0l0,0l0.1,0v0l0,0v0l0,0v0l0,0v0l0,0l0,0l0,0
	l0,0l0,0l0,0v0l0,0l0,0l0,0v0l0,0v0l0,0v0l0.1,0v0l0,0l0,0l0,0l0,0l0,0l0,0l0,0v0l0,0l0,0l0,0v0l0,0l0,0l0,0l0,0l0.1,0l0,0l0,0l0,0
	l0,0v0l0,0v0l0.1,0v0l0,0l0,0l0,0v0l0.1,0l0,0h0v0l0,0v0l0,0l0,0l0,0v0l0,0l0,0h0l0,0h0v0l0,0l0,0v0l0,0v0l0.1,0v0l0.1,0v0l0,0l0,0
	l0,0v0l0,0l0,0l0,0v0l0,0v0l0.1,0v0l0.1,0v0l0,0v0l0.1,0v0l0.2,0v0l0.1,0v0l0.1,0v0l0.1,0l0,0h0v0l0,0l0,0l0.1,0v0l0,0l0,0v0l0,0
	l0,0l0,0v0h0v0l0,0v0l0,0v0l0,0l0,0l0,0l0,0l0,0h0l0,0l0,0l0,0l0,0l0,0l0,0v0h0v0h0l0,0l0,0l0,0l0,0v0l0,0v0l0,0l0,0l0,0v0l0.1,0v0
	l0.1,0v0l0,0l0,0l0,0l0,0h0l0,0l0,0v0l0,0v0l0,0l0,0h0l0,0l0,0v0l0,0l0,0h0l0,0l0,0l0,0l0,0v0h0l0,0l0,0l0,0h0l0,0l0,0l0,0l0,0v0
	l0,0v0l0,0l0,0v0l0,0l0,0.1h0l0,0l0,0l0,0h0l0,0l0,0l0,0h0l0,0l0,0l0,0l0,0v0l0,0v0l0,0l0,0h0l0,0h0l0,0l0,0l0,0h0l0,0l0,0l0,0h0
	l0,0l0,0v0l0,0l0,0l0,0l0,0l0,0l0,0l0,0l0,0l0,0l0,0l0,0l0,0h0l0,0h0l0,0l0,0l0,0l0,0v0h0v0l0,0l0,0h0l0,0h0l0,0l0,0v0h0v0l0,0v0
	l0,0v0l0.1,0l0,0l0,0v0l0.1,0v0l0,0l0,0l0.1,0l0,0l0.1,0v0l0,0l0,0l0,0l0,0l0,0l0,0l0,0l0,0l0,0v0.1h0v0h0v0h0.1l0,0l0,0v0l0,0v0
	l0,0v0l0,0v0l0,0l0,0h0l0,0l0,0v0h0v0l0,0v0l0,0v0l0,0v0l0,0l0,0h0l0,0l0,0l0,0l0,0v0l0.1,0v0l0.1,0l0,0l0,0l0,0l0,0l0,0l0,0l0,0
	l-0.1,0v0l0,0l0,0v0l0,0l0,0h0v0l0,0l0,0l0,0h0l0,0h0l0,0l0,0v0l0,0v0l0,0v0l0,0v0l0,0l0,0l0,0v0l0,0l0,0l0,0l0,0v0l0,0l0,0l0,0v0h0
	l0,0h0v0l0,0l0,0h0l0,0l0,0l0,0l0,0l0.1,0v0l0,0l0,0l0,0l0,0h0v0l0.1,0v0l0.1,0l0,0l0,0l0,0l-0.1,0v0h0l0,0l-0.1,0l0,0l-0.1,0v0l0,0
	v0l-0.1,0l0,0h0l0,0l0,0v0l0,0h0l0,0h0v0l0,0l0,0l0,0l0,0l0,0v0l0,0l0,0h0l0,0l0,0l0,0l0,0l0,0l0,0l0,0h0l0,0h0l0,0l0,0h0l0,0h0v0
	l0,0v0l0,0v0l0,0v0l0,0l0,0l0,0l0,0h0v0l0,0l0,0l0,0v0l0,0l0,0l0,0v0l0,0v0l0,0v0h0v0l0.1,0v0l0,0l0,0l0.1,0l0,0l0,0v0l0,0v0l0,0
	l0,0l0,0v0l0,0v0l0.1,0v0l0,0l0.1,0v0l0,0v0h0v0l0,0l0,0l0,0l0,0v0h0l0,0h0l0,0l0,0v0l0,0v0l0,0l0,0l0,0v0l0.1,0v0l0,0l0,0l0,0v0h0
	v0l0,0l0,0l0,0l0,0l0,0v0l-0.1,0l0,0l0,0v0l0.1,0l0,0l0,0v0l0,0v0l0,0l0,0h0l0,0l0,0l0,0l0.1,0v0h0v0l0,0v0l0,0l0,0l0,0v0l0,0v0
	l0.2,0v0l0,0v0l0,0v0l0.1,0v0l0,0l0.1,0v0l0,0v0l0,0v0l0,0l0,0h0l0,0h0l0,0l0,0l0,0l0,0v0l0,0l0,0l0,0l0,0l0,0l0,0h0v0l0,0v0l0,0v0
	l0,0v0l0,0v0l0.1,0l0,0l0,0l0,0l0,0l0,0l0,0v0l0,0v0l0.2,0v0l0,0v0h0l0,0l0,0l0,0l0,0v0l0,0v0h0l0,0h0l0,0l0,0l0,0h0l0,0h0l0,0l0,0
	l0,0l0,0v0l0,0l0,0l0,0v0l0,0v0h0l0,0h0l0,0l0,0v0l0,0l0,0h0l0,0l0,0v0l0,0l0,0l0.1,0v0l0,0v0l0.1,0v0l0,0v0l0,0l0,0l0.1,0l0,0h0
	l0,0h0l0,0l0,0l0,0h0l0,0l0,0v0h0l0,0l0,0v0l0,0v0l0.1,0v0l0,0v0l0,0v0l0,0v0l0,0v0l0,0v0l0,0l0,0l0,0v0l0.1,0v0l0.1,0v0l0.1,0l0,0
	l0,0v0l0.1,0l0,0l0,0v0l0.1,0v0l0.1,0v0l0.1,0l0,0l0.1,0v0l0.1,0v0l0.1,0v0l0.1,0v0l0,0v0l0,0l0,0l0.1,0v0l0,0l0,0l0,0l0,0l0,0v0
	l-0.1,0v0l0,0v0l0,0v0l0.1,0l0,0l0.1,0l0,0h0l0,0l0,0v0h0l0,0l0,0l0,0l0,0v0l0,0l0,0l0,0v0l0,0v0l0,0l0,0l0,0l0,0l0,0l0,0l0,0v0l0,0
	v0l0,0l0,0l0,0v0l0,0l0,0h0v0l0,0v0h0v0l0,0l0,0h0l0,0l0,0l0,0l0,0l0,0l0,0l0,0l0,0l0,0l0,0l0,0l0,0l0,0l0,0l0,0l0,0l0,0l0,0l0,0
	l0,0l0,0h0l0,0l0,0l0,0l0,0l0,0l0,0l0,0l0,0l0,0l0,0l0,0h0l0,0l0,0l0,0h0l0,0l0,0l0,0l0,0l0,0l0,0l0,0l0,0h0l0,0l0,0l0,0h0l0,0l0,0
	l0,0h0l0,0l0,0l0,0h0l0,0l0,0l0,0h0l0,0l0,0l0,0l0,0l0,0l0,0l0,0l0,0l0,0l0,0l0,0l0,0l0,0l0,0l0,0h0v0h0v0l0,0v0l0,0v0l0,0v0l0,0
	l0,0l0.1,0l0,0l0.1,0v0l0.1,0v0l0,0v0l0.1,0v0l0,0l0,0l0,0l0,0l0.1,0v0l0,0l0,0l0,0v0l0.1,0v0l0.1,0l0,0l0,0v0l0,0l0,0h0l0,0h0l0,0
	l0,0l0,0l0,0l0,0h0l0,0l0,0v0l0,0v0l0,0l0,0l0,0l0,0l0.1,0l0,0h0l0,0l0,0l0,0h0l0,0l0,0l0,0h0l0,0l0,0l0,0l0,0l0,0l0,0v0h0v0l0.2,0
	l0,0l0,0v0l0,0l0,0l0,0l0,0h0l0,0l0,0l0,0l0,0v0l0,0l0,0l0,0l0,0l0,0l0,0l0,0l0,0h0l0,0l0,0l0,0h0l0,0l0,0v0l0,0v0l0,0l0,0h0l0,0
	l0,0l0,0l0,0l0,0h0l0,0l0,0l0,0l0,0v0l0,0l0,0l0,0l0,0l0,0l0,0l0,0l0,0h0v0l0,0l0,0l0,0l0,0l0,0v0l0.1,0v0l0.1,0v0l0,0v0l0,0v0l0,0
	l0,0l0,0v0l0,0v0l0,0v0l0,0v0l0,0v0l0,0l0,0l0,0l0,0h0l0,0l0.1,0l0,0l0,0l0,0h0l0,0h0l0,0l0,0l0,0h0l0,0h0l0,0l0,0l0,0l0,0l0,0l0,0
	l0,0l0,0v0l0.1,0v0l0,0l0,0h0l0,0h0l0,0h0l0,0l0,0l0,0l0,0v0l0,0v0l0,0v0l0,0l0,0l0,0v0l0,0l0,0l0,0l0,0l0,0l0,0l0,0l0,0l0,0l0,0
	l0,0v0l0,0l0,0l0,0l0,0l0,0v0l0,0l0,0l0,0v0l0.1,0l0,0l0,0v0l0,0l0,0h0l0,0l0,0l0,0h0v0h0v0l0.1,0v0l0,0v0l0.1,0l0,0.1h0l0,0h0l0,0
	l0,0v0l0,0v0l0,0l0,0l0,0l0,0l0,0l0,0l0,0h0v0l0,0l0,0h0l0,0l0,0v0l0,0v0l0,0v0l0,0v0l0,0v0l0,0v0l0,0l0,0l0,0l0,0l0,0v0l0.1,0v0
	l0.1,0v0h0v0l0.1,0l0,0l0,0v0l0.1,0v0l0.1,0l0,0l0,0v0l0,0l0,0l0,0l0,0l0,0v0l0.1,0v0l0.2,0l0,0l0,0v0l0,0v0h0v0l0.1,0l0,0l0,0l0,0
	l0,0l0,0l0,0l0-0.1l0,0v0h0l0,0h0l0,0h0l0,0l0,0l0,0l0,0l0,0l0,0l0,0l0,0l0,0l0,0l0,0h0l0,0l0.1,0l0,0h0v0h0l0,0l0,0l0,0h0l0,0
	l0.1,0l0,0h0v0l0,0l0,0l0,0l0,0l0,0l0,0l0,0l0,0l0,0l0,0l0,0v0h0l0,0l0,0l0,0l0,0l0,0h0l0,0h0v0l0,0v0l0,0v0h0v0l0,0h0v0h0l0,0h0.1
	l0,0h0l0,0l0,0v0h0l0,0h0l0,0l0,0v0h0l0,0l0,0v0h0v0l0,0l0,0h0v0h0l0,0h0l0,0.1h0l0,0h0l0,0h0l0,0l0,0v0l0,0v0l0,0v0l0,0l0,0l0,0
	l0,0h0v0h0l0,0h0l0,0h0v0l0,0v0l0,0l0,0l0,0l0,0l0,0v0h0v0l0,0l0,0l0,0v0.1l0,0v0h-0.1l0,0l0,0l0,0l0.1,0l0,0.1l0,0v0l0,0l0,0l0,0v0
	h0.1l0,0l0,0l0,0l0,0l0,0l0,0l0,0h0l0,0h0l0,0.1h0l0,0.1h0v0.1l0,0l0,0.1h0l0,0v0h0l0,0h0v0h0v0h0v0l0,0l0,0l0,0v0l0,0v0h0l0,0l0,0
	v0l0,0v0l0,0l0,0h0l0,0l0,0v0h0v0h0v0l0,0l0,0h0l0,0h0l0,0l0,0v0l0,0v0h0l0,0l0,0v0l0.1,0v0h0.1l0,0l0,0v0h0l0,0h0v0l-0.1,0v0l0,0
	l0,0h0l0,0l0,0l0,0h0l0,0l0,0l0,0l0,0v0h0v0h0v0l0,0l0,0h0l0,0h0l0,0.1l0,0l0,0l0,0v0h0v0h0v0l0,0l0,0l0,0l0,0l0,0v0l0,0l0,0l0,0v0
	l0,0v0l0.1,0v0l0,0v0l0,0l0,0l0,0l0,0l0,0v0l0.1,0v0h0.1l0,0l0,0l0,0l-0.1,0l0,0h0l0,0.1h0l0,0l0,0l0,0l0,0v0h0l0,0h0l0,0l0,0l0,0h0
	l0,0l0,0l0,0h0l0,0.1l0,0l0,0l0,0v0l0,0l0,0l0,0l0,0l0,0l0,0h0l0,0l0,0l0,0l0,0v0l0.1,0l0,0l0,0l0,0l0,0l0,0l0,0l0,0h0v0h0v0l0,0
	l0,0l0,0l0,0l0,0l0,0l0,0v0l0,0v0l0,0l0,0l0,0l0,0v0l0,0l0,0h0v0l0,0l0,0h0l0,0l0,0l0,0h0l0,0l0,0v0.1l0,0v0h0v0h0l0,0h0l0,0l0,0v0
	l0,0v0l0.1,0v0l0,0l0,0h0l0,0l0,0v0h-0.1l0,0h0v0l0,0l0,0l0,0v0l-0.1,0l0,0.1l0,0l0,0h0l0,0h0l0-0.1l0,0l0,0l0,0v0l0,0l0,0l0,0l0,0
	l0,0l0,0l0,0l0,0l0,0l0,0h0l0,0h0v0l0,0l0,0l0,0l0,0l0,0l0,0l0,0l0,0l0,0l0,0l0,0l0,0l0,0l0,0l0,0v0l0,0l0,0h0l0,0l0,0l0,0l0,0l0,0
	l0,0l0,0h0l0-0.1l0,0v0l0,0v0l0,0v0l0,0l0,0l-0.1,0l0,0l0,0l0,0h0v0l0,0v0l0,0l0,0l0,0l0,0l0,0l0,0.1l0,0v0h0v0l0,0l0,0l0,0v0l0,0
	l0,0h0l0,0l0,0l0,0v0l0,0v0l0.1,0l0,0.1l0,0v0l0,0l0,0h0v0h-0.1v0l0,0l0,0l0,0.1l0,0l0,0l0,0l0,0l0,0l0,0l0,0v0l0,0l0,0l0,0l0,0h0v0
	l0,0l0,0l0,0v0h0v0h0l0,0h0v0l0,0v0h-0.1l0-0.1h0v0l0,0l0,0l0,0v0h0l0,0h0l0,0l0,0l0,0h0l0,0l0,0v0l0,0v0l0,0h0l0,0h0l0,0l0,0l0,0
	l0,0v0l0,0l0,0l-0.1,0l0,0h0l0,0l0,0l0,0h0l0,0l0,0l0,0l0,0v0h-0.1v0l-0.1,0l0,0l0,0l0,0l0,0l0,0l0,0l0,0l0,0v0h0v0l0,0v0l0,0l0,0h0
	v0l0,0l0,0h0v0l0,0l0,0h0l0,0l-0.1,0v0l0,0v0h0v0l0,0v0l0,0l0,0l0,0l0,0l0,0l0,0l0,0l0,0l0,0l0,0l0,0h0l0,0l0,0v0h0l0,0l0,0l0,0l0,0
	l0,0l0,0l0,0h0l0,0h0v0l-0.1,0l0,0l0,0l0,0l0,0l0,0l0,0v0l0,0l0,0h0l0,0h0v0h0l0,0h0v0h0v0l0,0v0l0,0v0l0,0l0,0h0l0,0l0,0l0,0h0l0,0
	h0l0,0l0,0l0,0l0,0v0l0,0l0,0l-0.1,0v0l0,0v0l0,0l0,0l0,0v0l0,0v0l0,0l0,0l0,0l0,0l0,0l0,0l0,0l0,0l0,0l0,0l0,0l0,0h0l0,0l0,0l0,0h0
	l0,0l0,0l0,0h0l0,0h0l0,0l0,0l0,0h0l0,0h0l0,0.1h0l0,0l0,0l0,0l0,0v0l0,0v0l0,0v0l0,0v0l0,0l0,0l0,0v0l0,0v0l0,0v0l0,0v0l0,0l0,0
	l0,0v0l0,0v0l0,0v0l0,0v0l0,0v0l0,0v0h0l0,0l0,0l0,0l0,0l0,0l0,0l0,0l0,0l0,0h0l0,0l0,0l0,0l0,0l0,0l0,0l0,0l0,0l0,0l0,0l0,0h0l0,0
	l0,0l0,0l0,0l0,0h0l0,0l0,0l0,0l0,0l0,0h0l0,0h0l0,0l0,0l0,0h0l0,0l0,0l0,0l0,0l0,0h0l0,0h0l0,0.1l0,0v0h0l0,0l0,0l0,0.1l-0.1,0v0
	l0,0l0,0l0,0l0,0l0,0l0,0h0l0,0h0l0,0l0,0l0,0h0l0,0h0l0,0h0l0,0h0l0,0l0,0v0h0l0,0h0l0,0.1h0l0,0h0l0,0l-0.1,0v0l0,0v0l0,0l0,0h0
	l0,0l0,0l0,0h0l0,0h0l0,0h0l0,0.1l0,0l0,0h0l0,0h0l0,0l0,0l0,0l0,0l0,0h0l0,0l0,0l0,0l0,0l0,0l0,0l0,0h0l0,0l-0.1,0l0,0h0l0,0h0v0
	l0,0v0l-0.1,0l0,0l-0.1,0l0,0h0l0,0h0l0,0l0,0v0l0,0l0,0l0,0l0,0l-0.1,0v0l0,0l0,0h0v0l0,0v0l0,0l0,0l0,0l0,0l0,0l0,0l0,0l0,0l0,0
	l0,0h0v0h0v0l0,0v0l0,0v0l0,0l0,0l0,0l0,0l0,0l0,0l0,0l0,0h0l0,0l0,0v0l0,0v0h0l0,0l0,0l0,0.1h0l0,0h0l0,0h0v0.1h0l0,0.1l0,0l0,0h0
	v0h0l0,0l0,0l0,0l0,0v0h0v0l0,0l0,0l0,0l0,0h0v0.1l0,0l0,0l0,0v0l0,0v0.1h0l0,0h0v0l0,0l0,0.1h0l0,0h0v0l0,0v0h0l0,0l0,0v0l0,0v0
	l-0.1,0v0l0,0v0l0,0l0,0l0,0l0,0l0,0l0,0h0l0,0l0,0l0,0h0l0,0l0,0l0,0l0,0v0l0,0v0l0,0l0,0l0,0l0,0l-0.1,0v0l0,0v0l0,0v0l0,0v0h0
	l0,0l0,0v0l0,0v0l0,0l0,0l0,0l0,0h0l0,0l0,0l0,0l0,0l0,0l0,0l0,0h0l0,0l0,0l0,0l0,0l0,0l0,0l0,0h0l0,0h0l0,0l0,0l0,0l0,0l0,0h0l0,0
	l0,0l0,0h0v0h0v0l0,0l0,0h0l0,0h0l0,0v0h0v0l0,0l0,0h0l0,0l-0.1,0v0l0,0v0l0,0v0h0l0,0h0l0,0l0,0v0l0,0l0,0l0,0l0,0l0,0l0,0l0,0l0,0
	l0,0v0l0,0l0,0l0,0l0,0l0,0l0,0l0,0l0,0h0l0,0l0,0l0,0l0,0l0,0h0l0,0l0,0l0,0h0l0,0l-0.1,0v0l0,0v0l-0.1,0v0l0,0l0,0l-0.1,0v0
	l-0.1,0v0l0,0v0l0,0l0,0l0,0l0,0h0l0,0l0,0v0l0,0v0l-0.1,0v0l0,0v0l-0.1,0v0l-0.1,0v0l-0.1,0v0l0,0l0,0l-0.1,0v0l0,0v0l0,0v0l0,0
	l0,0l0,0v0h-0.1v0l0,0v0h0v0l0,0v0l0,0l0,0l0,0l0,0l0,0l0,0l0,0l0,0l0,0l0,0l0,0l0,0l-0.1,0v0l0,0v0h0l0,0l0,0l0,0h0v0l0,0v0l0,0
	l0,0l0,0l0,0l0,0l0,0l0,0l0,0l0,0l0,0h0v0l0,0v0l0,0v0l-0.1,0v0l0,0v0l0,0v0l0,0l0,0h0l0,0l-0.1,0l0,0l-0.1,0l0,0v0L926.6,568.3
	L926.6,568.3L926.6,568.3L926.6,568.3L926.6,568.3"/>
<g>
	<path class="st3" d="M912.2,564.4c4.6-4.6,4.6-12.1,0-16.7c-2.2-2.2-5.2-3.5-8.4-3.5c-3.2,0-6.1,1.2-8.4,3.5
		c-2.2,2.2-3.5,5.2-3.5,8.4c0,3.2,1.2,6.1,3.5,8.4c2.3,2.3,5.3,3.5,8.4,3.5C906.9,567.9,909.9,566.7,912.2,564.4L912.2,564.4z
		 M898,550.2c1.6-1.6,3.6-2.4,5.9-2.4c1.6,0,3,0.4,4.3,1.2l-11.4,11.4c-0.8-1.3-1.2-2.8-1.2-4.3C895.6,553.8,896.5,551.8,898,550.2z
		 M909.7,561.9c-2.8,2.8-7,3.2-10.2,1.2l11.4-11.4c0.8,1.3,1.2,2.8,1.2,4.3C912.2,558.3,911.3,560.3,909.7,561.9z"/>
	<polygon class="st3" points="910,538.3 910,541.8 918.1,541.8 918.1,549.9 921.6,549.9 921.6,538.3 	"/>
	<polygon class="st3" points="918.1,570.3 910,570.3 910,573.8 921.6,573.8 921.6,562.2 918.1,562.2 	"/>
	<polygon class="st3" points="889.7,562.2 886.1,562.2 886.1,573.8 897.7,573.8 897.7,570.3 889.7,570.3 	"/>
	<polygon class="st3" points="889.7,541.8 897.7,541.8 897.7,538.3 886.1,538.3 886.1,549.9 889.7,549.9 	"/>
</g>
<g>
	<path class="st3" d="M545.1,525.4c4.6-4.6,4.6-12.1,0-16.7c-2.2-2.2-5.2-3.5-8.4-3.5c-3.2,0-6.1,1.2-8.4,3.5
		c-2.2,2.2-3.5,5.2-3.5,8.4c0,3.2,1.2,6.1,3.5,8.4c2.3,2.3,5.3,3.5,8.4,3.5C539.8,528.9,542.8,527.7,545.1,525.4L545.1,525.4z
		 M530.9,511.2c1.6-1.6,3.6-2.4,5.9-2.4c1.6,0,3,0.4,4.3,1.2l-11.4,11.4c-0.8-1.3-1.2-2.8-1.2-4.3
		C528.5,514.9,529.4,512.8,530.9,511.2z M542.6,522.9c-2.8,2.8-7,3.2-10.2,1.2l11.4-11.4c0.8,1.3,1.2,2.8,1.2,4.3
		C545.1,519.3,544.2,521.4,542.6,522.9z"/>
	<polygon class="st3" points="542.9,499.3 542.9,502.8 551,502.8 551,510.9 554.5,510.9 554.5,499.3 	"/>
	<polygon class="st3" points="551,531.3 542.9,531.3 542.9,534.8 554.5,534.8 554.5,523.2 551,523.2 	"/>
	<polygon class="st3" points="522.6,523.2 519,523.2 519,534.8 530.6,534.8 530.6,531.3 522.6,531.3 	"/>
	<polygon class="st3" points="522.6,502.8 530.6,502.8 530.6,499.3 519,499.3 519,510.9 522.6,510.9 	"/>
</g>
<g>
	<path class="st3" d="M527.4,513.5c4.6-4.6,4.6-12.1,0-16.7c-2.2-2.2-5.2-3.5-8.4-3.5c-3.2,0-6.1,1.2-8.4,3.5
		c-2.2,2.2-3.5,5.2-3.5,8.4s1.2,6.1,3.5,8.4c2.3,2.3,5.3,3.5,8.4,3.5C522.1,516.9,525.1,515.8,527.4,513.5L527.4,513.5z
		 M513.2,499.3c1.6-1.6,3.6-2.4,5.9-2.4c1.6,0,3,0.4,4.3,1.2L512,509.4c-0.8-1.3-1.2-2.8-1.2-4.3
		C510.8,502.9,511.6,500.8,513.2,499.3z M524.9,511c-2.8,2.8-7,3.2-10.2,1.2l11.4-11.4c0.8,1.3,1.2,2.8,1.2,4.3
		C527.3,507.3,526.4,509.4,524.9,511z"/>
	<polygon class="st3" points="525.2,487.4 525.2,490.9 533.3,490.9 533.3,498.9 536.8,498.9 536.8,487.4 	"/>
	<polygon class="st3" points="533.3,519.3 525.2,519.3 525.2,522.9 536.8,522.9 536.8,511.3 533.3,511.3 	"/>
	<polygon class="st3" points="504.8,511.3 501.3,511.3 501.3,522.9 512.9,522.9 512.9,519.3 504.8,519.3 	"/>
	<polygon class="st3" points="504.8,490.9 512.9,490.9 512.9,487.4 501.3,487.4 501.3,498.9 504.8,498.9 	"/>
</g>
</svg>
